{
.appVersion = "1342";
copyright = "(";
customParameters = (
{
name = trademark;
value = "Please refer to the Copyright section for the font trademark attribution notices.";
},
{
name = panose;
value = (
2,
0,
5,
6,
2,
0,
0,
2,
0,
3
);
},
{
name = unicodeRanges;
value = (
0
);
},
{
name = fsType;
value = (
2
);
},
{
name = blueScale;
value = 0.0371;
},
{
name = glyphOrder;
value = (
.notdef,
exclam,
quotedbl,
numbersign,
dollar,
percent,
ampersand,
quotesingle,
parenleft,
parenright,
asterisk,
comma,
hyphen,
period,
slash,
zero,
one,
two,
three,
four,
five,
six,
seven,
eight,
nine,
colon,
semicolon,
less,
equal,
greater,
question,
at,
A,
B,
C,
D,
E,
F,
G,
H,
I,
J,
K,
L,
M,
N,
O,
P,
Q,
R,
S,
T,
U,
V,
W,
X,
Y,
Z,
bracketleft,
backslash,
bracketright,
asciicircum,
grave,
a,
b,
c,
d,
e,
f,
g,
h,
i,
j,
k,
l,
m,
n,
o,
p,
q,
r,
s,
t,
u,
v,
w,
x,
y,
z,
braceleft,
bar,
braceright,
asciitilde,
Adieresis,
Aring,
Ccedilla,
Eacute,
Ntilde,
Odieresis,
Udieresis,
aacute,
agrave,
acircumflex,
adieresis,
atilde,
aring,
ccedilla,
eacute,
egrave,
ecircumflex,
edieresis,
iacute,
igrave,
icircumflex,
idieresis,
ntilde,
oacute,
ograve,
ocircumflex,
odieresis,
otilde,
uacute,
ugrave,
ucircumflex,
udieresis,
degree,
cent,
sterling,
section,
bullet,
paragraph,
germandbls,
registered,
copyright,
trademark,
acute,
dieresis,
notequal,
AE,
Oslash,
plusminus,
lessequal,
greaterequal,
questiondown,
exclamdown,
Delta,
guillemotleft,
guillemotright,
ellipsis,
nbspace,
Agrave,
Atilde,
Otilde,
OE,
oe,
endash,
emdash,
quotedblleft,
quotedblright,
quoteleft,
quoteright,
divide,
ydieresis,
Ydieresis,
fraction,
perthousand,
Acircumflex,
Ecircumflex,
Aacute,
Edieresis,
Egrave,
Iacute,
Icircumflex,
Idieresis,
Igrave,
Oacute,
Ocircumflex,
apple,
Ograve,
Uacute,
Ucircumflex,
Ugrave,
dotlessi,
circumflex,
tilde,
macron,
ring,
cedilla,
space,
Euro
);
}
);
date = "2015-11-10 02:08:38 +0000";
disablesNiceNames = 1;
familyName = RugeBoogieNormalROB;
fontMaster = (
{
alignmentZones = (
"{658, 24}",
"{621, 4}",

glyphs = (
{
glyphname = exclam;
layers = (
{
hints = (
{
horizontal = 1;
place = "{-15, 40}";
type = Stem;
},
{
horizontal = 1;
place = "{92, 28}";
type = Stem;
},
{
horizontal = 1;
place = "{186, 28}";
type = Stem;
},
{
place = "{94, 36}";
type = Stem;
},
{
place = "{140, 16}";
type = Stem;
},
{
place = "{160, 26}";
type = Stem;
}
);
layerId = "245B06BA-2FC8-4E2B-85DB-2741CBBED619";
paths = (
{
closed = 1;
nodes = (
"216 591 OFFCURVE",
"213 598 OFFCURVE",
"212 612 CURVE SMOOTH",
"209 647 OFFCURVE",
"157 643 OFFCURVE",
"160 608 CURVE SMOOTH",
"161 596 OFFCURVE",
"164 589 OFFCURVE",
"164 577 CURVE SMOOTH",
"164 550 OFFCURVE",
"154 523 OFFCURVE",
"150 496 CURVE SMOOTH",
"149 486 OFFCURVE",
"151 482 OFFCURVE",
"150 474 CURVE SMOOTH",
"141 418 OFFCURVE",
"142 359 OFFCURVE",
"139 303 CURVE SMOOTH",
"138 286 OFFCURVE",
"136 273 OFFCURVE",
"136 261 CURVE SMOOTH",
"136 226 OFFCURVE",
"143 186 OFFCURVE",
"178 186 CURVE SMOOTH",
"197 186 OFFCURVE",
"197 214 OFFCURVE",
"178 214 CURVE SMOOTH",
"157 214 OFFCURVE",
"156 240 OFFCURVE",
"156 261 CURVE SMOOTH",
"156 303 OFFCURVE",
"173 346 OFFCURVE",
"176 385 CURVE SMOOTH",
"178 413 OFFCURVE",
"189 435 OFFCURVE",
"194 467 CURVE SMOOTH",
"195 475 OFFCURVE",
"200 478 OFFCURVE",
"201 488 CURVE SMOOTH",
"206 518 OFFCURVE",
"216 546 OFFCURVE",
"216 577 CURVE SMOOTH"
);
},
{
closed = 1;
nodes = (
"198 37 OFFCURVE",
"190 55 OFFCURVE",
"187 46 CURVE SMOOTH",
"185 39 OFFCURVE",
"170 25 OFFCURVE",
"159 25 CURVE SMOOTH",
"137 26 OFFCURVE",
"130 42 OFFCURVE",
"130 62 CURVE SMOOTH",
"130 71 OFFCURVE",
"137 92 OFFCURVE",
"147 92 CURVE SMOOTH",
"166 92 OFFCURVE",
"162 63 OFFCURVE",
"149 58 CURVE SMOOTH",
"138 54 OFFCURVE",
"144 38 OFFCURVE",
"155 42 CURVE SMOOTH",
"166 46 OFFCURVE",
"176 48 OFFCURVE",
"181 57 CURVE SMOOTH",
"197 84 OFFCURVE",
"174 120 OFFCURVE",
"147 120 CURVE SMOOTH",
"121 120 OFFCURVE",
"94 84 OFFCURVE",
"94 64 CURVE SMOOTH",
"94 26 OFFCURVE",
"114 -16 OFFCURVE",
"157 -15 CURVE SMOOTH",
"178 -15 OFFCURVE",
"195 8 OFFCURVE",
"197 25 CURVE SMOOTH"
);
}
);
width = 234;
}
);
note = exclam;
unicode = 0021;
},
{
glyphname = quotedbl;
layers = (
{
hints = (
{
horizontal = 1;
place = "{581, 26}";
type = Stem;
},
{
place = "{93, 19}";
type = Stem;
},
{
place = "{128, 28}";
type = Stem;
},
{
place = "{209, 26}";
type = Stem;
}
);
layerId = "245B06BA-2FC8-4E2B-85DB-2741CBBED619";
paths = (
{
closed = 1;
nodes = (
"234 571 OFFCURVE",
"228 607 OFFCURVE",
"179 607 CURVE SMOOTH",
"160 607 OFFCURVE",
"127 574 OFFCURVE",
"127 559 CURVE SMOOTH",
"127 538 OFFCURVE",
"149 508 OFFCURVE",
"172 508 CURVE SMOOTH",
"187 508 OFFCURVE",
"198 518 OFFCURVE",
"198 536 CURVE SMOOTH",
"198 543 OFFCURVE",
"192 549 OFFCURVE",
"187 553 CURVE",
"186 553 LINE",
"167 566 OFFCURVE",
"177 539 OFFCURVE",
"177 536 CURVE SMOOTH",
"177 534 OFFCURVE",
"174 536 OFFCURVE",
"172 536 CURVE SMOOTH",
"170 536 OFFCURVE",
"155 555 OFFCURVE",
"155 559 CURVE SMOOTH",
"155 569 OFFCURVE",
"169 581 OFFCURVE",
"179 581 CURVE SMOOTH",
"195 581 OFFCURVE",
"208 544 OFFCURVE",
"208 532 CURVE SMOOTH",
"208 513 OFFCURVE",
"178 447 OFFCURVE",
"168 434 CURVE SMOOTH",
"161 426 OFFCURVE",
"174 415 OFFCURVE",
"181 424 CURVE SMOOTH",
"193 439 OFFCURVE",
"234 508 OFFCURVE",
"234 531 CURVE SMOOTH"
);
},
{
closed = 1;
nodes = (
"111 549 OFFCURVE",
"107 603 OFFCURVE",
"75 604 CURVE SMOOTH",
"62 604 OFFCURVE",
"53 597 OFFCURVE",
"47 589 CURVE SMOOTH",
"44 585 OFFCURVE",
"28 555 OFFCURVE",
"28 548 CURVE SMOOTH",
"28 541 OFFCURVE",
"26 525 OFFCURVE",
"31 516 CURVE SMOOTH",
"35 510 OFFCURVE",
"60 500 OFFCURVE",
"63 500 CURVE SMOOTH",
"72 501 OFFCURVE",
"87 520 OFFCURVE",
"87 527 CURVE SMOOTH",
"87 535 OFFCURVE",
"83 537 OFFCURVE",
"81 543 CURVE SMOOTH",
"78 553 OFFCURVE",
"62 548 OFFCURVE",
"66 537 CURVE",
"66 533 OFFCURVE",
"67 531 OFFCURVE",
"67 527 CURVE SMOOTH",
"67 526 OFFCURVE",
"64 527 OFFCURVE",
"63 527 CURVE SMOOTH",
"60 528 OFFCURVE",
"53 545 OFFCURVE",
"53 548 CURVE SMOOTH",
"53 549 OFFCURVE",
"49 557 OFFCURVE",
"49 557 CURVE",
"52 567 OFFCURVE",
"61 587 OFFCURVE",
"74 587 CURVE SMOOTH",
"91 588 OFFCURVE",
"94 539 OFFCURVE",
"94 528 CURVE",
"95 523 OFFCURVE",
"93 504 OFFCURVE",
"93 503 CURVE SMOOTH",
"87 472 OFFCURVE",
"62 451 OFFCURVE",
"49 423 CURVE SMOOTH",
"42 407 OFFCURVE",
"66 396 OFFCURVE",
"73 412 CURVE SMOOTH",
"75 417 OFFCURVE",
"77 422 OFFCURVE",
"80 426 CURVE SMOOTH",
"101 460 OFFCURVE",
"110 486 OFFCURVE",
"111 527 CURVE SMOOTH"
);
}
);
width = 239;
}
);
note = quotedbl;
unicode = 0022;
},
{
glyphname = numbersign;
layers = (
{
hints = (
{
horizontal = 1;
place = "{471, 41}";
type = Stem;
},
{
horizontal = 1;
place = "{572, 27}";
type = Stem;
},
{
horizontal = 1;
place = "{682, -20}";
target = down;
type = TopGhost;
},
{
place = "{93, 42}";
type = Stem;
},
{
place = "{240, 17}";
type = Stem;
},
{
place = "{203, 17}";
type = Stem;
}
);
layerId = "245B06BA-2FC8-4E2B-85DB-2741CBBED619";
paths = (
{
closed = 1;
nodes = (
"398 583 OFFCURVE",
"368 596 OFFCURVE",
"331 599 CURVE",
"340 622 OFFCURVE",
"351 645 OFFCURVE",
"363 669 CURVE SMOOTH",
"369 680 OFFCURVE",
"352 688 OFFCURVE",
"346 677 CURVE SMOOTH",
"331 650 OFFCURVE",
"318 625 OFFCURVE",
"306 599 CURVE",
"270 598 OFFCURVE",
"236 589 OFFCURVE",
"203 576 CURVE",
"206 582 OFFCURVE",
"209 586 OFFCURVE",
"213 588 CURVE SMOOTH",
"229 597 OFFCURVE",
"215 621 OFFCURVE",
"199 612 CURVE SMOOTH",
"183 603 OFFCURVE",
"168 582 OFFCURVE",
"155 556 CURVE",
"97 528 OFFCURVE",
"42 492 OFFCURVE",
"-16 466 CURVE SMOOTH",
"-26 461 OFFCURVE",
"-19 445 OFFCURVE",
"-9 450 CURVE SMOOTH",
"41 472 OFFCURVE",
"90 501 OFFCURVE",
"140 525 CURVE",
"133 508 OFFCURVE",
"127 491 OFFCURVE",
"121 475 CURVE",
"104 469 LINE SMOOTH",
"59 453 OFFCURVE",
"25 433 OFFCURVE",
"-13 395 CURVE",
"-12 394 LINE",
"-24 383 OFFCURVE",
"-7 366 OFFCURVE",
"4 377 CURVE SMOOTH",
"36 409 OFFCURVE",
"70 416 OFFCURVE",
"107 427 CURVE",
"105 423 LINE SMOOTH",
"98 402 OFFCURVE",
"96 380 OFFCURVE",
"93 359 CURVE SMOOTH",
"89 331 OFFCURVE",
"131 325 OFFCURVE",
"135 353 CURVE SMOOTH",
"138 372 OFFCURVE",
"146 390 OFFCURVE",
"152 409 CURVE SMOOTH",
"161 444 LINE",
"193 454 OFFCURVE",
"226 462 OFFCURVE",
"260 467 CURVE",
"255 451 OFFCURVE",
"251 435 OFFCURVE",
"248 421 CURVE SMOOTH",
"242 398 OFFCURVE",
"242 374 OFFCURVE",
"240 350 CURVE SMOOTH",
"239 339 OFFCURVE",
"256 338 OFFCURVE",
"257 349 CURVE SMOOTH",
"258 372 OFFCURVE",
"270 392 OFFCURVE",
"276 415 CURVE SMOOTH",
"293 470 LINE",
"304 471 OFFCURVE",
"316 471 OFFCURVE",
"328 471 CURVE SMOOTH",
"352 472 OFFCURVE",
"366 476 OFFCURVE",
"385 471 CURVE SMOOTH",
"403 466 OFFCURVE",
"410 493 OFFCURVE",
"392 498 CURVE SMOOTH",
"370 503 OFFCURVE",
"356 513 OFFCURVE",
"327 513 CURVE",
"319 512 OFFCURVE",
"312 512 OFFCURVE",
"305 512 CURVE",
"323 572 LINE",
"355 573 OFFCURVE",
"384 568 OFFCURVE",
"400 544 CURVE SMOOTH",
"407 533 OFFCURVE",
"424 544 OFFCURVE",
"417 555 CURVE SMOOTH"
);
},
{
closed = 1;
nodes = (
"273 510 LINE",
"238 506 OFFCURVE",
"204 499 OFFCURVE",
"171 490 CURVE",
"176 509 OFFCURVE",
"182 529 OFFCURVE",
"188 546 CURVE",
"222 559 OFFCURVE",
"257 569 OFFCURVE",
"294 572 CURVE"
);
}
);
width = 412;
}
);
note = numbersign;
unicode = 0023;
},
{
glyphname = dollar;
layers = (
{
hints = (
{
horizontal = 1;
place = "{94, 36}";
type = Stem;
},
{
horizontal = 1;
place = "{300, 25}";
type = Stem;
},
{
horizontal = 1;
place = "{592, 44}";
type = Stem;
},
{
place = "{23, 27}";
type = Stem;
},
{
place = "{120, 23}";
type = Stem;
},
{
place = "{299, 39}";
type = Stem;
}
);
layerId = "245B06BA-2FC8-4E2B-85DB-2741CBBED619";
paths = (
{
closed = 1;
nodes = (
"339 395 OFFCURVE",
"289 430 OFFCURVE",
"228 445 CURVE SMOOTH",
"218 447 OFFCURVE",
"200 450 OFFCURVE",
"181 455 CURVE",
"172 496 OFFCURVE",
"167 537 OFFCURVE",
"167 576 CURVE",
"186 586 OFFCURVE",
"205 592 OFFCURVE",
"220 592 CURVE SMOOTH",
"243 592 OFFCURVE",
"260 577 OFFCURVE",
"264 557 CURVE SMOOTH",
"269 536 OFFCURVE",
"300 542 OFFCURVE",
"296 563 CURVE SMOOTH",
"288 601 OFFCURVE",
"263 636 OFFCURVE",
"220 636 CURVE SMOOTH",
"209 636 OFFCURVE",
"191 631 OFFCURVE",
"171 623 CURVE",
"175 655 OFFCURVE",
"185 691 OFFCURVE",
"211 701 CURVE",
"211 702 LINE",
"221 706 OFFCURVE",
"215 722 OFFCURVE",
"204 718 CURVE SMOOTH",
"167 704 OFFCURVE",
"143 654 OFFCURVE",
"139 612 CURVE SMOOTH",
"139 609 LINE",
"94 586 OFFCURVE",
"50 551 OFFCURVE",
"50 515 CURVE SMOOTH",
"50 468 OFFCURVE",
"90 443 OFFCURVE",
"113 432 CURVE SMOOTH",
"126 426 OFFCURVE",
"141 422 OFFCURVE",
"157 418 CURVE",
"169 369 OFFCURVE",
"183 320 OFFCURVE",
"197 274 CURVE SMOOTH",
"204 249 OFFCURVE",
"223 218 OFFCURVE",
"237 187 CURVE",
"204 153 OFFCURVE",
"163 130 OFFCURVE",
"121 130 CURVE SMOOTH",
"75 130 OFFCURVE",
"53 182 OFFCURVE",
"52 228 CURVE SMOOTH",
"52 256 OFFCURVE",
"49 300 OFFCURVE",
"79 300 CURVE SMOOTH",
"124 299 OFFCURVE",
"126 265 OFFCURVE",
"118 231 CURVE",
"114 240 OFFCURVE",
"100 237 OFFCURVE",
"102 227 CURVE SMOOTH",
"104 208 OFFCURVE",
"111 202 OFFCURVE",
"115 201 CURVE",
"121 201 OFFCURVE",
"130 205 OFFCURVE",
"135 217 CURVE SMOOTH",
"154 268 OFFCURVE",
"149 326 OFFCURVE",
"79 325 CURVE SMOOTH",
"36 325 OFFCURVE",
"24 268 OFFCURVE",
"24 228 CURVE SMOOTH",
"24 164 OFFCURVE",
"57 94 OFFCURVE",
"121 94 CURVE SMOOTH",
"167 94 OFFCURVE",
"212 116 OFFCURVE",
"249 150 CURVE",
"255 129 OFFCURVE",
"257 109 OFFCURVE",
"250 92 CURVE SMOOTH",
"244 77 OFFCURVE",
"267 68 OFFCURVE",
"273 83 CURVE SMOOTH",
"285 112 OFFCURVE",
"281 142 OFFCURVE",
"271 172 CURVE",
"312 218 OFFCURVE",
"339 277 OFFCURVE",
"339 329 CURVE SMOOTH"
);
},
{
closed = 1;
nodes = (
"299 290 OFFCURVE",
"282 246 OFFCURVE",
"255 209 CURVE",
"244 235 OFFCURVE",
"232 259 OFFCURVE",
"225 282 CURVE SMOOTH",
"214 323 OFFCURVE",
"201 367 OFFCURVE",
"190 412 CURVE",
"231 403 OFFCURVE",
"272 392 OFFCURVE",
"293 361 CURVE SMOOTH",
"300 351 OFFCURVE",
"300 342 OFFCURVE",
"300 329 CURVE SMOOTH"
);
},
{
closed = 1;
nodes = (
"117 475 OFFCURVE",
"92 490 OFFCURVE",
"92 514 CURVE SMOOTH",
"92 517 OFFCURVE",
"94 518 OFFCURVE",
"95 520 CURVE SMOOTH",
"104 533 OFFCURVE",
"119 547 OFFCURVE",
"136 559 CURVE",
"137 527 OFFCURVE",
"141 496 OFFCURVE",
"147 465 CURVE"
);
}
);
width = 368;
}
);
note = dollar;
unicode = 0024;
},
{
glyphname = percent;
layers = (
{
hints = (
{
horizontal = 1;
place = "{27, 19}";
type = Stem;
},
{
horizontal = 1;
place = "{437, 28}";
type = Stem;
},
{
horizontal = 1;
place = "{527, 34}";
type = Stem;
},
{
horizontal = 1;
place = "{666, -20}";
target = down;
type = TopGhost;
},
{
place = "{41, 34}";
type = Stem;
},
{
place = "{176, 17}";
type = Stem;
},
{
place = "{215, 26}";
type = Stem;
},
{
place = "{304, 17}";
type = Stem;
}
);
layerId = "245B06BA-2FC8-4E2B-85DB-2741CBBED619";
paths = (
{
closed = 1;
nodes = (
"198 599 OFFCURVE",
"170 594 OFFCURVE",
"124 604 CURVE SMOOTH",
"113 606 OFFCURVE",
"110 590 OFFCURVE",
"121 588 CURVE SMOOTH",
"131 586 OFFCURVE",
"159 582 OFFCURVE",
"168 575 CURVE SMOOTH",
"189 562 OFFCURVE",
"172 465 OFFCURVE",
"112 465 CURVE SMOOTH",
"92 465 OFFCURVE",
"75 478 OFFCURVE",
"75 499 CURVE SMOOTH",
"75 520 OFFCURVE",
"91 531 OFFCURVE",
"109 526 CURVE SMOOTH",
"131 520 OFFCURVE",
"140 553 OFFCURVE",
"118 559 CURVE SMOOTH",
"79 570 OFFCURVE",
"41 543 OFFCURVE",
"41 499 CURVE SMOOTH",
"41 458 OFFCURVE",
"74 437 OFFCURVE",
"111 437 CURVE SMOOTH",
"161 437 OFFCURVE",
"187 491 OFFCURVE",
"192 537 CURVE SMOOTH"
);
},
{
closed = 1;
nodes = (
"459 638 LINE",
"473 656 OFFCURVE",
"447 677 OFFCURVE",
"433 659 CURVE SMOOTH",
"321 521 OFFCURVE",
"216 387 OFFCURVE",
"142 223 CURVE SMOOTH",
"105 141 OFFCURVE",
"49 60 OFFCURVE",
"56 -33 CURVE SMOOTH",
"57 -44 OFFCURVE",
"66 -51 OFFCURVE",
"70 -59 CURVE",
"75 -74 OFFCURVE",
"124 -99 OFFCURVE",
"107 -64 CURVE SMOOTH",
"93 -35 OFFCURVE",
"128 76 OFFCURVE",
"141 103 CURVE SMOOTH",
"226 283 OFFCURVE",
"333 481 OFFCURVE",
"459 637 CURVE"
);
},
{
closed = 1;
nodes = (
"249 158 OFFCURVE",
"357 45 OFFCURVE",
"268 45 CURVE SMOOTH",
"246 45 OFFCURVE",
"241 57 OFFCURVE",
"241 84 CURVE SMOOTH",
"241 104 OFFCURVE",
"248 111 OFFCURVE",
"269 126 CURVE",
"269 125 LINE",
"284 135 OFFCURVE",
"269 156 OFFCURVE",
"255 146 CURVE SMOOTH",
"232 131 OFFCURVE",
"215 118 OFFCURVE",
"215 85 CURVE SMOOTH",
"215 40 OFFCURVE",
"232 26 OFFCURVE",
"268 26 CURVE SMOOTH",
"325 26 OFFCURVE",
"340 114 OFFCURVE",
"296 135 CURVE SMOOTH"
);
}
);
width = 432;
}
);
note = percent;
unicode = 0025;
},
{
glyphname = ampersand;
layers = (
{
hints = (
{
horizontal = 1;
place = "{41, 34}";
type = Stem;
},
{
horizontal = 1;
place = "{133, 42}";
type = Stem;
},
{
horizontal = 1;
place = "{352, 26}";
type = Stem;
},
{
horizontal = 1;
place = "{444, 14}";
type = Stem;
},
{
place = "{32, 30}";
type = Stem;
},
{
place = "{148, 42}";
type = Stem;
},
{
place = "{247, 29}";
type = Stem;
},
{
place = "{434, 14}";
type = Stem;
}
);
layerId = "245B06BA-2FC8-4E2B-85DB-2741CBBED619";
paths = (
{
closed = 1;
nodes = (
"447 436 OFFCURVE",
"423 458 OFFCURVE",
"397 458 CURVE SMOOTH",
"363 458 OFFCURVE",
"338 428 OFFCURVE",
"342 398 CURVE SMOOTH",
"343 389 OFFCURVE",
"357 391 OFFCURVE",
"356 400 CURVE SMOOTH",
"353 422 OFFCURVE",
"372 446 OFFCURVE",
"397 445 CURVE SMOOTH",
"416 445 OFFCURVE",
"434 428 OFFCURVE",
"434 408 CURVE SMOOTH",
"433 379 OFFCURVE",
"412 349 OFFCURVE",
"392 326 CURVE SMOOTH",
"371 301 OFFCURVE",
"327 290 OFFCURVE",
"293 279 CURVE SMOOTH",
"272 272 OFFCURVE",
"249 271 OFFCURVE",
"228 264 CURVE SMOOTH",
"184 250 OFFCURVE",
"147 231 OFFCURVE",
"147 181 CURVE SMOOTH",
"147 147 OFFCURVE",
"175 133 OFFCURVE",
"202 133 CURVE SMOOTH",
"215 133 OFFCURVE",
"219 134 OFFCURVE",
"234 133 CURVE SMOOTH",
"262 131 OFFCURVE",
"264 173 OFFCURVE",
"236 174 CURVE SMOOTH",
"220 175 OFFCURVE",
"216 174 OFFCURVE",
"203 174 CURVE SMOOTH",
"197 174 OFFCURVE",
"189 174 OFFCURVE",
"189 181 CURVE SMOOTH",
"189 207 OFFCURVE",
"216 222 OFFCURVE",
"238 230 CURVE SMOOTH",
"276 243 LINE",
"276 235 OFFCURVE",
"279 227 OFFCURVE",
"285 226 CURVE SMOOTH",
"302 224 OFFCURVE",
"305 208 OFFCURVE",
"305 191 CURVE SMOOTH",
"305 175 OFFCURVE",
"302 164 OFFCURVE",
"294 151 CURVE SMOOTH",
"273 115 OFFCURVE",
"244 74 OFFCURVE",
"195 74 CURVE SMOOTH",
"142 74 OFFCURVE",
"97 103 OFFCURVE",
"97 162 CURVE SMOOTH",
"97 200 OFFCURVE",
"109 246 OFFCURVE",
"132 283 CURVE",
"135 284 LINE",
"162 284 OFFCURVE",
"275 299 OFFCURVE",
"275 339 CURVE SMOOTH",
"275 361 OFFCURVE",
"260 378 OFFCURVE",
"239 378 CURVE SMOOTH",
"192 378 OFFCURVE",
"151 353 OFFCURVE",
"120 317 CURVE",
"83 326 OFFCURVE",
"62 370 OFFCURVE",
"62 410 CURVE SMOOTH",
"62 469 OFFCURVE",
"98 527 OFFCURVE",
"154 547 CURVE SMOOTH",
"172 554 OFFCURVE",
"198 563 OFFCURVE",
"220 563 CURVE SMOOTH",
"253 563 OFFCURVE",
"293 539 OFFCURVE",
"293 501 CURVE SMOOTH",
"293 463 OFFCURVE",
"251 418 OFFCURVE",
"215 417 CURVE SMOOTH",
"191 417 OFFCURVE",
"169 428 OFFCURVE",
"169 455 CURVE SMOOTH",
"169 481 OFFCURVE",
"191 501 OFFCURVE",
"216 501 CURVE SMOOTH",
"245 501 OFFCURVE",
"242 469 OFFCURVE",
"224 464 CURVE SMOOTH",
"215 462 OFFCURVE",
"219 449 OFFCURVE",
"228 451 CURVE SMOOTH",
"269 463 OFFCURVE",
"266 520 OFFCURVE",
"215 520 CURVE SMOOTH",
"181 520 OFFCURVE",
"152 492 OFFCURVE",
"152 457 CURVE SMOOTH",
"151 418 OFFCURVE",
"180 400 OFFCURVE",
"215 400 CURVE SMOOTH",
"260 400 OFFCURVE",
"315 454 OFFCURVE",
"315 501 CURVE SMOOTH",
"315 551 OFFCURVE",
"264 586 OFFCURVE",
"219 586 CURVE SMOOTH",
"195 586 OFFCURVE",
"166 578 OFFCURVE",
"145 570 CURVE SMOOTH",
"79 545 OFFCURVE",
"33 480 OFFCURVE",
"32 410 CURVE SMOOTH",
"32 363 OFFCURVE",
"57 309 OFFCURVE",
"100 290 CURVE",
"75 251 OFFCURVE",
"60 204 OFFCURVE",
"60 162 CURVE SMOOTH",
"60 81 OFFCURVE",
"122 41 OFFCURVE",
"195 41 CURVE SMOOTH",
"248 41 OFFCURVE",
"271 91 OFFCURVE",
"297 131 CURVE SMOOTH",
"309 150 OFFCURVE",
"321 165 OFFCURVE",
"320 190 CURVE SMOOTH",
"320 210 OFFCURVE",
"313 237 OFFCURVE",
"299 251 CURVE",
"340 265 OFFCURVE",
"381 284 OFFCURVE",
"407 314 CURVE SMOOTH",
"430 339 OFFCURVE",
"447 375 OFFCURVE",
"447 408 CURVE SMOOTH"
);
},
{
closed = 1;
nodes = (
"248 333 OFFCURVE",
"238 334 OFFCURVE",
"230 331 CURVE SMOOTH",
"212 326 OFFCURVE",
"184 320 OFFCURVE",
"160 317 CURVE",
"182 338 OFFCURVE",
"209 352 OFFCURVE",
"241 352 CURVE SMOOTH",
"247 352 OFFCURVE",
"248 345 OFFCURVE",
"248 339 CURVE SMOOTH"
);
}
);
width = 472;
}
);
note = ampersand;
unicode = 0026;
},
{
glyphname = quotesingle;
layers = (
{
hints = (
{
horizontal = 1;
place = "{407, 21}";
target = up;
type = BottomGhost;
},
{
place = "{24, 17}";
type = Stem;
},
{
place = "{69, 19}";
type = Stem;
},
{
place = "{97, 24}";
type = Stem;
}
);
layerId = "245B06BA-2FC8-4E2B-85DB-2741CBBED619";
paths = (
{
closed = 1;
nodes = (
"121 442 OFFCURVE",
"119 449 OFFCURVE",
"118 457 CURVE SMOOTH",
"108 513 OFFCURVE",
"43 513 OFFCURVE",
"29 459 CURVE SMOOTH",
"27 453 OFFCURVE",
"24 448 OFFCURVE",
"24 442 CURVE SMOOTH",
"24 424 OFFCURVE",
"36 408 OFFCURVE",
"55 408 CURVE SMOOTH",
"70 408 OFFCURVE",
"86 416 OFFCURVE",
"87 435 CURVE SMOOTH",
"87 448 OFFCURVE",
"81 450 OFFCURVE",
"73 457 CURVE SMOOTH",
"66 463 OFFCURVE",
"57 453 OFFCURVE",
"64 447 CURVE SMOOTH",
"70 441 OFFCURVE",
"69 441 OFFCURVE",
"69 435 CURVE SMOOTH",
"69 430 OFFCURVE",
"58 428 OFFCURVE",
"55 428 CURVE SMOOTH",
"44 428 OFFCURVE",
"40 432 OFFCURVE",
"40 441 CURVE SMOOTH",
"40 446 OFFCURVE",
"40 450 OFFCURVE",
"41 454 CURVE SMOOTH",
"47 473 OFFCURVE",
"62 488 OFFCURVE",
"79 485 CURVE SMOOTH",
"92 483 OFFCURVE",
"92 464 OFFCURVE",
"94 453 CURVE SMOOTH",
"95 447 OFFCURVE",
"97 441 OFFCURVE",
"97 434 CURVE SMOOTH",
"97 393 OFFCURVE",
"79 343 OFFCURVE",
"57 314 CURVE SMOOTH",
"52 307 OFFCURVE",
"63 299 OFFCURVE",
"69 306 CURVE SMOOTH",
"92 337 OFFCURVE",
"121 389 OFFCURVE",
"121 433 CURVE SMOOTH"
);
}
);
width = 119;
}
);
note = quotesingle;
unicode = 0027;
},
{
glyphname = parenleft;
layers = (
{
hints = (
{
horizontal = 1;
place = "{578, 21}";
target = up;
type = BottomGhost;
},
{
place = "{50, 52}";
type = Stem;
},
{
place = "{316, 21}";
type = Stem;
}
);
layerId = "245B06BA-2FC8-4E2B-85DB-2741CBBED619";
paths = (
{
closed = 1;
nodes = (
"336 575 OFFCURVE",
"315 599 OFFCURVE",
"286 599 CURVE SMOOTH",
"261 599 OFFCURVE",
"242 591 OFFCURVE",
"225 579 CURVE SMOOTH",
"106 490 OFFCURVE",
"56 386 OFFCURVE",
"50 235 CURVE SMOOTH",
"49 219 OFFCURVE",
"50 209 OFFCURVE",
"50 193 CURVE SMOOTH",
"50 189 LINE SMOOTH",
"50 87 OFFCURVE",
"106 -68 OFFCURVE",
"203 -126 CURVE SMOOTH",
"232 -144 OFFCURVE",
"259 -99 OFFCURVE",
"229 -81 CURVE SMOOTH",
"156 -37 OFFCURVE",
"114 93 OFFCURVE",
"102 195 CURVE",
"102 294 OFFCURVE",
"104 454 OFFCURVE",
"195 523 CURVE SMOOTH",
"223 544 OFFCURVE",
"246 578 OFFCURVE",
"285 578 CURVE SMOOTH",
"302 578 OFFCURVE",
"315 564 OFFCURVE",
"315 546 CURVE SMOOTH",
"315 525 OFFCURVE",
"302 515 OFFCURVE",
"288 501 CURVE SMOOTH",
"280 491 OFFCURVE",
"293 478 OFFCURVE",
"302 487 CURVE SMOOTH",
"321 505 OFFCURVE",
"337 518 OFFCURVE",
"337 546 CURVE SMOOTH"
);
}
);
width = 284;
}
);
note = parenleft;
unicode = 0028;
},
{
glyphname = parenright;
layers = (
{
hints = (
{
horizontal = 1;
place = "{-136, 30}";
type = Stem;
},
{
horizontal = 1;
place = "{590, 22}";
type = Stem;
},
{
place = "{190, 52}";
type = Stem;
}
);
layerId = "245B06BA-2FC8-4E2B-85DB-2741CBBED619";
paths = (
{
closed = 1;
nodes = (
"242 342 OFFCURVE",
"232 417 OFFCURVE",
"213 483 CURVE SMOOTH",
"195 548 OFFCURVE",
"161 612 OFFCURVE",
"79 612 CURVE SMOOTH",
"42 612 OFFCURVE",
"29 581 OFFCURVE",
"1 563 CURVE",
"1 562 LINE",
"-8 555 OFFCURVE",
"1 541 OFFCURVE",
"10 547 CURVE SMOOTH",
"22 555 OFFCURVE",
"31 561 OFFCURVE",
"39 568 CURVE SMOOTH",
"50 577 OFFCURVE",
"64 590 OFFCURVE",
"79 590 CURVE SMOOTH",
"144 590 OFFCURVE",
"149 521 OFFCURVE",
"163 470 CURVE SMOOTH",
"180 408 OFFCURVE",
"190 337 OFFCURVE",
"190 267 CURVE SMOOTH",
"190 168 OFFCURVE",
"180 46 OFFCURVE",
"132 -42 CURVE SMOOTH",
"119 -66 OFFCURVE",
"101 -106 OFFCURVE",
"71 -106 CURVE SMOOTH",
"63 -106 OFFCURVE",
"53 -106 OFFCURVE",
"46 -101 CURVE SMOOTH",
"33 -91 OFFCURVE",
"11 -98 OFFCURVE",
"26 -110 CURVE SMOOTH",
"40 -121 OFFCURVE",
"47 -136 OFFCURVE",
"71 -136 CURVE SMOOTH",
"112 -136 OFFCURVE",
"149 -94 OFFCURVE",
"167 -60 CURVE SMOOTH",
"200 -1 OFFCURVE",
"225 54 OFFCURVE",
"234 130 CURVE SMOOTH",
"240 181 OFFCURVE",
"242 220 OFFCURVE",
"242 268 CURVE SMOOTH"
);
}
);
width = 270;
}
);
note = parenright;
unicode = 0029;
},
{
glyphname = asterisk;
layers = (
{
hints = (
{
horizontal = 1;
place = "{457, 36}";
type = Stem;
},
{
place = "{247, 25}";
type = Stem;
}
);
layerId = "245B06BA-2FC8-4E2B-85DB-2741CBBED619";
paths = (
{
closed = 1;
nodes = (
"406 583 OFFCURVE",
"394 605 OFFCURVE",
"379 597 CURVE SMOOTH",
"340 575 OFFCURVE",
"316 559 OFFCURVE",
"286 524 CURVE SMOOTH",
"275 512 OFFCURVE",
"295 489 OFFCURVE",
"306 502 CURVE SMOOTH",
"334 534 OFFCURVE",
"354 555 OFFCURVE",
"391 575 CURVE SMOOTH"
);
},
{
closed = 1;
nodes = (
"271 642 LINE",
"271 659 OFFCURVE",
"246 659 OFFCURVE",
"246 642 CURVE SMOOTH",
"246 599 OFFCURVE",
"240 584 OFFCURVE",
"236 532 CURVE SMOOTH",
"234 515 OFFCURVE",
"267 514 OFFCURVE",
"268 531 CURVE SMOOTH",
"272 584 OFFCURVE",
"272 599 OFFCURVE",
"272 642 CURVE"
);
},
{
closed = 1;
nodes = (
"401 459 OFFCURVE",
"352 470 OFFCURVE",
"301 477 CURVE SMOOTH",
"284 479 OFFCURVE",
"274 449 OFFCURVE",
"291 447 CURVE SMOOTH",
"341 440 OFFCURVE",
"396 434 OFFCURVE",
"444 424 CURVE SMOOTH",
"460 421 OFFCURVE",
"465 445 OFFCURVE",
"449 449 CURVE SMOOTH"
);
},
{
closed = 1;
nodes = (
"263 485 OFFCURVE",
"255 493 OFFCURVE",
"246 493 CURVE SMOOTH",
"237 493 OFFCURVE",
"229 485 OFFCURVE",
"229 475 CURVE SMOOTH",
"229 465 OFFCURVE",
"237 457 OFFCURVE",
"246 457 CURVE SMOOTH",
"255 457 OFFCURVE",
"263 465 OFFCURVE",
"263 475 CURVE SMOOTH"
);
},
{
closed = 1;
nodes = (
"148 591 LINE SMOOTH",
"136 603 OFFCURVE",
"118 588 OFFCURVE",
"129 575 CURVE SMOOTH",
"191 503 LINE SMOOTH",
"202 490 OFFCURVE",
"225 514 OFFCURVE",
"213 526 CURVE SMOOTH"
);
},
{
closed = 1;
nodes = (
"289 426 LINE SMOOTH",
"285 442 OFFCURVE",
"252 436 OFFCURVE",
"257 420 CURVE SMOOTH",
"289 322 LINE SMOOTH",
"295 306 OFFCURVE",
"318 312 OFFCURVE",
"314 328 CURVE SMOOTH"
);
},
{
closed = 1;
nodes = (
"219 449 OFFCURVE",
"205 477 OFFCURVE",
"190 471 CURVE SMOOTH",
"137 449 OFFCURVE",
"104 445 OFFCURVE",
"48 431 CURVE SMOOTH",
"32 427 OFFCURVE",
"38 403 OFFCURVE",
"54 407 CURVE SMOOTH",
"111 421 OFFCURVE",
"148 419 OFFCURVE",
"204 442 CURVE SMOOTH"
);
},
{
closed = 1;
nodes = (
"246 417 OFFCURVE",
"229 435 OFFCURVE",
"217 423 CURVE SMOOTH",
"188 394 OFFCURVE",
"156 370 OFFCURVE",
"133 336 CURVE SMOOTH",
"124 322 OFFCURVE",
"145 308 OFFCURVE",
"154 322 CURVE SMOOTH",
"176 355 OFFCURVE",
"207 378 OFFCURVE",
"235 405 CURVE SMOOTH"
);
}
);
width = 479;
}
);
note = asterisk;
unicode = 002A;
},
{
glyphname = comma;
layers = (
{
hints = (
{
horizontal = 1;
place = "{-22, 18}";
type = Stem;
},
{
horizontal = 1;
place = "{106, -20}";
target = down;
type = TopGhost;
},
{
place = "{55, 27}";
type = Stem;
},
{
place = "{138, 14}";
type = Stem;
},
{
place = "{167, 36}";
type = Stem;
}
);
layerId = "245B06BA-2FC8-4E2B-85DB-2741CBBED619";
paths = (
{
closed = 1;
nodes = (
"204 41 OFFCURVE",
"186 67 OFFCURVE",
"173 85 CURVE SMOOTH",
"167 93 OFFCURVE",
"148 106 OFFCURVE",
"136 106 CURVE SMOOTH",
"98 106 OFFCURVE",
"55 68 OFFCURVE",
"55 32 CURVE SMOOTH",
"55 11 OFFCURVE",
"79 -22 OFFCURVE",
"110 -22 CURVE SMOOTH",
"117 -22 OFFCURVE",
"121 -20 OFFCURVE",
"125 -18 CURVE SMOOTH",
"142 -9 OFFCURVE",
"152 4 OFFCURVE",
"152 24 CURVE SMOOTH",
"152 36 OFFCURVE",
"141 44 OFFCURVE",
"131 44 CURVE SMOOTH",
"130 44 OFFCURVE",
"128 44 OFFCURVE",
"126 43 CURVE SMOOTH",
"123 42 LINE",
"118 40 LINE SMOOTH",
"109 36 OFFCURVE",
"113 23 OFFCURVE",
"122 27 CURVE SMOOTH",
"127 29 LINE",
"130 30 LINE",
"135 30 OFFCURVE",
"138 27 OFFCURVE",
"138 25 CURVE SMOOTH",
"138 13 OFFCURVE",
"132 9 OFFCURVE",
"125 4 CURVE SMOOTH",
"120 0 OFFCURVE",
"118 -3 OFFCURVE",
"110 -3 CURVE SMOOTH",
"95 -4 OFFCURVE",
"83 15 OFFCURVE",
"83 34 CURVE SMOOTH",
"82 61 OFFCURVE",
"107 86 OFFCURVE",
"135 86 CURVE SMOOTH",
"142 86 OFFCURVE",
"150 75 OFFCURVE",
"153 71 CURVE SMOOTH",
"164 57 OFFCURVE",
"168 38 OFFCURVE",
"168 20 CURVE SMOOTH",
"168 -25 OFFCURVE",
"106 -111 OFFCURVE",
"68 -128 CURVE SMOOTH",
"59 -131 OFFCURVE",
"65 -143 OFFCURVE",
"73 -139 CURVE SMOOTH",
"116 -121 OFFCURVE",
"205 -32 OFFCURVE",
"204 18 CURVE SMOOTH"
);
}
);
width = 230;
}
);
note = comma;
unicode = 002C;
},
{
glyphname = hyphen;
layers = (
{
hints = (
{
horizontal = 1;
place = "{183, 30}";
type = Stem;
}
);
layerId = "245B06BA-2FC8-4E2B-85DB-2741CBBED619";
paths = (
{
closed = 1;
nodes = (
"280 211 OFFCURVE",
"271 225 OFFCURVE",
"261 219 CURVE SMOOTH",
"250 212 OFFCURVE",
"220 211 OFFCURVE",
"201 211 CURVE SMOOTH",
"197 211 OFFCURVE",
"183 213 OFFCURVE",
"176 213 CURVE SMOOTH",
"167 213 OFFCURVE",
"161 211 OFFCURVE",
"152 211 CURVE SMOOTH",
"146 211 OFFCURVE",
"136 213 OFFCURVE",
"126 213 CURVE SMOOTH",
"112 214 OFFCURVE",
"98 224 OFFCURVE",
"81 224 CURVE SMOOTH",
"57 224 OFFCURVE",
"48 208 OFFCURVE",
"32 196 CURVE SMOOTH",
"19 186 OFFCURVE",
"34 166 OFFCURVE",
"47 176 CURVE SMOOTH",
"58 184 OFFCURVE",
"68 188 OFFCURVE",
"81 188 CURVE SMOOTH",
"88 188 OFFCURVE",
"94 188 OFFCURVE",
"100 186 CURVE SMOOTH",
"115 182 OFFCURVE",
"137 181 OFFCURVE",
"152 181 CURVE SMOOTH",
"161 181 OFFCURVE",
"167 183 OFFCURVE",
"176 183 CURVE SMOOTH",
"183 183 OFFCURVE",
"197 181 OFFCURVE",
"200 181 CURVE SMOOTH",
"223 181 OFFCURVE",
"256 196 OFFCURVE",
"270 205 CURVE SMOOTH"
);
}
);
width = 271;
}
);
note = hyphen;
unicode = 002D;
},
{
glyphname = period;
layers = (
{
hints = (
{
horizontal = 1;
place = "{-32, 18}";
type = Stem;
},
{
horizontal = 1;
place = "{4, 14}";
type = Stem;
},
{
horizontal = 1;
place = "{39, 14}";
type = Stem;
},
{
horizontal = 1;
place = "{73, 26}";
type = Stem;
},
{
place = "{88, 26}";
type = Stem;
},
{
place = "{129, 14}";
type = Stem;
},
{
place = "{183, 14}";
type = Stem;
}
);
layerId = "245B06BA-2FC8-4E2B-85DB-2741CBBED619";
paths = (
{
closed = 1;
nodes = (
"197 71 OFFCURVE",
"179 100 OFFCURVE",
"155 100 CURVE SMOOTH",
"120 99 OFFCURVE",
"88 62 OFFCURVE",
"88 28 CURVE SMOOTH",
"88 -6 OFFCURVE",
"120 -32 OFFCURVE",
"154 -32 CURVE SMOOTH",
"160 -32 OFFCURVE",
"164 -28 OFFCURVE",
"170 -26 CURVE SMOOTH",
"176 -24 OFFCURVE",
"188 -9 OFFCURVE",
"171 -11 CURVE SMOOTH",
"166 -12 OFFCURVE",
"160 -14 OFFCURVE",
"154 -14 CURVE SMOOTH",
"132 -13 OFFCURVE",
"114 6 OFFCURVE",
"114 28 CURVE SMOOTH",
"114 48 OFFCURVE",
"135 74 OFFCURVE",
"156 74 CURVE SMOOTH",
"169 74 OFFCURVE",
"183 61 OFFCURVE",
"183 47 CURVE SMOOTH",
"184 32 OFFCURVE",
"171 18 OFFCURVE",
"158 18 CURVE SMOOTH",
"152 18 OFFCURVE",
"142 24 OFFCURVE",
"142 29 CURVE SMOOTH",
"143 34 OFFCURVE",
"147 39 OFFCURVE",
"155 39 CURVE",
"155 40 LINE",
"164 40 OFFCURVE",
"164 54 OFFCURVE",
"155 54 CURVE SMOOTH",
"140 53 OFFCURVE",
"130 42 OFFCURVE",
"130 28 CURVE SMOOTH",
"129 13 OFFCURVE",
"150 5 OFFCURVE",
"157 5 CURVE SMOOTH",
"179 4 OFFCURVE",
"198 25 OFFCURVE",
"198 47 CURVE SMOOTH"
);
}
);
width = 226;
}
);
note = period;
unicode = 002E;
},
{
glyphname = slash;
layers = (
{
hints = (
{
horizontal = 1;
place = "{-33, 20}";
type = Stem;
},
{
place = "{39, 27}";
type = Stem;
}
);
layerId = "245B06BA-2FC8-4E2B-85DB-2741CBBED619";
paths = (
{
closed = 1;
nodes = (
"470 598 LINE",
"482 609 OFFCURVE",
"477 633 OFFCURVE",
"456 633 CURVE SMOOTH",
"447 633 OFFCURVE",
"430 623 OFFCURVE",
"427 615 CURVE SMOOTH",
"407 560 OFFCURVE",
"352 501 OFFCURVE",
"313 457 CURVE SMOOTH",
"255 393 OFFCURVE",
"195 300 OFFCURVE",
"149 228 CURVE SMOOTH",
"127 195 OFFCURVE",
"116 167 OFFCURVE",
"97 138 CURVE SMOOTH",
"76 106 OFFCURVE",
"40 34 OFFCURVE",
"40 -5 CURVE",
"39 -15 OFFCURVE",
"45 -20 OFFCURVE",
"51 -27 CURVE",
"56 -39 OFFCURVE",
"76 -32 OFFCURVE",
"71 -18 CURVE",
"71 -14 OFFCURVE",
"67 -11 OFFCURVE",
"67 -6 CURVE SMOOTH",
"66 46 OFFCURVE",
"150 159 OFFCURVE",
"181 207 CURVE SMOOTH",
"227 277 OFFCURVE",
"296 360 OFFCURVE",
"352 422 CURVE SMOOTH",
"394 470 OFFCURVE",
"452 537 OFFCURVE",
"474 598 CURVE"
);
}
);
width = 388;
}
);
note = slash;
unicode = 002F;
},
{
glyphname = zero;
layers = (
{
hints = (
{
horizontal = 1;
place = "{-41, 52}";
type = Stem;
},
{
horizontal = 1;
place = "{288, 17}";
type = Stem;
},
{
horizontal = 1;
place = "{400, 19}";
type = Stem;
},
{
horizontal = 1;
place = "{473, 24}";
type = Stem;
},
{
horizontal = 1;
place = "{552, 42}";
type = Stem;
},
{
place = "{41, 27}";
type = Stem;
},
{
place = "{337, 23}";
type = Stem;
},
{
place = "{429, 52}";
type = Stem;
}
);
layerId = "245B06BA-2FC8-4E2B-85DB-2741CBBED619";
paths = (
{
closed = 1;
nodes = (
"481 359 OFFCURVE",
"445 541 OFFCURVE",
"310 581 CURVE SMOOTH",
"274 591 OFFCURVE",
"242 594 OFFCURVE",
"202 594 CURVE SMOOTH",
"166 594 OFFCURVE",
"141 574 OFFCURVE",
"115 558 CURVE SMOOTH",
"72 532 OFFCURVE",
"41 483 OFFCURVE",
"41 427 CURVE SMOOTH",
"41 391 OFFCURVE",
"53 354 OFFCURVE",
"78 328 CURVE",
"64 287 OFFCURVE",
"58 242 OFFCURVE",
"63 198 CURVE SMOOTH",
"75 93 OFFCURVE",
"162 -41 OFFCURVE",
"286 -41 CURVE SMOOTH",
"328 -41 OFFCURVE",
"358 -21 OFFCURVE",
"379 -1 CURVE SMOOTH",
"450 63 OFFCURVE",
"481 153 OFFCURVE",
"481 247 CURVE SMOOTH"
);
},
{
closed = 1;
nodes = (
"429 164 OFFCURVE",
"401 90 OFFCURVE",
"343 38 CURVE SMOOTH",
"325 22 OFFCURVE",
"308 11 OFFCURVE",
"286 11 CURVE SMOOTH",
"200 11 OFFCURVE",
"126 111 OFFCURVE",
"115 204 CURVE SMOOTH",
"112 232 OFFCURVE",
"112 266 OFFCURVE",
"119 300 CURVE",
"159 283 OFFCURVE",
"197 279 OFFCURVE",
"233 315 CURVE SMOOTH",
"241 323 OFFCURVE",
"229 335 OFFCURVE",
"221 327 CURVE SMOOTH",
"190 297 OFFCURVE",
"158 302 OFFCURVE",
"123 318 CURVE",
"142 398 OFFCURVE",
"191 475 OFFCURVE",
"279 474 CURVE SMOOTH",
"303 474 OFFCURVE",
"337 465 OFFCURVE",
"337 442 CURVE SMOOTH",
"337 425 OFFCURVE",
"316 416 OFFCURVE",
"299 420 CURVE SMOOTH",
"287 423 OFFCURVE",
"282 405 OFFCURVE",
"294 402 CURVE SMOOTH",
"325 394 OFFCURVE",
"360 411 OFFCURVE",
"360 442 CURVE SMOOTH",
"360 476 OFFCURVE",
"314 497 OFFCURVE",
"278 497 CURVE SMOOTH",
"262 497 OFFCURVE",
"245 497 OFFCURVE",
"236 494 CURVE SMOOTH",
"168 472 OFFCURVE",
"115 416 OFFCURVE",
"86 349 CURVE",
"72 371 OFFCURVE",
"68 400 OFFCURVE",
"68 426 CURVE SMOOTH",
"68 472 OFFCURVE",
"93 514 OFFCURVE",
"129 536 CURVE SMOOTH",
"150 549 OFFCURVE",
"173 552 OFFCURVE",
"201 552 CURVE SMOOTH",
"237 552 OFFCURVE",
"263 539 OFFCURVE",
"295 530 CURVE SMOOTH",
"391 502 OFFCURVE",
"429 362 OFFCURVE",
"429 246 CURVE SMOOTH"
);
}
);
width = 546;
}
);
note = zero;
unicode = 0030;
},
{
glyphname = one;
layers = (
{
hints = (
{
horizontal = 1;
place = "{-30, 20}";
type = Stem;
},
{
horizontal = 1;
place = "{46, 23}";
type = Stem;
},
{
horizontal = 1;
place = "{359, 18}";
type = Stem;
},
{
place = "{129, 30}";
type = Stem;
}
);
layerId = "245B06BA-2FC8-4E2B-85DB-2741CBBED619";
paths = (
{
closed = 1;
nodes = (
"210 75 OFFCURVE",
"193 75 OFFCURVE",
"175 70 CURVE",
"176 74 OFFCURVE",
"176 79 OFFCURVE",
"173 85 CURVE SMOOTH",
"161 106 OFFCURVE",
"159 132 OFFCURVE",
"159 156 CURVE SMOOTH",
"159 207 OFFCURVE",
"175 252 OFFCURVE",
"191 300 CURVE SMOOTH",
"207 350 OFFCURVE",
"242 477 OFFCURVE",
"222 529 CURVE",
"222 532 OFFCURVE",
"221 534 OFFCURVE",
"220 536 CURVE",
"220 538 OFFCURVE",
"219 540 OFFCURVE",
"217 542 CURVE",
"198 574 OFFCURVE",
"180 514 OFFCURVE",
"179 501 CURVE SMOOTH",
"178 495 LINE",
"173 486 OFFCURVE",
"169 478 OFFCURVE",
"167 472 CURVE SMOOTH",
"157 446 OFFCURVE",
"132 377 OFFCURVE",
"91 377 CURVE SMOOTH",
"84 377 OFFCURVE",
"85 390 OFFCURVE",
"85 394 CURVE SMOOTH",
"84 405 OFFCURVE",
"67 405 OFFCURVE",
"67 394 CURVE SMOOTH",
"68 386 OFFCURVE",
"75 359 OFFCURVE",
"92 359 CURVE SMOOTH",
"110 359 OFFCURVE",
"122 365 OFFCURVE",
"134 378 CURVE SMOOTH",
"165 410 LINE",
"159 377 OFFCURVE",
"151 345 OFFCURVE",
"141 316 CURVE SMOOTH",
"132 288 OFFCURVE",
"129 195 OFFCURVE",
"129 156 CURVE SMOOTH",
"129 138 OFFCURVE",
"133 79 OFFCURVE",
"139 67 CURVE SMOOTH",
"141 63 OFFCURVE",
"143 60 OFFCURVE",
"146 58 CURVE",
"116 44 OFFCURVE",
"88 20 OFFCURVE",
"72 -4 CURVE SMOOTH",
"70 -8 OFFCURVE",
"69 -14 OFFCURVE",
"67 -18 CURVE SMOOTH",
"56 -40 OFFCURVE",
"85 -28 OFFCURVE",
"92 -17 CURVE SMOOTH",
"117 21 OFFCURVE",
"176 58 OFFCURVE",
"215 43 CURVE SMOOTH",
"232 36 OFFCURVE",
"242 62 OFFCURVE",
"225 69 CURVE SMOOTH"
);
}
);
width = 302;
}
);
note = one;
unicode = 0031;
},
{
glyphname = two;
layers = (
{
hints = (
{
horizontal = 1;
place = "{3, 42}";
type = Stem;
},
{
horizontal = 1;
place = "{157, 27}";
type = Stem;
},
{
horizontal = 1;
place = "{351, 23}";
type = Stem;
},
{
horizontal = 1;
place = "{527, 38}";
type = Stem;
},
{
place = "{-5, 30}";
type = Stem;
},
{
place = "{61, 19}";
type = Stem;
},
{
place = "{161, 23}";
type = Stem;
},
{
place = "{308, 17}";
type = Stem;
},
{
place = "{338, 52}";
type = Stem;
},
{
place = "{395, 30}";
type = Stem;
}
);
layerId = "245B06BA-2FC8-4E2B-85DB-2741CBBED619";
paths = (
{
closed = 1;
nodes = (
"425 140 OFFCURVE",
"401 183 OFFCURVE",
"368 183 CURVE SMOOTH",
"333 184 OFFCURVE",
"317 163 OFFCURVE",
"306 138 CURVE SMOOTH",
"300 125 OFFCURVE",
"307 111 OFFCURVE",
"308 98 CURVE SMOOTH",
"308 87 OFFCURVE",
"324 87 OFFCURVE",
"325 98 CURVE SMOOTH",
"327 129 LINE",
"335 145 OFFCURVE",
"346 157 OFFCURVE",
"368 157 CURVE",
"375 156 OFFCURVE",
"386 146 OFFCURVE",
"391 134 CURVE SMOOTH",
"394 128 OFFCURVE",
"395 116 OFFCURVE",
"395 110 CURVE SMOOTH",
"395 76 OFFCURVE",
"369 33 OFFCURVE",
"329 33 CURVE SMOOTH",
"295 33 OFFCURVE",
"273 55 OFFCURVE",
"249 75 CURVE SMOOTH",
"237 85 OFFCURVE",
"225 93 OFFCURVE",
"212 100 CURVE",
"304 192 OFFCURVE",
"390 333 OFFCURVE",
"390 439 CURVE SMOOTH",
"390 496 OFFCURVE",
"346 543 OFFCURVE",
"296 557 CURVE SMOOTH",
"273 564 OFFCURVE",
"250 565 OFFCURVE",
"225 565 CURVE SMOOTH",
"202 565 OFFCURVE",
"186 560 OFFCURVE",
"165 553 CURVE SMOOTH",
"103 533 OFFCURVE",
"62 495 OFFCURVE",
"61 418 CURVE SMOOTH",
"61 390 OFFCURVE",
"88 349 OFFCURVE",
"119 350 CURVE SMOOTH",
"150 351 OFFCURVE",
"182 374 OFFCURVE",
"183 407 CURVE SMOOTH",
"183 426 OFFCURVE",
"167 440 OFFCURVE",
"148 443 CURVE",
"147 442 LINE",
"136 444 OFFCURVE",
"134 427 OFFCURVE",
"145 425 CURVE SMOOTH",
"154 424 OFFCURVE",
"161 416 OFFCURVE",
"161 407 CURVE SMOOTH",
"160 390 OFFCURVE",
"141 372 OFFCURVE",
"119 373 CURVE SMOOTH",
"99 373 OFFCURVE",
"79 400 OFFCURVE",
"79 418 CURVE SMOOTH",
"80 482 OFFCURVE",
"124 506 OFFCURVE",
"176 523 CURVE SMOOTH",
"192 528 OFFCURVE",
"206 527 OFFCURVE",
"225 527 CURVE SMOOTH",
"246 527 OFFCURVE",
"264 512 OFFCURVE",
"283 507 CURVE SMOOTH",
"313 499 OFFCURVE",
"338 470 OFFCURVE",
"338 439 CURVE SMOOTH",
"338 354 OFFCURVE",
"254 209 OFFCURVE",
"174 121 CURVE",
"162 128 OFFCURVE",
"149 135 OFFCURVE",
"137 143 CURVE SMOOTH",
"111 161 OFFCURVE",
"92 178 OFFCURVE",
"58 178 CURVE SMOOTH",
"22 179 OFFCURVE",
"-5 143 OFFCURVE",
"-5 111 CURVE SMOOTH",
"-5 74 OFFCURVE",
"16 3 OFFCURVE",
"60 3 CURVE SMOOTH",
"83 3 OFFCURVE",
"99 17 OFFCURVE",
"118 27 CURVE SMOOTH",
"140 39 OFFCURVE",
"162 54 OFFCURVE",
"184 74 CURVE",
"231 42 OFFCURVE",
"268 -5 OFFCURVE",
"329 -5 CURVE SMOOTH",
"387 -5 OFFCURVE",
"425 60 OFFCURVE",
"425 111 CURVE SMOOTH"
);
},
{
closed = 1;
nodes = (
"150 96 LINE",
"133 79 OFFCURVE",
"116 66 OFFCURVE",
"101 58 CURVE SMOOTH",
"88 50 OFFCURVE",
"75 45 OFFCURVE",
"60 45 CURVE SMOOTH",
"34 45 OFFCURVE",
"25 88 OFFCURVE",
"25 110 CURVE SMOOTH",
"25 120 OFFCURVE",
"24 126 OFFCURVE",
"27 131 CURVE SMOOTH",
"34 143 OFFCURVE",
"44 153 OFFCURVE",
"57 153 CURVE SMOOTH",
"83 154 OFFCURVE",
"100 130 OFFCURVE",
"119 117 CURVE SMOOTH"
);
}
);
width = 452;
}
);
note = two;
unicode = 0032;
},
{
glyphname = three;
layers = (
{
hints = (
{
horizontal = 1;
place = "{-72, 52}";
type = Stem;
},
{
horizontal = 1;
place = "{60, 17}";
type = Stem;
},
{
horizontal = 1;
place = "{162, 36}";
type = Stem;
},
{
horizontal = 1;
place = "{347, 27}";
type = Stem;
},
{
horizontal = 1;
place = "{517, 34}";
type = Stem;
},
{
place = "{52, 22}";
type = Stem;
},
{
place = "{131, 20}";
type = Stem;
},
{
place = "{164, 18}";
type = Stem;
},
{
place = "{280, 42}";
type = Stem;
},
{
place = "{331, 41}";
type = Stem;
}
);
layerId = "245B06BA-2FC8-4E2B-85DB-2741CBBED619";
paths = (
{
closed = 1;
nodes = (
"371 276 OFFCURVE",
"331 323 OFFCURVE",
"277 342 CURVE",
"304 382 OFFCURVE",
"321 430 OFFCURVE",
"321 467 CURVE SMOOTH",
"321 524 OFFCURVE",
"277 552 OFFCURVE",
"224 552 CURVE SMOOTH",
"188 552 OFFCURVE",
"161 536 OFFCURVE",
"132 521 CURVE SMOOTH",
"106 508 OFFCURVE",
"68 486 OFFCURVE",
"59 456 CURVE SMOOTH",
"56 448 OFFCURVE",
"51 422 OFFCURVE",
"51 411 CURVE SMOOTH",
"51 381 OFFCURVE",
"81 348 OFFCURVE",
"110 348 CURVE SMOOTH",
"136 348 OFFCURVE",
"150 368 OFFCURVE",
"150 395 CURVE SMOOTH",
"150 411 OFFCURVE",
"147 417 OFFCURVE",
"130 421 CURVE SMOOTH",
"119 424 OFFCURVE",
"115 407 OFFCURVE",
"126 404 CURVE",
"130 404 OFFCURVE",
"131 405 OFFCURVE",
"131 402 CURVE SMOOTH",
"131 395 LINE SMOOTH",
"130 383 OFFCURVE",
"122 375 OFFCURVE",
"110 375 CURVE SMOOTH",
"93 375 OFFCURVE",
"73 394 OFFCURVE",
"73 412 CURVE SMOOTH",
"73 421 OFFCURVE",
"75 443 OFFCURVE",
"77 450 CURVE SMOOTH",
"84 472 OFFCURVE",
"127 489 OFFCURVE",
"145 498 CURVE SMOOTH",
"169 510 OFFCURVE",
"194 518 OFFCURVE",
"224 518 CURVE SMOOTH",
"256 518 OFFCURVE",
"279 498 OFFCURVE",
"279 466 CURVE SMOOTH",
"279 435 OFFCURVE",
"267 388 OFFCURVE",
"245 351 CURVE",
"238 351 OFFCURVE",
"230 352 OFFCURVE",
"222 352 CURVE SMOOTH",
"201 352 OFFCURVE",
"190 349 OFFCURVE",
"170 342 CURVE SMOOTH",
"157 338 OFFCURVE",
"135 313 OFFCURVE",
"135 297 CURVE SMOOTH",
"135 277 OFFCURVE",
"164 267 OFFCURVE",
"182 271 CURVE SMOOTH",
"210 276 OFFCURVE",
"236 294 OFFCURVE",
"258 318 CURVE",
"270 312 OFFCURVE",
"283 304 OFFCURVE",
"293 297 CURVE SMOOTH",
"318 280 OFFCURVE",
"330 245 OFFCURVE",
"330 212 CURVE SMOOTH",
"330 138 OFFCURVE",
"273 35 OFFCURVE",
"209 -4 CURVE SMOOTH",
"192 -15 OFFCURVE",
"183 -19 OFFCURVE",
"168 -19 CURVE SMOOTH",
"113 -19 OFFCURVE",
"78 56 OFFCURVE",
"78 123 CURVE SMOOTH",
"78 129 OFFCURVE",
"80 138 OFFCURVE",
"83 143 CURVE",
"83 144 LINE",
"88 147 OFFCURVE",
"111 163 OFFCURVE",
"116 163 CURVE SMOOTH",
"123 163 OFFCURVE",
"128 167 OFFCURVE",
"133 163 CURVE SMOOTH",
"150 151 OFFCURVE",
"163 126 OFFCURVE",
"163 104 CURVE SMOOTH",
"163 95 OFFCURVE",
"158 78 OFFCURVE",
"149 78 CURVE SMOOTH",
"140 78 OFFCURVE",
"137 97 OFFCURVE",
"136 104 CURVE SMOOTH",
"132 122 OFFCURVE",
"106 117 OFFCURVE",
"110 99 CURVE SMOOTH",
"112 86 OFFCURVE",
"132 61 OFFCURVE",
"149 61 CURVE SMOOTH",
"166 61 OFFCURVE",
"181 88 OFFCURVE",
"181 104 CURVE SMOOTH",
"181 126 OFFCURVE",
"163 171 OFFCURVE",
"148 183 CURVE SMOOTH",
"138 190 OFFCURVE",
"132 199 OFFCURVE",
"115 199 CURVE SMOOTH",
"97 199 OFFCURVE",
"65 195 OFFCURVE",
"50 183 CURVE SMOOTH",
"31 169 OFFCURVE",
"26 137 OFFCURVE",
"26 123 CURVE SMOOTH",
"26 58 OFFCURVE",
"61 -71 OFFCURVE",
"168 -71 CURVE SMOOTH",
"286 -71 OFFCURVE",
"371 115 OFFCURVE",
"371 211 CURVE SMOOTH"
);
},
{
closed = 1;
nodes = (
"230 325 LINE",
"216 309 OFFCURVE",
"199 297 OFFCURVE",
"179 294 CURVE SMOOTH",
"173 293 OFFCURVE",
"162 290 OFFCURVE",
"162 296 CURVE SMOOTH",
"163 305 OFFCURVE",
"169 322 OFFCURVE",
"176 324 CURVE SMOOTH",
"194 330 OFFCURVE",
"205 326 OFFCURVE",
"224 326 CURVE SMOOTH",
"229 326 LINE"
);
}
);
width = 392;
}
);
note = three;
unicode = 0033;
},
{
glyphname = four;
layers = (
{
hints = (
{
horizontal = 1;
place = "{-28, 39}";
type = Stem;
},
{
horizontal = 1;
place = "{181, 52}";
type = Stem;
},
{
horizontal = 1;
place = "{367, 28}";
type = Stem;
},
{
place = "{422, 19}";
type = Stem;
},
{
place = "{493, 17}";
type = Stem;
}
);
layerId = "245B06BA-2FC8-4E2B-85DB-2741CBBED619";
paths = (
{
closed = 1;
nodes = (
"509 359 OFFCURVE",
"502 379 OFFCURVE",
"499 383 CURVE SMOOTH",
"492 392 OFFCURVE",
"483 395 OFFCURVE",
"470 395 CURVE SMOOTH",
"436 395 OFFCURVE",
"418 364 OFFCURVE",
"418 333 CURVE SMOOTH",
"418 318 OFFCURVE",
"423 311 OFFCURVE",
"432 303 CURVE SMOOTH",
"440 295 OFFCURVE",
"451 308 OFFCURVE",
"442 315 CURVE SMOOTH",
"437 320 OFFCURVE",
"436 325 OFFCURVE",
"436 334 CURVE SMOOTH",
"436 352 OFFCURVE",
"450 367 OFFCURVE",
"470 367 CURVE SMOOTH",
"474 367 OFFCURVE",
"476 366 OFFCURVE",
"477 366 CURVE",
"480 363 OFFCURVE",
"492 352 OFFCURVE",
"492 347 CURVE SMOOTH",
"492 321 OFFCURVE",
"489 302 OFFCURVE",
"479 280 CURVE SMOOTH",
"459 238 OFFCURVE",
"376 222 OFFCURVE",
"321 219 CURVE",
"324 270 OFFCURVE",
"330 319 OFFCURVE",
"342 366 CURVE SMOOTH",
"358 430 OFFCURVE",
"372 502 OFFCURVE",
"393 561 CURVE",
"393 560 LINE",
"397 571 OFFCURVE",
"381 577 OFFCURVE",
"377 566 CURVE SMOOTH",
"356 507 OFFCURVE",
"322 441 OFFCURVE",
"305 376 CURVE SMOOTH",
"292 325 OFFCURVE",
"284 273 OFFCURVE",
"282 220 CURVE",
"245 223 OFFCURVE",
"212 233 OFFCURVE",
"167 233 CURVE SMOOTH",
"157 233 OFFCURVE",
"149 235 OFFCURVE",
"139 236 CURVE",
"160 260 OFFCURVE",
"179 284 OFFCURVE",
"195 300 CURVE SMOOTH",
"224 329 OFFCURVE",
"246 364 OFFCURVE",
"270 397 CURVE SMOOTH",
"294 430 OFFCURVE",
"313 466 OFFCURVE",
"337 498 CURVE SMOOTH",
"344 507 OFFCURVE",
"331 517 OFFCURVE",
"324 508 CURVE SMOOTH",
"300 476 OFFCURVE",
"273 445 OFFCURVE",
"249 412 CURVE SMOOTH",
"225 381 OFFCURVE",
"197 353 OFFCURVE",
"170 326 CURVE SMOOTH",
"149 305 OFFCURVE",
"112 261 OFFCURVE",
"77 230 CURVE",
"66 227 OFFCURVE",
"54 222 OFFCURVE",
"42 217 CURVE",
"28 207 LINE SMOOTH",
"-5 187 OFFCURVE",
"21 153 OFFCURVE",
"34 156 CURVE SMOOTH",
"46 159 OFFCURVE",
"58 165 OFFCURVE",
"70 173 CURVE",
"90 181 OFFCURVE",
"106 185 OFFCURVE",
"126 185 CURVE SMOOTH",
"142 185 OFFCURVE",
"153 181 OFFCURVE",
"167 181 CURVE SMOOTH",
"211 181 OFFCURVE",
"244 171 OFFCURVE",
"281 168 CURVE",
"283 109 OFFCURVE",
"304 -30 OFFCURVE",
"376 -29 CURVE SMOOTH",
"440 -29 OFFCURVE",
"456 90 OFFCURVE",
"425 105 CURVE SMOOTH",
"408 114 OFFCURVE",
"395 87 OFFCURVE",
"413 78 CURVE SMOOTH",
"430 69 OFFCURVE",
"427 11 OFFCURVE",
"376 11 CURVE SMOOTH",
"372 11 OFFCURVE",
"367 13 OFFCURVE",
"360 21 CURVE SMOOTH",
"333 53 OFFCURVE",
"322 122 OFFCURVE",
"321 167 CURVE",
"338 167 LINE",
"435 175 OFFCURVE",
"509 249 OFFCURVE",
"509 347 CURVE SMOOTH"
);
}
);
width = 499;
}
);
note = four;
unicode = 0034;
},
{
glyphname = five;
layers = (
{
hints = (
{
horizontal = 1;
place = "{-53, 52}";
type = Stem;
},
{
horizontal = 1;
place = "{103, 24}";
type = Stem;
},
{
horizontal = 1;
place = "{237, 17}";
type = Stem;
},
{
horizontal = 1;
place = "{381, 52}";
type = Stem;
},
{
horizontal = 1;
place = "{487, 24}";
type = Stem;
},
{
horizontal = 1;
place = "{540, 46}";
type = Stem;
},
{
place = "{22, 40}";
type = Stem;
},
{
place = "{224, 25}";
type = Stem;
},
{
place = "{318, 52}";
type = Stem;
}
);
layerId = "245B06BA-2FC8-4E2B-85DB-2741CBBED619";
paths = (
{
closed = 1;
nodes = (
"370 427 OFFCURVE",
"221 481 OFFCURVE",
"97 389 CURVE",
"103 427 OFFCURVE",
"109 469 OFFCURVE",
"117 505 CURVE SMOOTH",
"119 516 OFFCURVE",
"102 520 OFFCURVE",
"100 509 CURVE SMOOTH",
"89 457 OFFCURVE",
"61 397 OFFCURVE",
"49 348 CURVE SMOOTH",
"47 339 OFFCURVE",
"44 332 OFFCURVE",
"43 323 CURVE SMOOTH",
"41 311 OFFCURVE",
"74 301 OFFCURVE",
"79 311 CURVE SMOOTH",
"119 388 OFFCURVE",
"318 441 OFFCURVE",
"318 254 CURVE SMOOTH",
"318 166 OFFCURVE",
"276 97 OFFCURVE",
"210 47 CURVE SMOOTH",
"190 32 OFFCURVE",
"153 -1 OFFCURVE",
"126 -1 CURVE SMOOTH",
"102 -1 OFFCURVE",
"62 43 OFFCURVE",
"62 68 CURVE SMOOTH",
"62 90 OFFCURVE",
"69 129 OFFCURVE",
"79 145 CURVE SMOOTH",
"100 179 OFFCURVE",
"140 232 OFFCURVE",
"183 236 CURVE SMOOTH",
"201 238 OFFCURVE",
"225 240 OFFCURVE",
"224 215 CURVE SMOOTH",
"224 191 OFFCURVE",
"187 127 OFFCURVE",
"154 127 CURVE SMOOTH",
"149 127 OFFCURVE",
"147 131 OFFCURVE",
"147 136 CURVE",
"150 141 LINE",
"152 145 LINE SMOOTH",
"167 175 OFFCURVE",
"130 160 OFFCURVE",
"129 136 CURVE SMOOTH",
"129 119 OFFCURVE",
"134 103 OFFCURVE",
"154 103 CURVE SMOOTH",
"198 103 OFFCURVE",
"248 183 OFFCURVE",
"248 216 CURVE SMOOTH",
"249 226 OFFCURVE",
"243 245 OFFCURVE",
"232 253 CURVE SMOOTH",
"218 263 OFFCURVE",
"195 255 OFFCURVE",
"181 254 CURVE SMOOTH",
"132 249 OFFCURVE",
"79 198 OFFCURVE",
"56 158 CURVE SMOOTH",
"44 138 OFFCURVE",
"22 94 OFFCURVE",
"22 67 CURVE SMOOTH",
"22 42 OFFCURVE",
"28 10 OFFCURVE",
"47 -10 CURVE SMOOTH",
"64 -29 OFFCURVE",
"90 -53 OFFCURVE",
"127 -53 CURVE SMOOTH",
"172 -53 OFFCURVE",
"208 -19 OFFCURVE",
"241 6 CURVE SMOOTH",
"318 64 OFFCURVE",
"370 147 OFFCURVE",
"370 253 CURVE SMOOTH"
);
},
{
closed = 1;
nodes = (
"459 508 OFFCURVE",
"452 524 OFFCURVE",
"442 519 CURVE SMOOTH",
"427 512 OFFCURVE",
"407 511 OFFCURVE",
"385 511 CURVE SMOOTH",
"334 511 OFFCURVE",
"300 537 OFFCURVE",
"257 555 CURVE SMOOTH",
"208 576 OFFCURVE",
"175 586 OFFCURVE",
"123 586 CURVE SMOOTH",
"105 586 OFFCURVE",
"94 576 OFFCURVE",
"83 563 CURVE SMOOTH",
"68 545 OFFCURVE",
"95 521 OFFCURVE",
"111 539 CURVE SMOOTH",
"114 543 OFFCURVE",
"119 540 OFFCURVE",
"124 540 CURVE SMOOTH",
"134 540 OFFCURVE",
"141 536 OFFCURVE",
"151 534 CURVE SMOOTH",
"186 526 OFFCURVE",
"209 519 OFFCURVE",
"237 507 CURVE SMOOTH",
"284 487 OFFCURVE",
"329 487 OFFCURVE",
"384 487 CURVE SMOOTH",
"410 487 OFFCURVE",
"432 496 OFFCURVE",
"449 503 CURVE SMOOTH"
);
}
);
width = 394;
}
);
note = five;
unicode = 0035;
},
{
glyphname = six;
layers = (
{
hints = (
{
horizontal = 1;
place = "{-47, 52}";
type = Stem;
},
{
horizontal = 1;
place = "{51, 25}";
type = Stem;
},
{
horizontal = 1;
place = "{287, 32}";
type = Stem;
},
{
horizontal = 1;
place = "{553, 17}";
type = Stem;
},
{
place = "{28, 52}";
type = Stem;
},
{
place = "{181, 27}";
type = Stem;
},
{
place = "{394, 17}";
type = Stem;
}
);
layerId = "245B06BA-2FC8-4E2B-85DB-2741CBBED619";
paths = (
{
closed = 1;
nodes = (
"410 566 OFFCURVE",
"394 570 OFFCURVE",
"380 570 CURVE SMOOTH",
"294 570 OFFCURVE",
"236 528 OFFCURVE",
"186 470 CURVE SMOOTH",
"138 415 OFFCURVE",
"100 373 OFFCURVE",
"75 309 CURVE SMOOTH",
"53 254 OFFCURVE",
"26 204 OFFCURVE",
"27 144 CURVE SMOOTH",
"27 87 OFFCURVE",
"76 -47 OFFCURVE",
"164 -47 CURVE SMOOTH",
"281 -47 OFFCURVE",
"399 124 OFFCURVE",
"399 230 CURVE SMOOTH",
"399 255 OFFCURVE",
"360 319 OFFCURVE",
"333 319 CURVE SMOOTH",
"310 319 OFFCURVE",
"283 306 OFFCURVE",
"269 295 CURVE SMOOTH",
"214 252 OFFCURVE",
"180 184 OFFCURVE",
"180 111 CURVE SMOOTH",
"180 89 OFFCURVE",
"192 51 OFFCURVE",
"213 51 CURVE SMOOTH",
"252 51 OFFCURVE",
"298 136 OFFCURVE",
"271 172 CURVE SMOOTH",
"257 190 OFFCURVE",
"230 169 OFFCURVE",
"244 151 CURVE SMOOTH",
"252 141 OFFCURVE",
"259 132 OFFCURVE",
"255 116 CURVE SMOOTH",
"250 103 OFFCURVE",
"229 76 OFFCURVE",
"213 76 CURVE SMOOTH",
"202 76 OFFCURVE",
"207 100 OFFCURVE",
"207 112 CURVE SMOOTH",
"207 180 OFFCURVE",
"250 287 OFFCURVE",
"333 287 CURVE SMOOTH",
"348 287 OFFCURVE",
"353 244 OFFCURVE",
"353 230 CURVE SMOOTH",
"353 144 OFFCURVE",
"259 5 OFFCURVE",
"164 5 CURVE SMOOTH",
"126 5 OFFCURVE",
"80 87 OFFCURVE",
"80 143 CURVE SMOOTH",
"80 195 OFFCURVE",
"102 243 OFFCURVE",
"121 290 CURVE SMOOTH",
"144 350 OFFCURVE",
"166 398 OFFCURVE",
"210 449 CURVE SMOOTH",
"256 502 OFFCURVE",
"302 553 OFFCURVE",
"380 553 CURVE SMOOTH",
"391 553 OFFCURVE",
"393 551 OFFCURVE",
"393 543 CURVE SMOOTH",
"393 506 OFFCURVE",
"348 475 OFFCURVE",
"311 461 CURVE SMOOTH",
"300 457 OFFCURVE",
"306 441 OFFCURVE",
"317 445 CURVE SMOOTH",
"353 459 OFFCURVE",
"410 494 OFFCURVE",
"410 543 CURVE SMOOTH"
);
}
);
width = 427;
}
);
note = six;
unicode = 0036;
},
{
glyphname = seven;
layers = (
{
hints = (
{
horizontal = 1;
place = "{-121, 30}";
type = Stem;
},
{
horizontal = 1;
place = "{342, 17}";
type = Stem;
},
{
horizontal = 1;
place = "{487, 38}";
type = Stem;
},
{
place = "{13, 18}";
type = Stem;
},
{
place = "{116, 21}";
type = Stem;
},
{
place = "{147, 42}";
type = Stem;
}
);
layerId = "245B06BA-2FC8-4E2B-85DB-2741CBBED619";
paths = (
{
closed = 1;
nodes = (
"419 500 LINE",
"433 517 OFFCURVE",
"457 563 OFFCURVE",
"413 563 CURVE SMOOTH",
"396 563 OFFCURVE",
"391 556 OFFCURVE",
"378 548 CURVE SMOOTH",
"334 522 OFFCURVE",
"289 514 OFFCURVE",
"238 514 CURVE SMOOTH",
"203 514 OFFCURVE",
"171 525 OFFCURVE",
"136 525 CURVE SMOOTH",
"73 525 OFFCURVE",
"11 500 OFFCURVE",
"12 421 CURVE SMOOTH",
"12 398 OFFCURVE",
"46 342 OFFCURVE",
"77 342 CURVE SMOOTH",
"115 342 OFFCURVE",
"136 381 OFFCURVE",
"136 419 CURVE SMOOTH",
"136 439 OFFCURVE",
"133 440 OFFCURVE",
"116 452 CURVE",
"116 451 LINE",
"107 458 OFFCURVE",
"97 444 OFFCURVE",
"106 438 CURVE SMOOTH",
"116 431 OFFCURVE",
"115 430 OFFCURVE",
"115 420 CURVE SMOOTH",
"115 391 OFFCURVE",
"104 357 OFFCURVE",
"76 358 CURVE SMOOTH",
"53 358 OFFCURVE",
"30 403 OFFCURVE",
"30 421 CURVE SMOOTH",
"31 483 OFFCURVE",
"88 489 OFFCURVE",
"137 488 CURVE SMOOTH",
"171 488 OFFCURVE",
"202 466 OFFCURVE",
"238 466 CURVE SMOOTH",
"276 466 OFFCURVE",
"311 473 OFFCURVE",
"344 486 CURVE",
"269 377 OFFCURVE",
"199 220 OFFCURVE",
"163 108 CURVE SMOOTH",
"157 88 OFFCURVE",
"159 70 OFFCURVE",
"156 52 CURVE SMOOTH",
"151 25 OFFCURVE",
"146 -1 OFFCURVE",
"146 -29 CURVE SMOOTH",
"147 -67 OFFCURVE",
"167 -121 OFFCURVE",
"207 -121 CURVE SMOOTH",
"248 -121 OFFCURVE",
"274 -86 OFFCURVE",
"290 -54 CURVE",
"294 -43 OFFCURVE",
"279 -35 OFFCURVE",
"274 -45 CURVE SMOOTH",
"262 -70 OFFCURVE",
"238 -91 OFFCURVE",
"207 -91 CURVE SMOOTH",
"184 -91 OFFCURVE",
"189 -52 OFFCURVE",
"189 -30 CURVE SMOOTH",
"189 10 OFFCURVE",
"201 56 OFFCURVE",
"213 93 CURVE SMOOTH",
"266 263 OFFCURVE",
"320 349 OFFCURVE",
"419 499 CURVE"
);
}
);
width = 454;
}
);
note = seven;
unicode = 0037;
},
{
glyphname = eight;
layers = (
{
hints = (
{
horizontal = 1;
place = "{-5, 42}";
type = Stem;
},
{
horizontal = 1;
place = "{415, 17}";
type = Stem;
},
{
horizontal = 1;
place = "{483, 21}";
target = up;
type = BottomGhost;
},
{
horizontal = 1;
place = "{530, 24}";
type = Stem;
},
{
place = "{53, 42}";
type = Stem;
},
{
place = "{203, 18}";
type = Stem;
},
{
place = "{305, 21}";
type = Stem;
},
{
place = "{333, 42}";
type = Stem;
},
{
place = "{437, 14}";
type = Stem;
}
);
layerId = "245B06BA-2FC8-4E2B-85DB-2741CBBED619";
paths = (
{
closed = 1;
nodes = (
"451 542 OFFCURVE",
"440 567 OFFCURVE",
"420 567 CURVE SMOOTH",
"401 567 OFFCURVE",
"395 536 OFFCURVE",
"392 522 CURVE SMOOTH",
"390 512 OFFCURVE",
"406 509 OFFCURVE",
"408 520 CURVE",
"410 524 OFFCURVE",
"414 551 OFFCURVE",
"420 551 CURVE SMOOTH",
"432 551 OFFCURVE",
"437 535 OFFCURVE",
"437 523 CURVE SMOOTH",
"437 492 OFFCURVE",
"415 462 OFFCURVE",
"394 442 CURVE SMOOTH",
"357 406 OFFCURVE",
"316 377 OFFCURVE",
"278 344 CURVE SMOOTH",
"270 336 OFFCURVE",
"261 329 OFFCURVE",
"252 322 CURVE",
"220 335 OFFCURVE",
"187 345 OFFCURVE",
"157 364 CURVE SMOOTH",
"136 378 OFFCURVE",
"95 397 OFFCURVE",
"95 426 CURVE SMOOTH",
"95 431 OFFCURVE",
"96 435 OFFCURVE",
"99 443 CURVE SMOOTH",
"112 480 OFFCURVE",
"143 503 OFFCURVE",
"177 521 CURVE SMOOTH",
"196 531 OFFCURVE",
"218 531 OFFCURVE",
"239 531 CURVE SMOOTH",
"268 531 OFFCURVE",
"305 524 OFFCURVE",
"305 487 CURVE SMOOTH",
"305 456 OFFCURVE",
"271 433 OFFCURVE",
"241 433 CURVE SMOOTH",
"230 433 OFFCURVE",
"221 443 OFFCURVE",
"221 456 CURVE SMOOTH",
"221 474 OFFCURVE",
"239 492 OFFCURVE",
"254 481 CURVE",
"254 480 LINE",
"268 470 OFFCURVE",
"264 491 OFFCURVE",
"260 495 CURVE SMOOTH",
"233 523 OFFCURVE",
"201 483 OFFCURVE",
"202 456 CURVE SMOOTH",
"202 433 OFFCURVE",
"220 417 OFFCURVE",
"243 417 CURVE SMOOTH",
"281 417 OFFCURVE",
"326 447 OFFCURVE",
"326 488 CURVE SMOOTH",
"326 539 OFFCURVE",
"279 557 OFFCURVE",
"240 556 CURVE SMOOTH",
"226 556 OFFCURVE",
"213 556 OFFCURVE",
"201 555 CURVE SMOOTH",
"149 551 OFFCURVE",
"76 505 OFFCURVE",
"59 456 CURVE SMOOTH",
"56 448 OFFCURVE",
"53 439 OFFCURVE",
"53 427 CURVE SMOOTH",
"53 374 OFFCURVE",
"98 352 OFFCURVE",
"134 329 CURVE SMOOTH",
"161 312 OFFCURVE",
"189 302 OFFCURVE",
"217 291 CURVE",
"198 274 OFFCURVE",
"180 257 OFFCURVE",
"163 238 CURVE SMOOTH",
"147 221 OFFCURVE",
"129 212 OFFCURVE",
"110 193 CURVE SMOOTH",
"82 167 OFFCURVE",
"47 130 OFFCURVE",
"47 89 CURVE SMOOTH",
"47 31 OFFCURVE",
"137 -3 OFFCURVE",
"184 -3 CURVE SMOOTH",
"285 -4 OFFCURVE",
"375 69 OFFCURVE",
"375 177 CURVE SMOOTH",
"375 242 OFFCURVE",
"321 287 OFFCURVE",
"275 311 CURVE",
"293 326 LINE SMOOTH",
"331 360 OFFCURVE",
"367 396 OFFCURVE",
"404 432 CURVE SMOOTH",
"428 454 OFFCURVE",
"451 488 OFFCURVE",
"451 523 CURVE SMOOTH"
);
},
{
closed = 1;
nodes = (
"333 95 OFFCURVE",
"265 37 OFFCURVE",
"184 37 CURVE SMOOTH",
"162 37 OFFCURVE",
"89 59 OFFCURVE",
"89 88 CURVE SMOOTH",
"89 113 OFFCURVE",
"123 145 OFFCURVE",
"140 161 CURVE SMOOTH",
"160 180 OFFCURVE",
"170 198 OFFCURVE",
"187 217 CURVE SMOOTH",
"244 279 LINE",
"244 278 LINE",
"249 276 LINE SMOOTH",
"296 257 OFFCURVE",
"334 218 OFFCURVE",
"334 177 CURVE SMOOTH"
);
}
);
width = 430;
}
);
note = eight;
unicode = 0038;
},
{
glyphname = nine;
layers = (
{
hints = (
{
horizontal = 1;
place = "{-49, 32}";
type = Stem;
},
{
horizontal = 1;
place = "{63, 17}";
type = Stem;
},
{
horizontal = 1;
place = "{241, 49}";
type = Stem;
},
{
horizontal = 1;
place = "{477, 16}";
type = Stem;
},
{
horizontal = 1;
place = "{544, 38}";
type = Stem;
},
{
place = "{2, 24}";
type = Stem;
},
{
place = "{44, 48}";
type = Stem;
},
{
place = "{215, 27}";
type = Stem;
},
{
place = "{317, 27}";
type = Stem;
},
{
place = "{380, 36}";
type = Stem;
}
);
layerId = "245B06BA-2FC8-4E2B-85DB-2741CBBED619";
paths = (
{
closed = 1;
nodes = (
"416 484 OFFCURVE",
"365 582 OFFCURVE",
"269 582 CURVE SMOOTH",
"213 582 LINE SMOOTH",
"159 582 OFFCURVE",
"114 546 OFFCURVE",
"88 504 CURVE SMOOTH",
"68 472 OFFCURVE",
"44 450 OFFCURVE",
"44 409 CURVE SMOOTH",
"44 345 OFFCURVE",
"80 272 OFFCURVE",
"136 249 CURVE SMOOTH",
"153 242 OFFCURVE",
"161 241 OFFCURVE",
"186 241 CURVE SMOOTH",
"281 241 OFFCURVE",
"344 319 OFFCURVE",
"344 418 CURVE SMOOTH",
"343 526 OFFCURVE",
"213 502 OFFCURVE",
"214 443 CURVE SMOOTH",
"214 430 OFFCURVE",
"224 424 OFFCURVE",
"228 414 CURVE SMOOTH",
"232 404 OFFCURVE",
"248 410 OFFCURVE",
"244 421 CURVE SMOOTH",
"240 429 OFFCURVE",
"241 435 OFFCURVE",
"241 443 CURVE SMOOTH",
"242 482 OFFCURVE",
"318 502 OFFCURVE",
"317 418 CURVE SMOOTH",
"317 341 OFFCURVE",
"259 288 OFFCURVE",
"186 289 CURVE SMOOTH",
"129 289 OFFCURVE",
"92 358 OFFCURVE",
"92 409 CURVE SMOOTH",
"92 422 OFFCURVE",
"94 434 OFFCURVE",
"99 444 CURVE SMOOTH",
"122 489 OFFCURVE",
"154 544 OFFCURVE",
"213 544 CURVE SMOOTH",
"269 544 LINE SMOOTH",
"345 544 OFFCURVE",
"380 464 OFFCURVE",
"380 393 CURVE SMOOTH",
"380 346 OFFCURVE",
"379 312 OFFCURVE",
"366 274 CURVE SMOOTH",
"342 206 OFFCURVE",
"336 177 OFFCURVE",
"290 117 CURVE SMOOTH",
"248 62 OFFCURVE",
"179 -17 OFFCURVE",
"105 -17 CURVE SMOOTH",
"82 -17 OFFCURVE",
"64 -9 OFFCURVE",
"48 3 CURVE SMOOTH",
"39 9 OFFCURVE",
"26 14 OFFCURVE",
"26 23 CURVE SMOOTH",
"26 44 OFFCURVE",
"53 63 OFFCURVE",
"71 63 CURVE SMOOTH",
"78 63 OFFCURVE",
"84 58 OFFCURVE",
"86 51 CURVE SMOOTH",
"89 40 OFFCURVE",
"105 45 OFFCURVE",
"102 56 CURVE SMOOTH",
"98 69 OFFCURVE",
"86 80 OFFCURVE",
"71 80 CURVE SMOOTH",
"43 80 OFFCURVE",
"2 55 OFFCURVE",
"2 24 CURVE SMOOTH",
"2 -27 OFFCURVE",
"66 -49 OFFCURVE",
"106 -49 CURVE SMOOTH",
"188 -49 OFFCURVE",
"263 40 OFFCURVE",
"310 101 CURVE SMOOTH",
"330 128 OFFCURVE",
"348 157 OFFCURVE",
"361 187 CURVE SMOOTH",
"386 247 OFFCURVE",
"416 327 OFFCURVE",
"416 392 CURVE SMOOTH"
);
}
);
width = 444;
}
);
note = nine;
unicode = 0039;
},
{
glyphname = colon;
layers = (
{
hints = (
{
horizontal = 1;
place = "{67, 14}";
type = Stem;
},
{
horizontal = 1;
place = "{180, 18}";
type = Stem;
},
{
horizontal = 1;
place = "{209, 14}";
type = Stem;
},
{
horizontal = 1;
place = "{245, 14}";
type = Stem;
},
{
horizontal = 1;
place = "{279, 26}";
type = Stem;
},
{
place = "{94, 32}";
type = Stem;
},
{
place = "{135, 14}";
type = Stem;
},
{
place = "{189, 14}";
type = Stem;
}
);
layerId = "245B06BA-2FC8-4E2B-85DB-2741CBBED619";
paths = (
{
closed = 1;
nodes = (
"211 276 OFFCURVE",
"193 305 OFFCURVE",
"169 305 CURVE SMOOTH",
"134 305 OFFCURVE",
"102 268 OFFCURVE",
"102 234 CURVE SMOOTH",
"102 199 OFFCURVE",
"142 179 OFFCURVE",
"176 179 CURVE SMOOTH",
"182 179 OFFCURVE",
"186 183 OFFCURVE",
"192 185 CURVE SMOOTH",
"198 187 OFFCURVE",
"210 202 OFFCURVE",
"193 200 CURVE SMOOTH",
"188 199 OFFCURVE",
"182 197 OFFCURVE",
"176 197 CURVE SMOOTH",
"154 198 OFFCURVE",
"136 213 OFFCURVE",
"135 235 CURVE SMOOTH",
"135 255 OFFCURVE",
"148 279 OFFCURVE",
"169 279 CURVE SMOOTH",
"183 279 OFFCURVE",
"197 266 OFFCURVE",
"197 252 CURVE SMOOTH",
"198 237 OFFCURVE",
"185 223 OFFCURVE",
"172 223 CURVE SMOOTH",
"166 223 OFFCURVE",
"156 229 OFFCURVE",
"156 234 CURVE SMOOTH",
"157 240 OFFCURVE",
"161 245 OFFCURVE",
"169 245 CURVE SMOOTH",
"178 245 OFFCURVE",
"178 259 OFFCURVE",
"169 259 CURVE SMOOTH",
"154 259 OFFCURVE",
"144 248 OFFCURVE",
"144 234 CURVE SMOOTH",
"143 218 OFFCURVE",
"164 210 OFFCURVE",
"171 210 CURVE SMOOTH",
"193 210 OFFCURVE",
"212 231 OFFCURVE",
"212 253 CURVE SMOOTH"
);
},
{
closed = 1;
nodes = (
"203 98 OFFCURVE",
"185 127 OFFCURVE",
"161 127 CURVE SMOOTH",
"126 127 OFFCURVE",
"94 90 OFFCURVE",
"94 56 CURVE SMOOTH",
"94 22 OFFCURVE",
"134 2 OFFCURVE",
"168 2 CURVE",
"174 1 OFFCURVE",
"178 5 OFFCURVE",
"184 7 CURVE SMOOTH",
"190 9 OFFCURVE",
"202 24 OFFCURVE",
"185 22 CURVE SMOOTH",
"180 21 OFFCURVE",
"174 19 OFFCURVE",
"168 19 CURVE SMOOTH",
"146 20 OFFCURVE",
"127 35 OFFCURVE",
"127 57 CURVE SMOOTH",
"127 77 OFFCURVE",
"141 101 OFFCURVE",
"162 101 CURVE SMOOTH",
"176 101 OFFCURVE",
"190 88 OFFCURVE",
"190 74 CURVE SMOOTH",
"190 60 OFFCURVE",
"177 46 OFFCURVE",
"164 46 CURVE SMOOTH",
"159 46 OFFCURVE",
"149 52 OFFCURVE",
"149 57 CURVE SMOOTH",
"149 62 OFFCURVE",
"153 67 OFFCURVE",
"161 67 CURVE SMOOTH",
"170 67 OFFCURVE",
"170 81 OFFCURVE",
"161 81 CURVE SMOOTH",
"146 81 OFFCURVE",
"136 70 OFFCURVE",
"136 56 CURVE SMOOTH",
"135 40 OFFCURVE",
"156 32 OFFCURVE",
"163 32 CURVE SMOOTH",
"185 32 OFFCURVE",
"204 53 OFFCURVE",
"204 75 CURVE SMOOTH"
);
}
);
width = 226;
}
);
note = colon;
unicode = 003A;
},
{
glyphname = semicolon;
layers = (
{
hints = (
{
horizontal = 1;
place = "{106, -20}";
target = down;
type = TopGhost;
},
{
horizontal = 1;
place = "{180, 18}";
type = Stem;
},
{
horizontal = 1;
place = "{209, 14}";
type = Stem;
},
{
horizontal = 1;
place = "{245, 14}";
type = Stem;
},
{
horizontal = 1;
place = "{279, 26}";
type = Stem;
},
{
place = "{67, 27}";
type = Stem;
},
{
place = "{102, 32}";
type = Stem;
},
{
place = "{138, 14}";
type = Stem;
},
{
place = "{197, 14}";
type = Stem;
}
);
layerId = "245B06BA-2FC8-4E2B-85DB-2741CBBED619";
paths = (
{
closed = 1;
nodes = (
"211 276 OFFCURVE",
"193 305 OFFCURVE",
"169 305 CURVE SMOOTH",
"134 305 OFFCURVE",
"102 268 OFFCURVE",
"102 234 CURVE SMOOTH",
"102 199 OFFCURVE",
"142 179 OFFCURVE",
"176 179 CURVE SMOOTH",
"182 179 OFFCURVE",
"186 183 OFFCURVE",
"192 185 CURVE SMOOTH",
"198 187 OFFCURVE",
"210 202 OFFCURVE",
"193 200 CURVE SMOOTH",
"188 199 OFFCURVE",
"182 197 OFFCURVE",
"176 197 CURVE SMOOTH",
"154 198 OFFCURVE",
"136 213 OFFCURVE",
"135 235 CURVE SMOOTH",
"135 255 OFFCURVE",
"148 279 OFFCURVE",
"169 279 CURVE SMOOTH",
"183 279 OFFCURVE",
"197 266 OFFCURVE",
"197 252 CURVE SMOOTH",
"198 237 OFFCURVE",
"185 223 OFFCURVE",
"172 223 CURVE SMOOTH",
"166 223 OFFCURVE",
"156 229 OFFCURVE",
"156 234 CURVE SMOOTH",
"157 240 OFFCURVE",
"161 245 OFFCURVE",
"169 245 CURVE SMOOTH",
"178 245 OFFCURVE",
"178 259 OFFCURVE",
"169 259 CURVE SMOOTH",
"154 259 OFFCURVE",
"144 248 OFFCURVE",
"144 234 CURVE SMOOTH",
"143 218 OFFCURVE",
"164 210 OFFCURVE",
"171 210 CURVE SMOOTH",
"193 210 OFFCURVE",
"212 231 OFFCURVE",
"212 253 CURVE SMOOTH"
);
},
{
closed = 1;
nodes = (
"204 41 OFFCURVE",
"195 68 OFFCURVE",
"182 86 CURVE SMOOTH",
"177 94 OFFCURVE",
"148 106 OFFCURVE",
"136 106 CURVE SMOOTH",
"98 106 OFFCURVE",
"69 67 OFFCURVE",
"68 31 CURVE SMOOTH",
"68 10 OFFCURVE",
"79 -12 OFFCURVE",
"110 -12 CURVE SMOOTH",
"118 -12 OFFCURVE",
"122 -10 OFFCURVE",
"126 -8 CURVE SMOOTH",
"142 1 OFFCURVE",
"152 14 OFFCURVE",
"152 34 CURVE SMOOTH",
"152 46 OFFCURVE",
"141 54 OFFCURVE",
"131 54 CURVE",
"131 54 OFFCURVE",
"129 54 OFFCURVE",
"127 53 CURVE SMOOTH",
"123 52 LINE",
"118 50 LINE SMOOTH",
"109 48 OFFCURVE",
"113 35 OFFCURVE",
"122 38 CURVE SMOOTH",
"127 39 LINE",
"131 40 LINE SMOOTH",
"135 40 OFFCURVE",
"138 37 OFFCURVE",
"138 35 CURVE SMOOTH",
"139 23 OFFCURVE",
"133 19 OFFCURVE",
"126 14 CURVE SMOOTH",
"120 10 OFFCURVE",
"117 9 OFFCURVE",
"110 11 CURVE SMOOTH",
"103 13 OFFCURVE",
"95 15 OFFCURVE",
"95 34 CURVE SMOOTH",
"94 60 OFFCURVE",
"107 86 OFFCURVE",
"135 86 CURVE SMOOTH",
"142 86 OFFCURVE",
"159 76 OFFCURVE",
"162 72 CURVE SMOOTH",
"173 59 OFFCURVE",
"168 39 OFFCURVE",
"168 21 CURVE SMOOTH",
"168 -25 OFFCURVE",
"106 -111 OFFCURVE",
"68 -128 CURVE SMOOTH",
"59 -131 OFFCURVE",
"65 -143 OFFCURVE",
"73 -139 CURVE SMOOTH",
"116 -121 OFFCURVE",
"205 -32 OFFCURVE",
"204 18 CURVE SMOOTH"
);
}
);
width = 226;
}
);
note = semicolon;
unicode = 003B;
},
{
glyphname = less;
layers = (
{
hints = (
{
horizontal = 1;
place = "{514, 17}";
type = Stem;
},
{
place = "{47, 238}";
type = Stem;
}
);
layerId = "245B06BA-2FC8-4E2B-85DB-2741CBBED619";
paths = (
{
closed = 1;
nodes = (
"286 60 OFFCURVE",
"286 67 OFFCURVE",
"280 72 CURVE SMOOTH",
"275 76 LINE",
"264 93 OFFCURVE",
"253 106 OFFCURVE",
"241 118 CURVE SMOOTH",
"210 151 LINE",
"197 172 LINE SMOOTH",
"180 204 OFFCURVE",
"142 222 OFFCURVE",
"125 253 CURVE",
"125 254 OFFCURVE",
"126 255 OFFCURVE",
"127 257 CURVE",
"133 264 LINE SMOOTH",
"144 278 OFFCURVE",
"152 314 OFFCURVE",
"163 345 CURVE",
"184 374 OFFCURVE",
"203 406 OFFCURVE",
"222 437 CURVE",
"235 453 OFFCURVE",
"247 469 OFFCURVE",
"255 488 CURVE SMOOTH",
"260 497 LINE",
"265 503 OFFCURVE",
"264 510 OFFCURVE",
"260 514 CURVE",
"262 529 OFFCURVE",
"241 539 OFFCURVE",
"232 524 CURVE SMOOTH",
"222 508 OFFCURVE",
"212 496 OFFCURVE",
"201 484 CURVE SMOOTH",
"146 423 OFFCURVE",
"113 324 OFFCURVE",
"53 277 CURVE SMOOTH",
"47 272 OFFCURVE",
"45 262 OFFCURVE",
"50 256 CURVE SMOOTH",
"94 198 OFFCURVE",
"184 124 OFFCURVE",
"240 68 CURVE SMOOTH",
"257 49 LINE",
"268 39 OFFCURVE",
"281 44 OFFCURVE",
"283 54 CURVE"
);
}
);
width = 334;
}
);
note = less;
unicode = 003C;
},
{
glyphname = equal;
layers = (
{
hints = (
{
horizontal = 1;
place = "{171, 52}";
type = Stem;
},
{
horizontal = 1;
place = "{307, 45}";
type = Stem;
}
);
layerId = "245B06BA-2FC8-4E2B-85DB-2741CBBED619";
paths = (
{
closed = 1;
nodes = (
"431 344 OFFCURVE",
"425 352 OFFCURVE",
"413 352 CURVE SMOOTH",
"130 352 LINE SMOOTH",
"114 352 OFFCURVE",
"111 333 OFFCURVE",
"120 325 CURVE",
"114 318 OFFCURVE",
"114 310 OFFCURVE",
"129 305 CURVE SMOOTH",
"189 283 OFFCURVE",
"344 307 OFFCURVE",
"427 307 CURVE SMOOTH",
"446 307 OFFCURVE",
"447 334 OFFCURVE",
"430 337 CURVE"
);
},
{
closed = 1;
nodes = (
"427 229 OFFCURVE",
"300 217 OFFCURVE",
"271 219 CURVE SMOOTH",
"240 221 OFFCURVE",
"171 212 OFFCURVE",
"147 222 CURVE SMOOTH",
"134 227 OFFCURVE",
"125 216 OFFCURVE",
"126 206 CURVE",
"122 203 OFFCURVE",
"121 199 OFFCURVE",
"121 194 CURVE",
"116 185 OFFCURVE",
"120 171 OFFCURVE",
"134 171 CURVE SMOOTH",
"141 171 LINE",
"151 165 OFFCURVE",
"166 161 OFFCURVE",
"185 161 CURVE SMOOTH",
"260 161 OFFCURVE",
"350 168 OFFCURVE",
"427 168 CURVE SMOOTH",
"439 168 OFFCURVE",
"445 177 OFFCURVE",
"441 188 CURVE SMOOTH"
);
}
);
width = 488;
}
);
note = equal;
unicode = 003D;
},
{
glyphname = greater;
layers = (
{
hints = (
{
horizontal = 1;
place = "{514, 17}";
type = Stem;
},
{
place = "{26, 238}";
type = Stem;
}
);
layerId = "245B06BA-2FC8-4E2B-85DB-2741CBBED619";
paths = (
{
closed = 1;
nodes = (
"266 262 OFFCURVE",
"265 272 OFFCURVE",
"259 277 CURVE SMOOTH",
"199 324 OFFCURVE",
"165 423 OFFCURVE",
"110 484 CURVE SMOOTH",
"99 496 OFFCURVE",
"89 508 OFFCURVE",
"79 524 CURVE SMOOTH",
"70 539 OFFCURVE",
"49 529 OFFCURVE",
"51 514 CURVE",
"48 510 OFFCURVE",
"47 503 OFFCURVE",
"51 497 CURVE SMOOTH",
"57 488 LINE",
"65 469 OFFCURVE",
"77 453 OFFCURVE",
"89 437 CURVE",
"108 406 OFFCURVE",
"128 374 OFFCURVE",
"148 345 CURVE",
"159 314 OFFCURVE",
"168 278 OFFCURVE",
"179 264 CURVE SMOOTH",
"184 257 LINE",
"187 253 LINE",
"169 222 OFFCURVE",
"132 204 OFFCURVE",
"114 172 CURVE SMOOTH",
"110 165 OFFCURVE",
"106 158 OFFCURVE",
"101 151 CURVE",
"70 118 LINE SMOOTH",
"58 106 OFFCURVE",
"47 93 OFFCURVE",
"36 76 CURVE",
"31 72 LINE SMOOTH",
"25 67 OFFCURVE",
"25 60 OFFCURVE",
"28 54 CURVE",
"31 44 OFFCURVE",
"44 39 OFFCURVE",
"54 49 CURVE SMOOTH",
"72 68 LINE SMOOTH",
"127 124 OFFCURVE",
"217 198 OFFCURVE",
"261 256 CURVE SMOOTH"
);
}
);
width = 334;
}
);
note = greater;
unicode = 003E;
},
{
glyphname = question;
layers = (
{
hints = (
{
horizontal = 1;
place = "{4, 40}";
type = Stem;
},
{
horizontal = 1;
place = "{116, 28}";
type = Stem;
},
{
horizontal = 1;
place = "{198, 21}";
type = Stem;
},
{
horizontal = 1;
place = "{368, 28}";
type = Stem;
},
{
horizontal = 1;
place = "{512, 24}";
type = Stem;
},
{
horizontal = 1;
place = "{619, 51}";
type = Stem;
},
{
place = "{77, 30}";
type = Stem;
},
{
place = "{155, 26}";
type = Stem;
},
{
place = "{194, 28}";
type = Stem;
},
{
place = "{226, 21}";
type = Stem;
},
{
place = "{262, 17}";
type = Stem;
},
{
place = "{378, 52}";
type = Stem;
}
);
layerId = "245B06BA-2FC8-4E2B-85DB-2741CBBED619";
paths = (
{
closed = 1;
nodes = (
"430 608 OFFCURVE",
"375 671 OFFCURVE",
"264 670 CURVE SMOOTH",
"249 670 OFFCURVE",
"245 666 OFFCURVE",
"227 665 CURVE SMOOTH",
"136 658 OFFCURVE",
"77 581 OFFCURVE",
"77 488 CURVE SMOOTH",
"77 438 OFFCURVE",
"103 368 OFFCURVE",
"163 368 CURVE SMOOTH",
"207 368 OFFCURVE",
"245 412 OFFCURVE",
"246 461 CURVE SMOOTH",
"246 481 OFFCURVE",
"243 499 OFFCURVE",
"233 514 CURVE SMOOTH",
"225 525 OFFCURVE",
"215 536 OFFCURVE",
"204 536 CURVE SMOOTH",
"175 536 OFFCURVE",
"155 503 OFFCURVE",
"155 482 CURVE SMOOTH",
"155 462 OFFCURVE",
"171 462 OFFCURVE",
"179 453 CURVE",
"179 454 LINE",
"187 444 OFFCURVE",
"201 457 OFFCURVE",
"193 467 CURVE SMOOTH",
"190 470 OFFCURVE",
"181 477 OFFCURVE",
"181 482 CURVE SMOOTH",
"181 493 OFFCURVE",
"189 512 OFFCURVE",
"204 512 CURVE SMOOTH",
"220 512 OFFCURVE",
"225 471 OFFCURVE",
"225 461 CURVE SMOOTH",
"226 426 OFFCURVE",
"195 396 OFFCURVE",
"163 396 CURVE SMOOTH",
"147 396 OFFCURVE",
"138 408 OFFCURVE",
"131 418 CURVE SMOOTH",
"115 440 OFFCURVE",
"107 458 OFFCURVE",
"107 487 CURVE SMOOTH",
"107 579 OFFCURVE",
"187 620 OFFCURVE",
"264 619 CURVE SMOOTH",
"341 618 OFFCURVE",
"378 576 OFFCURVE",
"378 506 CURVE SMOOTH",
"378 494 OFFCURVE",
"375 480 OFFCURVE",
"370 468 CURVE SMOOTH",
"356 436 OFFCURVE",
"348 406 OFFCURVE",
"313 389 CURVE SMOOTH",
"261 364 OFFCURVE",
"194 334 OFFCURVE",
"194 264 CURVE SMOOTH",
"194 223 OFFCURVE",
"225 196 OFFCURVE",
"263 197 CURVE SMOOTH",
"291 197 OFFCURVE",
"304 217 OFFCURVE",
"306 239 CURVE SMOOTH",
"308 253 OFFCURVE",
"285 256 OFFCURVE",
"283 241 CURVE SMOOTH",
"282 230 OFFCURVE",
"278 219 OFFCURVE",
"264 219 CURVE SMOOTH",
"230 218 OFFCURVE",
"222 229 OFFCURVE",
"222 263 CURVE SMOOTH",
"222 294 OFFCURVE",
"244 317 OFFCURVE",
"268 332 CURVE SMOOTH",
"309 356 OFFCURVE",
"363 352 OFFCURVE",
"391 408 CURVE SMOOTH",
"407 439 OFFCURVE",
"430 470 OFFCURVE",
"430 506 CURVE SMOOTH"
);
},
{
closed = 1;
nodes = (
"310 27 OFFCURVE",
"282 55 OFFCURVE",
"262 43 CURVE SMOOTH",
"257 40 OFFCURVE",
"258 43 OFFCURVE",
"256 43 CURVE SMOOTH",
"235 43 OFFCURVE",
"219 43 OFFCURVE",
"208 60 CURVE SMOOTH",
"204 67 OFFCURVE",
"202 72 OFFCURVE",
"202 80 CURVE SMOOTH",
"202 99 OFFCURVE",
"223 115 OFFCURVE",
"242 115 CURVE SMOOTH",
"252 115 OFFCURVE",
"262 111 OFFCURVE",
"262 98 CURVE",
"261 95 OFFCURVE",
"261 85 OFFCURVE",
"257 84 CURVE",
"252 89 LINE",
"248 96 OFFCURVE",
"235 95 OFFCURVE",
"235 85 CURVE",
"236 79 OFFCURVE",
"250 66 OFFCURVE",
"256 66 CURVE SMOOTH",
"274 67 OFFCURVE",
"279 83 OFFCURVE",
"279 98 CURVE SMOOTH",
"278 127 OFFCURVE",
"264 143 OFFCURVE",
"242 143 CURVE SMOOTH",
"205 143 OFFCURVE",
"162 117 OFFCURVE",
"162 79 CURVE SMOOTH",
"162 20 OFFCURVE",
"200 3 OFFCURVE",
"255 3 CURVE SMOOTH",
"273 3 OFFCURVE",
"276 14 OFFCURVE",
"281 16 CURVE SMOOTH"
);
}
);
width = 432;
}
);
note = question;
unicode = 003F;
},
{
glyphname = at;
layers = (
{
hints = (
{
horizontal = 1;
place = "{67, 26}";
type = Stem;
},
{
horizontal = 1;
place = "{183, 34}";
type = Stem;
},
{
horizontal = 1;
place = "{373, 39}";
type = Stem;
},
{
horizontal = 1;
place = "{492, 36}";
type = Stem;
},
{
place = "{-1, 42}";
type = Stem;
},
{
place = "{125, 34}";
type = Stem;
},
{
place = "{255, 25}";
type = Stem;
},
{
place = "{383, 34}";
type = Stem;
},
{
place = "{464, 42}";
type = Stem;
}
);
layerId = "245B06BA-2FC8-4E2B-85DB-2741CBBED619";
paths = (
{
closed = 1;
nodes = (
"473 435 OFFCURVE",
"432 403 OFFCURVE",
"453 376 CURVE SMOOTH",
"481 340 OFFCURVE",
"444 244 OFFCURVE",
"420 213 CURVE SMOOTH",
"391 176 OFFCURVE",
"337 125 OFFCURVE",
"294 106 CURVE SMOOTH",
"275 97 OFFCURVE",
"233 93 OFFCURVE",
"210 93 CURVE SMOOTH",
"191 93 OFFCURVE",
"175 94 OFFCURVE",
"156 96 CURVE SMOOTH",
"79 105 OFFCURVE",
"41 200 OFFCURVE",
"41 267 CURVE SMOOTH",
"41 369 OFFCURVE",
"120 492 OFFCURVE",
"228 492 CURVE SMOOTH",
"295 492 OFFCURVE",
"360 443 OFFCURVE",
"375 382 CURVE SMOOTH",
"378 369 OFFCURVE",
"383 356 OFFCURVE",
"383 339 CURVE SMOOTH",
"383 317 OFFCURVE",
"384 305 OFFCURVE",
"379 285 CURVE SMOOTH",
"372 255 OFFCURVE",
"331 233 OFFCURVE",
"301 233 CURVE SMOOTH",
"286 233 OFFCURVE",
"278 252 OFFCURVE",
"278 266 CURVE",
"279 270 OFFCURVE",
"277 273 OFFCURVE",
"278 276 CURVE",
"280 291 OFFCURVE",
"279 308 OFFCURVE",
"279 322 CURVE",
"280 326 OFFCURVE",
"278 329 OFFCURVE",
"275 331 CURVE",
"274 331 LINE",
"283 346 OFFCURVE",
"296 359 OFFCURVE",
"291 375 CURVE SMOOTH",
"285 397 OFFCURVE",
"266 412 OFFCURVE",
"242 412 CURVE SMOOTH",
"215 411 OFFCURVE",
"201 392 OFFCURVE",
"183 378 CURVE SMOOTH",
"159 359 OFFCURVE",
"145 349 OFFCURVE",
"136 322 CURVE SMOOTH",
"127 296 OFFCURVE",
"125 278 OFFCURVE",
"125 251 CURVE SMOOTH",
"125 226 OFFCURVE",
"135 183 OFFCURVE",
"177 183 CURVE SMOOTH",
"199 183 OFFCURVE",
"228 210 OFFCURVE",
"245 233 CURVE",
"257 212 OFFCURVE",
"277 195 OFFCURVE",
"301 195 CURVE SMOOTH",
"345 195 OFFCURVE",
"398 235 OFFCURVE",
"409 279 CURVE SMOOTH",
"414 301 OFFCURVE",
"417 315 OFFCURVE",
"417 338 CURVE SMOOTH",
"417 359 OFFCURVE",
"417 376 OFFCURVE",
"413 391 CURVE SMOOTH",
"394 467 OFFCURVE",
"312 528 OFFCURVE",
"227 528 CURVE SMOOTH",
"100 528 OFFCURVE",
"-1 387 OFFCURVE",
"-1 268 CURVE SMOOTH",
"-1 238 OFFCURVE",
"-2 215 OFFCURVE",
"8 186 CURVE SMOOTH",
"31 122 OFFCURVE",
"84 77 OFFCURVE",
"152 69 CURVE SMOOTH",
"173 66 OFFCURVE",
"190 67 OFFCURVE",
"212 67 CURVE SMOOTH",
"290 67 OFFCURVE",
"395 140 OFFCURVE",
"440 198 CURVE SMOOTH",
"472 239 OFFCURVE",
"531 361 OFFCURVE",
"495 407 CURVE SMOOTH"
);
},
{
closed = 1;
nodes = (
"248 309 OFFCURVE",
"228 277 OFFCURVE",
"224 268 CURVE SMOOTH",
"216 253 OFFCURVE",
"197 217 OFFCURVE",
"178 217 CURVE SMOOTH",
"170 217 OFFCURVE",
"160 226 OFFCURVE",
"160 252 CURVE SMOOTH",
"160 275 OFFCURVE",
"162 289 OFFCURVE",
"169 310 CURVE SMOOTH",
"180 341 OFFCURVE",
"209 372 OFFCURVE",
"244 372 CURVE",
"246 373 OFFCURVE",
"252 346 OFFCURVE",
"249 341 CURVE",
"249 340 LINE",
"245 332 OFFCURVE",
"249 325 OFFCURVE",
"255 322 CURVE"
);
}
);
width = 530;
}
);
note = at;
unicode = 0040;
},
{
glyphname = A;
layers = (
{
hints = (
{
horizontal = 1;
place = "{-21, 23}";
type = Stem;
},
{
horizontal = 1;
place = "{223, 19}";
type = Stem;
},
{
horizontal = 1;
place = "{277, 52}";
type = Stem;
},
{
place = "{16, 43}";
type = Stem;
},
{
place = "{151, 17}";
type = Stem;
},
{
place = "{475, 17}";
type = Stem;
},
{
place = "{645, 18}";
type = Stem;
}
);
layerId = "245B06BA-2FC8-4E2B-85DB-2741CBBED619";
paths = (
{
closed = 1;
nodes = (
"656 173 OFFCURVE",
"633 162 OFFCURVE",
"643 133 CURVE SMOOTH",
"659 85 OFFCURVE",
"597 46 OFFCURVE",
"569 46 CURVE",
"563 47 OFFCURVE",
"547 59 OFFCURVE",
"543 64 CURVE SMOOTH",
"512 99 OFFCURVE",
"514 221 OFFCURVE",
"508 268 CURVE SMOOTH",
"506 277 LINE",
"511 278 OFFCURVE",
"516 278 OFFCURVE",
"521 278 CURVE SMOOTH",
"530 278 OFFCURVE",
"549 268 OFFCURVE",
"549 268 CURVE",
"563 238 OFFCURVE",
"611 257 OFFCURVE",
"598 289 CURVE SMOOTH",
"587 316 OFFCURVE",
"545 329 OFFCURVE",
"521 329 CURVE",
"516 330 OFFCURVE",
"510 330 OFFCURVE",
"504 329 CURVE",
"502 341 OFFCURVE",
"502 354 OFFCURVE",
"502 368 CURVE SMOOTH",
"502 427 OFFCURVE",
"497 495 OFFCURVE",
"492 553 CURVE SMOOTH",
"491 565 OFFCURVE",
"474 564 OFFCURVE",
"475 553 CURVE SMOOTH",
"480 494 OFFCURVE",
"451 427 OFFCURVE",
"451 368 CURVE SMOOTH",
"451 349 OFFCURVE",
"451 333 OFFCURVE",
"452 318 CURVE",
"394 298 OFFCURVE",
"338 258 OFFCURVE",
"301 216 CURVE SMOOTH",
"293 207 OFFCURVE",
"305 196 OFFCURVE",
"313 205 CURVE SMOOTH",
"345 242 OFFCURVE",
"401 262 OFFCURVE",
"455 271 CURVE",
"457 261 LINE SMOOTH",
"469 199 OFFCURVE",
"467 84 OFFCURVE",
"510 35 CURVE SMOOTH",
"519 24 OFFCURVE",
"555 0 OFFCURVE",
"569 0 CURVE SMOOTH",
"637 1 OFFCURVE",
"671 114 OFFCURVE",
"663 144 CURVE SMOOTH"
);
},
{
closed = 1;
nodes = (
"487 568 OFFCURVE",
"470 601 OFFCURVE",
"448 590 CURVE SMOOTH",
"369 550 OFFCURVE",
"348 524 OFFCURVE",
"307 443 CURVE SMOOTH",
"285 401 OFFCURVE",
"280 360 OFFCURVE",
"267 316 CURVE SMOOTH",
"255 275 OFFCURVE",
"261 231 OFFCURVE",
"247 189 CURVE SMOOTH",
"237 161 OFFCURVE",
"223 128 OFFCURVE",
"214 95 CURVE SMOOTH",
"205 65 OFFCURVE",
"189 41 OFFCURVE",
"168 24 CURVE SMOOTH",
"162 20 OFFCURVE",
"145 2 OFFCURVE",
"133 2 CURVE SMOOTH",
"128 2 OFFCURVE",
"124 2 OFFCURVE",
"120 3 CURVE SMOOTH",
"98 12 OFFCURVE",
"101 11 OFFCURVE",
"82 28 CURVE SMOOTH",
"58 50 OFFCURVE",
"60 85 OFFCURVE",
"60 117 CURVE SMOOTH",
"59 160 OFFCURVE",
"58 180 OFFCURVE",
"76 208 CURVE SMOOTH",
"85 222 OFFCURVE",
"102 223 OFFCURVE",
"118 223 CURVE SMOOTH",
"135 223 OFFCURVE",
"151 202 OFFCURVE",
"151 185 CURVE SMOOTH",
"151 163 OFFCURVE",
"142 144 OFFCURVE",
"125 136 CURVE",
"125 135 LINE",
"115 130 OFFCURVE",
"122 115 OFFCURVE",
"132 120 CURVE SMOOTH",
"158 132 OFFCURVE",
"170 159 OFFCURVE",
"169 186 CURVE SMOOTH",
"169 211 OFFCURVE",
"144 242 OFFCURVE",
"118 242 CURVE SMOOTH",
"94 242 OFFCURVE",
"70 241 OFFCURVE",
"57 220 CURVE SMOOTH",
"36 186 OFFCURVE",
"16 168 OFFCURVE",
"16 117 CURVE SMOOTH",
"16 75 OFFCURVE",
"30 34 OFFCURVE",
"62 5 CURVE SMOOTH",
"75 -6 OFFCURVE",
"85 -5 OFFCURVE",
"99 -10 CURVE SMOOTH",
"111 -14 OFFCURVE",
"120 -21 OFFCURVE",
"134 -21 CURVE SMOOTH",
"152 -21 OFFCURVE",
"188 -20 OFFCURVE",
"198 -12 CURVE SMOOTH",
"225 10 OFFCURVE",
"234 48 OFFCURVE",
"245 85 CURVE SMOOTH",
"255 118 OFFCURVE",
"255 155 OFFCURVE",
"264 184 CURVE SMOOTH",
"275 218 OFFCURVE",
"289 239 OFFCURVE",
"293 274 CURVE SMOOTH",
"295 286 OFFCURVE",
"299 296 OFFCURVE",
"302 306 CURVE SMOOTH",
"325 386 OFFCURVE",
"347 445 OFFCURVE",
"406 506 CURVE SMOOTH",
"426 527 OFFCURVE",
"445 547 OFFCURVE",
"465 557 CURVE SMOOTH"
);
}
);
width = 660;
}
);
note = A;
unicode = 0041;
},
{
glyphname = B;
layers = (
{
hints = (
{
horizontal = 1;
place = "{-92, 40}";
type = Stem;
},
{
horizontal = 1;
place = "{-50, 52}";
type = Stem;
},
{
horizontal = 1;
place = "{322, -20}";
target = down;
type = TopGhost;
},
{
horizontal = 1;
place = "{512, 47}";
type = Stem;
},
{
horizontal = 1;
place = "{658, 17}";
type = Stem;
},
{
place = "{14, 24}";
type = Stem;
},
{
place = "{328, 19}";
type = Stem;
},
{
place = "{488, 47}";
type = Stem;
}
);
layerId = "245B06BA-2FC8-4E2B-85DB-2741CBBED619";
paths = (
{
closed = 1;
nodes = (
"552 460 OFFCURVE",
"504 495 OFFCURVE",
"463 516 CURVE SMOOTH",
"397 549 OFFCURVE",
"344 559 OFFCURVE",
"272 559 CURVE",
"239 556 LINE",
"243 609 OFFCURVE",
"259 655 OFFCURVE",
"302 656 CURVE SMOOTH",
"317 656 OFFCURVE",
"326 643 OFFCURVE",
"327 628 CURVE SMOOTH",
"327 615 OFFCURVE",
"313 604 OFFCURVE",
"304 597 CURVE SMOOTH",
"295 590 OFFCURVE",
"306 577 OFFCURVE",
"315 584 CURVE SMOOTH",
"328 595 OFFCURVE",
"346 607 OFFCURVE",
"346 627 CURVE SMOOTH",
"347 652 OFFCURVE",
"327 674 OFFCURVE",
"302 674 CURVE SMOOTH",
"249 674 OFFCURVE",
"222 616 OFFCURVE",
"211 553 CURVE",
"185 547 OFFCURVE",
"161 540 OFFCURVE",
"136 532 CURVE SMOOTH",
"86 517 OFFCURVE",
"-2 449 OFFCURVE",
"-2 383 CURVE SMOOTH",
"-2 335 OFFCURVE",
"24 301 OFFCURVE",
"74 301 CURVE SMOOTH",
"86 301 OFFCURVE",
"93 306 OFFCURVE",
"105 306 CURVE SMOOTH",
"116 305 OFFCURVE",
"116 322 OFFCURVE",
"105 322 CURVE SMOOTH",
"93 322 OFFCURVE",
"86 320 OFFCURVE",
"74 320 CURVE SMOOTH",
"47 321 OFFCURVE",
"26 359 OFFCURVE",
"26 383 CURVE SMOOTH",
"25 437 OFFCURVE",
"107 483 OFFCURVE",
"148 495 CURVE SMOOTH",
"167 501 OFFCURVE",
"186 505 OFFCURVE",
"205 507 CURVE",
"203 475 OFFCURVE",
"204 445 OFFCURVE",
"207 424 CURVE SMOOTH",
"217 362 OFFCURVE",
"222 293 OFFCURVE",
"222 231 CURVE SMOOTH",
"222 124 OFFCURVE",
"195 4 OFFCURVE",
"116 -41 CURVE SMOOTH",
"110 -45 OFFCURVE",
"105 -53 OFFCURVE",
"100 -53 CURVE SMOOTH",
"75 -53 OFFCURVE",
"59 -38 OFFCURVE",
"51 -17 CURVE SMOOTH",
"45 -3 OFFCURVE",
"38 10 OFFCURVE",
"38 26 CURVE SMOOTH",
"38 48 OFFCURVE",
"36 71 OFFCURVE",
"41 89 CURVE SMOOTH",
"44 100 OFFCURVE",
"28 104 OFFCURVE",
"25 93 CURVE SMOOTH",
"19 74 OFFCURVE",
"13 50 OFFCURVE",
"13 26 CURVE SMOOTH",
"14 -22 OFFCURVE",
"45 -93 OFFCURVE",
"101 -93 CURVE SMOOTH",
"110 -93 OFFCURVE",
"128 -94 OFFCURVE",
"141 -87 CURVE SMOOTH",
"235 -34 OFFCURVE",
"266 88 OFFCURVE",
"272 189 CURVE",
"279 180 OFFCURVE",
"292 175 OFFCURVE",
"309 175 CURVE SMOOTH",
"318 175 OFFCURVE",
"367 202 OFFCURVE",
"374 205 CURVE",
"376 207 LINE",
"404 220 OFFCURVE",
"434 229 OFFCURVE",
"461 249 CURVE",
"476 235 OFFCURVE",
"487 215 OFFCURVE",
"487 195 CURVE",
"488 188 OFFCURVE",
"487 182 OFFCURVE",
"486 176 CURVE SMOOTH",
"480 131 OFFCURVE",
"447 1 OFFCURVE",
"379 1 CURVE SMOOTH",
"366 1 OFFCURVE",
"351 18 OFFCURVE",
"351 31 CURVE SMOOTH",
"351 39 OFFCURVE",
"347 46 OFFCURVE",
"349 52 CURVE SMOOTH",
"352 61 OFFCURVE",
"350 69 OFFCURVE",
"352 76 CURVE SMOOTH",
"355 86 OFFCURVE",
"339 92 OFFCURVE",
"335 81 CURVE SMOOTH",
"333 74 OFFCURVE",
"325 69 OFFCURVE",
"322 61 CURVE SMOOTH",
"320 52 OFFCURVE",
"313 43 OFFCURVE",
"313 31 CURVE SMOOTH",
"312 -3 OFFCURVE",
"347 -52 OFFCURVE",
"379 -52 CURVE SMOOTH",
"471 -51 OFFCURVE",
"525 105 OFFCURVE",
"534 170 CURVE SMOOTH",
"540 209 OFFCURVE",
"522 251 OFFCURVE",
"491 277 CURVE",
"524 313 OFFCURVE",
"552 351 OFFCURVE",
"552 407 CURVE SMOOTH"
);
},
{
closed = 1;
nodes = (
"504 362 OFFCURVE",
"482 329 OFFCURVE",
"454 299 CURVE",
"445 301 OFFCURVE",
"435 303 OFFCURVE",
"424 303 CURVE SMOOTH",
"378 303 OFFCURVE",
"349 296 OFFCURVE",
"311 271 CURVE SMOOTH",
"300 263 OFFCURVE",
"283 251 OFFCURVE",
"274 235 CURVE",
"274 236 LINE SMOOTH",
"274 299 OFFCURVE",
"254 368 OFFCURVE",
"244 431 CURVE SMOOTH",
"241 449 OFFCURVE",
"238 479 OFFCURVE",
"237 511 CURVE",
"249 512 OFFCURVE",
"261 512 OFFCURVE",
"273 512 CURVE SMOOTH",
"293 512 OFFCURVE",
"317 510 OFFCURVE",
"335 507 CURVE SMOOTH",
"376 501 OFFCURVE",
"505 462 OFFCURVE",
"504 409 CURVE SMOOTH"
);
},
{
closed = 1;
nodes = (
"405 247 OFFCURVE",
"387 232 OFFCURVE",
"367 222 CURVE SMOOTH",
"365 221 LINE SMOOTH",
"359 219 OFFCURVE",
"320 211 OFFCURVE",
"314 214 CURVE",
"313 214 LINE",
"314 227 OFFCURVE",
"325 236 OFFCURVE",
"332 241 CURVE SMOOTH",
"363 260 OFFCURVE",
"387 264 OFFCURVE",
"423 264 CURVE"
);
}
);
width = 554;
}
);
note = B;
unicode = 0042;
},
{
glyphname = C;
layers = (
{
hints = (
{
horizontal = 1;
place = "{-23, 52}";
type = Stem;
},
{
horizontal = 1;
place = "{214, 19}";
type = Stem;
},
{
horizontal = 1;
place = "{385, 17}";
type = Stem;
},
{
horizontal = 1;
place = "{576, 27}";
type = Stem;
},
{
place = "{18, 52}";
type = Stem;
},
{
place = "{249, 23}";
type = Stem;
},
{
place = "{366, 17}";
type = Stem;
}
);
layerId = "245B06BA-2FC8-4E2B-85DB-2741CBBED619";
paths = (
{
closed = 1;
nodes = (
"413 190 OFFCURVE",
"375 233 OFFCURVE",
"330 233 CURVE SMOOTH",
"275 233 OFFCURVE",
"258 176 OFFCURVE",
"265 135 CURVE SMOOTH",
"267 124 OFFCURVE",
"284 127 OFFCURVE",
"282 138 CURVE SMOOTH",
"277 169 OFFCURVE",
"288 214 OFFCURVE",
"330 214 CURVE SMOOTH",
"359 214 OFFCURVE",
"373 176 OFFCURVE",
"373 148 CURVE SMOOTH",
"374 112 OFFCURVE",
"344 80 OFFCURVE",
"320 58 CURVE SMOOTH",
"298 37 OFFCURVE",
"270 30 OFFCURVE",
"234 30 CURVE SMOOTH",
"125 29 OFFCURVE",
"68 176 OFFCURVE",
"69 291 CURVE SMOOTH",
"69 313 OFFCURVE",
"73 338 OFFCURVE",
"78 360 CURVE SMOOTH",
"98 442 OFFCURVE",
"179 576 OFFCURVE",
"279 576 CURVE SMOOTH",
"306 576 OFFCURVE",
"328 566 OFFCURVE",
"343 547 CURVE SMOOTH",
"356 530 OFFCURVE",
"366 513 OFFCURVE",
"366 494 CURVE SMOOTH",
"365 458 OFFCURVE",
"332 401 OFFCURVE",
"301 402 CURVE SMOOTH",
"289 402 OFFCURVE",
"271 410 OFFCURVE",
"271 422 CURVE SMOOTH",
"271 443 OFFCURVE",
"284 467 OFFCURVE",
"303 475 CURVE",
"304 475 LINE",
"314 479 OFFCURVE",
"308 495 OFFCURVE",
"297 491 CURVE SMOOTH",
"286 486 OFFCURVE",
"269 477 OFFCURVE",
"265 472 CURVE SMOOTH",
"253 457 OFFCURVE",
"248 434 OFFCURVE",
"248 422 CURVE SMOOTH",
"248 401 OFFCURVE",
"280 386 OFFCURVE",
"300 385 CURVE SMOOTH",
"347 383 OFFCURVE",
"382 457 OFFCURVE",
"382 494 CURVE SMOOTH",
"382 541 OFFCURVE",
"329 603 OFFCURVE",
"280 603 CURVE SMOOTH",
"170 603 OFFCURVE",
"51 471 OFFCURVE",
"26 373 CURVE SMOOTH",
"19 345 OFFCURVE",
"17 316 OFFCURVE",
"17 292 CURVE SMOOTH",
"18 181 OFFCURVE",
"72 -21 OFFCURVE",
"234 -22 CURVE SMOOTH",
"276 -22 OFFCURVE",
"320 -14 OFFCURVE",
"356 19 CURVE SMOOTH",
"387 49 OFFCURVE",
"412 99 OFFCURVE",
"413 147 CURVE SMOOTH"
);
}
);
width = 433;
}
);
note = C;
unicode = 0043;
},
{
glyphname = D;
layers = (
{
hints = (
{
horizontal = 1;
place = "{-46, 43}";
type = Stem;
},
{
horizontal = 1;
place = "{5, 51}";
type = Stem;
},
{
horizontal = 1;
place = "{274, 21}";
type = Stem;
},
{
horizontal = 1;
place = "{376, 17}";
type = Stem;
},
{
horizontal = 1;
place = "{512, 32}";
type = Stem;
},
{
horizontal = 1;
place = "{683, 19}";
type = Stem;
},
{
place = "{30, 22}";
type = Stem;
},
{
place = "{172, 16}";
type = Stem;
},
{
place = "{219, 20}";
type = Stem;
},
{
place = "{247, 52}";
type = Stem;
},
{
place = "{352, 17}";
type = Stem;
},
{
place = "{597, 43}";
type = Stem;
}
);
layerId = "245B06BA-2FC8-4E2B-85DB-2741CBBED619";
paths = (
{
closed = 1;
nodes = (
"639 435 OFFCURVE",
"527 522 OFFCURVE",
"419 540 CURVE SMOOTH",
"398 543 OFFCURVE",
"384 543 OFFCURVE",
"362 543 CURVE SMOOTH",
"321 543 OFFCURVE",
"281 539 OFFCURVE",
"242 531 CURVE",
"240 540 OFFCURVE",
"238 549 OFFCURVE",
"238 560 CURVE SMOOTH",
"238 613 OFFCURVE",
"264 680 OFFCURVE",
"314 681 CURVE SMOOTH",
"335 681 OFFCURVE",
"353 666 OFFCURVE",
"352 644 CURVE SMOOTH",
"352 624 OFFCURVE",
"334 603 OFFCURVE",
"310 599 CURVE SMOOTH",
"300 598 OFFCURVE",
"302 580 OFFCURVE",
"313 582 CURVE SMOOTH",
"346 586 OFFCURVE",
"369 616 OFFCURVE",
"369 644 CURVE SMOOTH",
"368 676 OFFCURVE",
"345 700 OFFCURVE",
"314 700 CURVE SMOOTH",
"254 701 OFFCURVE",
"218 623 OFFCURVE",
"218 560 CURVE SMOOTH",
"218 547 OFFCURVE",
"217 537 OFFCURVE",
"218 526 CURVE",
"186 518 OFFCURVE",
"155 507 OFFCURVE",
"126 496 CURVE SMOOTH",
"94 484 OFFCURVE",
"22 448 OFFCURVE",
"23 399 CURVE SMOOTH",
"23 375 OFFCURVE",
"42 374 OFFCURVE",
"59 374 CURVE SMOOTH",
"79 375 OFFCURVE",
"95 381 OFFCURVE",
"114 387 CURVE",
"115 387 LINE",
"125 391 OFFCURVE",
"120 407 OFFCURVE",
"109 403 CURVE SMOOTH",
"93 397 OFFCURVE",
"77 391 OFFCURVE",
"59 391 CURVE SMOOTH",
"51 392 OFFCURVE",
"40 389 OFFCURVE",
"40 399 CURVE SMOOTH",
"41 434 OFFCURVE",
"98 467 OFFCURVE",
"133 481 CURVE SMOOTH",
"160 492 OFFCURVE",
"189 499 OFFCURVE",
"219 503 CURVE",
"223 459 OFFCURVE",
"224 411 OFFCURVE",
"233 372 CURVE SMOOTH",
"245 318 OFFCURVE",
"246 263 OFFCURVE",
"246 211 CURVE SMOOTH",
"246 159 OFFCURVE",
"233 107 OFFCURVE",
"210 66 CURVE",
"190 69 OFFCURVE",
"171 71 OFFCURVE",
"155 75 CURVE SMOOTH",
"145 78 OFFCURVE",
"140 81 OFFCURVE",
"132 83 CURVE SMOOTH",
"117 87 OFFCURVE",
"111 65 OFFCURVE",
"126 61 CURVE SMOOTH",
"149 55 OFFCURVE",
"171 45 OFFCURVE",
"192 37 CURVE",
"183 27 OFFCURVE",
"174 18 OFFCURVE",
"165 11 CURVE SMOOTH",
"154 3 OFFCURVE",
"148 -4 OFFCURVE",
"134 -4 CURVE SMOOTH",
"107 -3 OFFCURVE",
"72 16 OFFCURVE",
"63 39 CURVE SMOOTH",
"53 63 OFFCURVE",
"51 82 OFFCURVE",
"51 108 CURVE SMOOTH",
"51 125 OFFCURVE",
"53 145 OFFCURVE",
"56 158 CURVE SMOOTH",
"63 189 OFFCURVE",
"104 274 OFFCURVE",
"141 273 CURVE SMOOTH",
"172 273 OFFCURVE",
"177 219 OFFCURVE",
"168 188 CURVE SMOOTH",
"165 177 OFFCURVE",
"181 172 OFFCURVE",
"184 183 CURVE SMOOTH",
"196 225 OFFCURVE",
"183 295 OFFCURVE",
"142 294 CURVE SMOOTH",
"112 294 OFFCURVE",
"87 265 OFFCURVE",
"70 239 CURVE SMOOTH",
"44 199 OFFCURVE",
"29 156 OFFCURVE",
"29 108 CURVE SMOOTH",
"29 78 OFFCURVE",
"33 57 OFFCURVE",
"43 31 CURVE SMOOTH",
"56 -2 OFFCURVE",
"95 -45 OFFCURVE",
"134 -46 CURVE SMOOTH",
"160 -46 OFFCURVE",
"176 -46 OFFCURVE",
"197 -30 CURVE SMOOTH",
"215 -16 OFFCURVE",
"231 1 OFFCURVE",
"244 21 CURVE",
"270 13 OFFCURVE",
"297 4 OFFCURVE",
"325 4 CURVE SMOOTH",
"438 3 OFFCURVE",
"580 84 OFFCURVE",
"604 143 CURVE SMOOTH",
"626 197 OFFCURVE",
"639 262 OFFCURVE",
"639 326 CURVE SMOOTH"
);
},
{
closed = 1;
nodes = (
"597 274 OFFCURVE",
"586 211 OFFCURVE",
"560 171 CURVE SMOOTH",
"529 123 OFFCURVE",
"420 57 OFFCURVE",
"325 56 CURVE SMOOTH",
"305 56 OFFCURVE",
"284 54 OFFCURVE",
"264 56 CURVE",
"264 57 LINE",
"286 104 OFFCURVE",
"298 160 OFFCURVE",
"298 212 CURVE SMOOTH",
"298 264 OFFCURVE",
"297 324 OFFCURVE",
"284 384 CURVE SMOOTH",
"275 423 OFFCURVE",
"253 465 OFFCURVE",
"245 507 CURVE",
"283 511 OFFCURVE",
"322 512 OFFCURVE",
"361 512 CURVE SMOOTH",
"464 512 OFFCURVE",
"598 443 OFFCURVE",
"597 327 CURVE SMOOTH"
);
}
);
width = 668;
}
);
note = D;
unicode = 0044;
},
{
glyphname = E;
layers = (
{
hints = (
{
horizontal = 1;
place = "{-60, 52}";
type = Stem;
},
{
horizontal = 1;
place = "{91, 17}";
type = Stem;
},
{
horizontal = 1;
place = "{246, 30}";
type = Stem;
},
{
horizontal = 1;
place = "{284, 28}";
type = Stem;
},
{
horizontal = 1;
place = "{370, 24}";
type = Stem;
},
{
horizontal = 1;
place = "{400, 17}";
type = Stem;
},
{
horizontal = 1;
place = "{586, 44}";
type = Stem;
},
{
place = "{46, 28}";
type = Stem;
},
{
place = "{125, 23}";
type = Stem;
},
{
place = "{296, 17}";
type = Stem;
},
{
place = "{371, 16}";
type = Stem;
},
{
place = "{395, 38}";
type = Stem;
}
);
layerId = "245B06BA-2FC8-4E2B-85DB-2741CBBED619";
paths = (
{
closed = 1;
nodes = (
"476 231 OFFCURVE",
"434 276 OFFCURVE",
"388 276 CURVE SMOOTH",
"287 276 OFFCURVE",
"254 89 OFFCURVE",
"331 90 CURVE SMOOTH",
"390 90 OFFCURVE",
"409 190 OFFCURVE",
"356 181 CURVE SMOOTH",
"346 179 OFFCURVE",
"349 162 OFFCURVE",
"360 164 CURVE SMOOTH",
"384 168 OFFCURVE",
"366 106 OFFCURVE",
"330 107 CURVE SMOOTH",
"316 107 OFFCURVE",
"305 124 OFFCURVE",
"305 145 CURVE SMOOTH",
"305 192 OFFCURVE",
"337 248 OFFCURVE",
"388 247 CURVE SMOOTH",
"417 247 OFFCURVE",
"433 211 OFFCURVE",
"433 180 CURVE SMOOTH",
"433 134 OFFCURVE",
"406 81 OFFCURVE",
"375 53 CURVE SMOOTH",
"346 27 OFFCURVE",
"213 -8 OFFCURVE",
"175 -8 CURVE SMOOTH",
"152 -8 OFFCURVE",
"110 20 OFFCURVE",
"100 40 CURVE SMOOTH",
"84 72 OFFCURVE",
"74 100 OFFCURVE",
"74 135 CURVE SMOOTH",
"74 202 OFFCURVE",
"115 262 OFFCURVE",
"164 307 CURVE",
"179 293 OFFCURVE",
"198 284 OFFCURVE",
"223 284 CURVE SMOOTH",
"261 284 OFFCURVE",
"316 311 OFFCURVE",
"316 360 CURVE SMOOTH",
"316 387 OFFCURVE",
"292 394 OFFCURVE",
"270 394 CURVE SMOOTH",
"243 394 OFFCURVE",
"220 381 OFFCURVE",
"203 370 CURVE SMOOTH",
"191 362 OFFCURVE",
"179 353 OFFCURVE",
"167 343 CURVE",
"154 364 OFFCURVE",
"148 393 OFFCURVE",
"148 418 CURVE SMOOTH",
"148 469 OFFCURVE",
"179 522 OFFCURVE",
"210 558 CURVE SMOOTH",
"232 582 OFFCURVE",
"282 586 OFFCURVE",
"312 586 CURVE SMOOTH",
"345 586 OFFCURVE",
"375 569 OFFCURVE",
"384 540 CURVE SMOOTH",
"388 529 OFFCURVE",
"395 517 OFFCURVE",
"395 504 CURVE SMOOTH",
"395 472 OFFCURVE",
"378 417 OFFCURVE",
"348 417 CURVE SMOOTH",
"329 417 OFFCURVE",
"313 434 OFFCURVE",
"313 452 CURVE SMOOTH",
"313 470 OFFCURVE",
"327 487 OFFCURVE",
"342 501 CURVE SMOOTH",
"350 509 OFFCURVE",
"338 521 OFFCURVE",
"330 513 CURVE SMOOTH",
"316 500 OFFCURVE",
"296 479 OFFCURVE",
"296 453 CURVE SMOOTH",
"296 425 OFFCURVE",
"320 400 OFFCURVE",
"349 400 CURVE SMOOTH",
"389 400 OFFCURVE",
"433 461 OFFCURVE",
"433 504 CURVE SMOOTH",
"433 520 OFFCURVE",
"431 537 OFFCURVE",
"426 553 CURVE SMOOTH",
"410 607 OFFCURVE",
"357 630 OFFCURVE",
"311 630 CURVE SMOOTH",
"273 630 OFFCURVE",
"217 606 OFFCURVE",
"190 576 CURVE SMOOTH",
"155 536 OFFCURVE",
"125 475 OFFCURVE",
"125 418 CURVE SMOOTH",
"125 388 OFFCURVE",
"132 353 OFFCURVE",
"149 327 CURVE",
"93 277 OFFCURVE",
"46 210 OFFCURVE",
"46 136 CURVE SMOOTH",
"46 95 OFFCURVE",
"46 60 OFFCURVE",
"64 22 CURVE SMOOTH",
"87 -24 OFFCURVE",
"120 -60 OFFCURVE",
"176 -60 CURVE SMOOTH",
"215 -60 OFFCURVE",
"319 -33 OFFCURVE",
"348 -22 CURVE SMOOTH",
"370 -13 OFFCURVE",
"387 3 OFFCURVE",
"405 19 CURVE SMOOTH",
"445 55 OFFCURVE",
"476 123 OFFCURVE",
"476 181 CURVE SMOOTH"
);
},
{
closed = 1;
nodes = (
"288 335 OFFCURVE",
"255 312 OFFCURVE",
"223 312 CURVE SMOOTH",
"208 312 OFFCURVE",
"195 317 OFFCURVE",
"185 325 CURVE",
"206 342 OFFCURVE",
"241 370 OFFCURVE",
"270 370 CURVE SMOOTH",
"278 370 OFFCURVE",
"288 370 OFFCURVE",
"288 360 CURVE SMOOTH"
);
}
);
width = 507;
}
);
note = E;
unicode = 0045;
},
{
glyphname = F;
layers = (
{
hints = (
{
horizontal = 1;
place = "{-49, 52}";
type = Stem;
},
{
horizontal = 1;
place = "{113, 20}";
type = Stem;
},
{
horizontal = 1;
place = "{304, 21}";
target = up;
type = BottomGhost;
},
{
horizontal = 1;
place = "{431, 26}";
type = Stem;
},
{
horizontal = 1;
place = "{479, 17}";
type = Stem;
},
{
horizontal = 1;
place = "{571, 18}";
type = Stem;
},
{
place = "{28, 22}";
type = Stem;
},
{
place = "{136, 36}";
type = Stem;
},
{
place = "{224, 21}";
type = Stem;
},
{
place = "{342, 21}";
type = Stem;
},
{
place = "{430, 36}";
type = Stem;
},
{
place = "{642, 21}";
type = Stem;
}
);
layerId = "245B06BA-2FC8-4E2B-85DB-2741CBBED619";
paths = (
{
closed = 1;
nodes = (
"662 577 OFFCURVE",
"616 603 OFFCURVE",
"578 583 CURVE SMOOTH",
"568 577 OFFCURVE",
"576 562 OFFCURVE",
"586 567 CURVE SMOOTH",
"612 581 OFFCURVE",
"642 561 OFFCURVE",
"642 526 CURVE SMOOTH",
"641 489 OFFCURVE",
"599 457 OFFCURVE",
"564 457 CURVE SMOOTH",
"525 457 OFFCURVE",
"491 482 OFFCURVE",
"459 511 CURVE",
"460 548 OFFCURVE",
"462 574 OFFCURVE",
"484 604 CURVE SMOOTH",
"490 613 OFFCURVE",
"476 623 OFFCURVE",
"469 614 CURVE SMOOTH",
"449 587 OFFCURVE",
"437 565 OFFCURVE",
"433 535 CURVE",
"411 557 OFFCURVE",
"388 578 OFFCURVE",
"364 590 CURVE SMOOTH",
"332 607 OFFCURVE",
"279 623 OFFCURVE",
"242 623 CURVE SMOOTH",
"185 623 OFFCURVE",
"120 598 OFFCURVE",
"81 564 CURVE SMOOTH",
"49 536 OFFCURVE",
"31 482 OFFCURVE",
"27 441 CURVE SMOOTH",
"24 403 OFFCURVE",
"35 379 OFFCURVE",
"52 350 CURVE SMOOTH",
"66 326 OFFCURVE",
"78 305 OFFCURVE",
"110 305 CURVE SMOOTH",
"173 304 OFFCURVE",
"232 365 OFFCURVE",
"231 425 CURVE SMOOTH",
"231 459 OFFCURVE",
"223 496 OFFCURVE",
"175 496 CURVE SMOOTH",
"164 496 OFFCURVE",
"164 479 OFFCURVE",
"175 479 CURVE SMOOTH",
"207 479 OFFCURVE",
"214 458 OFFCURVE",
"214 424 CURVE SMOOTH",
"213 375 OFFCURVE",
"163 327 OFFCURVE",
"110 326 CURVE SMOOTH",
"94 326 OFFCURVE",
"86 335 OFFCURVE",
"79 347 CURVE SMOOTH",
"27 428 OFFCURVE",
"45 463 OFFCURVE",
"115 525 CURVE SMOOTH",
"144 551 OFFCURVE",
"197 571 OFFCURVE",
"241 571 CURVE SMOOTH",
"268 571 OFFCURVE",
"313 558 OFFCURVE",
"340 544 CURVE SMOOTH",
"373 527 OFFCURVE",
"403 505 OFFCURVE",
"432 482 CURVE",
"431 453 OFFCURVE",
"429 425 OFFCURVE",
"427 394 CURVE",
"424 395 OFFCURVE",
"421 395 OFFCURVE",
"418 395 CURVE SMOOTH",
"406 396 OFFCURVE",
"400 397 OFFCURVE",
"388 397 CURVE SMOOTH",
"362 397 OFFCURVE",
"340 378 OFFCURVE",
"321 363 CURVE",
"314 355 OFFCURVE",
"324 343 OFFCURVE",
"333 350 CURVE SMOOTH",
"346 362 OFFCURVE",
"365 368 OFFCURVE",
"384 368 CURVE SMOOTH",
"395 368 OFFCURVE",
"401 367 OFFCURVE",
"411 366 CURVE SMOOTH",
"416 366 OFFCURVE",
"421 365 OFFCURVE",
"426 363 CURVE",
"425 315 OFFCURVE",
"430 275 OFFCURVE",
"430 224 CURVE SMOOTH",
"430 201 OFFCURVE",
"417 182 OFFCURVE",
"411 162 CURVE SMOOTH",
"398 115 OFFCURVE",
"370 81 OFFCURVE",
"329 41 CURVE SMOOTH",
"315 27 OFFCURVE",
"298 3 OFFCURVE",
"276 3 CURVE SMOOTH",
"259 3 OFFCURVE",
"204 36 OFFCURVE",
"196 53 CURVE SMOOTH",
"183 79 OFFCURVE",
"172 109 OFFCURVE",
"172 141 CURVE SMOOTH",
"172 180 OFFCURVE",
"191 228 OFFCURVE",
"211 257 CURVE SMOOTH",
"217 265 OFFCURVE",
"220 273 OFFCURVE",
"225 279 CURVE SMOOTH",
"243 304 OFFCURVE",
"263 316 OFFCURVE",
"295 316 CURVE SMOOTH",
"325 316 OFFCURVE",
"342 268 OFFCURVE",
"342 240 CURVE SMOOTH",
"341 198 OFFCURVE",
"327 133 OFFCURVE",
"282 133 CURVE SMOOTH",
"254 133 OFFCURVE",
"246 154 OFFCURVE",
"245 181 CURVE SMOOTH",
"245 204 OFFCURVE",
"264 233 OFFCURVE",
"285 233 CURVE SMOOTH",
"292 233 OFFCURVE",
"298 218 OFFCURVE",
"300 213 CURVE SMOOTH",
"305 203 OFFCURVE",
"320 210 OFFCURVE",
"315 220 CURVE SMOOTH",
"309 234 OFFCURVE",
"304 252 OFFCURVE",
"285 252 CURVE SMOOTH",
"256 252 OFFCURVE",
"224 213 OFFCURVE",
"224 180 CURVE SMOOTH",
"223 142 OFFCURVE",
"240 113 OFFCURVE",
"283 113 CURVE SMOOTH",
"338 113 OFFCURVE",
"362 188 OFFCURVE",
"362 240 CURVE SMOOTH",
"362 276 OFFCURVE",
"333 334 OFFCURVE",
"295 334 CURVE SMOOTH",
"270 334 OFFCURVE",
"254 328 OFFCURVE",
"229 310 CURVE SMOOTH",
"186 279 OFFCURVE",
"136 187 OFFCURVE",
"136 142 CURVE SMOOTH",
"136 102 OFFCURVE",
"133 62 OFFCURVE",
"149 30 CURVE SMOOTH",
"166 -5 OFFCURVE",
"239 -49 OFFCURVE",
"276 -49 CURVE SMOOTH",
"308 -49 OFFCURVE",
"328 -34 OFFCURVE",
"349 -13 CURVE SMOOTH",
"399 38 OFFCURVE",
"442 77 OFFCURVE",
"462 149 CURVE SMOOTH",
"468 172 OFFCURVE",
"466 197 OFFCURVE",
"466 224 CURVE SMOOTH",
"466 271 OFFCURVE",
"460 308 OFFCURVE",
"460 351 CURVE",
"461 351 LINE SMOOTH",
"525 335 OFFCURVE",
"577 372 OFFCURVE",
"594 395 CURVE SMOOTH",
"601 404 OFFCURVE",
"583 408 OFFCURVE",
"574 401 CURVE SMOOTH",
"548 378 OFFCURVE",
"527 379 OFFCURVE",
"511 376 CURVE SMOOTH",
"495 374 OFFCURVE",
"477 379 OFFCURVE",
"460 385 CURVE",
"461 412 OFFCURVE",
"460 437 OFFCURVE",
"460 462 CURVE",
"491 442 OFFCURVE",
"525 431 OFFCURVE",
"564 431 CURVE SMOOTH",
"611 431 OFFCURVE",
"663 477 OFFCURVE",
"663 526 CURVE SMOOTH"
);
}
);
width = 571;
}
);
note = F;
unicode = 0046;
},
{
glyphname = G;
layers = (
{
hints = (
{
horizontal = 1;
place = "{-241, 41}";
type = Stem;
},
{
horizontal = 1;
place = "{-99, 40}";
type = Stem;
},
{
horizontal = 1;
place = "{3, 52}";
type = Stem;
},
{
horizontal = 1;
place = "{329, 18}";
type = Stem;
},
{
horizontal = 1;
place = "{444, 27}";
type = Stem;
},
{
horizontal = 1;
place = "{532, 30}";
type = Stem;
},
{
place = "{17, 43}";
type = Stem;
},
{
place = "{213, 43}";
type = Stem;
},
{
place = "{270, 22}";
type = Stem;
},
{
place = "{414, 35}";
type = Stem;
},
{
place = "{451, 26}";
type = Stem;
}
);
layerId = "245B06BA-2FC8-4E2B-85DB-2741CBBED619";
paths = (
{
closed = 1;
nodes = (
"449 216 OFFCURVE",
"430 271 OFFCURVE",
"392 271 CURVE",
"385 270 OFFCURVE",
"379 267 OFFCURVE",
"375 263 CURVE SMOOTH",
"350 237 OFFCURVE",
"367 161 OFFCURVE",
"376 125 CURVE",
"356 99 OFFCURVE",
"326 78 OFFCURVE",
"299 67 CURVE SMOOTH",
"277 59 OFFCURVE",
"258 55 OFFCURVE",
"231 55 CURVE SMOOTH",
"189 55 OFFCURVE",
"164 58 OFFCURVE",
"133 77 CURVE SMOOTH",
"86 107 OFFCURVE",
"60 165 OFFCURVE",
"60 219 CURVE SMOOTH",
"60 307 OFFCURVE",
"93 361 OFFCURVE",
"143 431 CURVE SMOOTH",
"181 486 OFFCURVE",
"237 532 OFFCURVE",
"305 532 CURVE SMOOTH",
"370 532 OFFCURVE",
"468 516 OFFCURVE",
"447 430 CURVE SMOOTH",
"417 307 OFFCURVE",
"293 344 OFFCURVE",
"292 393 CURVE SMOOTH",
"292 428 OFFCURVE",
"351 467 OFFCURVE",
"363 428 CURVE SMOOTH",
"367 417 OFFCURVE",
"384 422 OFFCURVE",
"380 433 CURVE SMOOTH",
"372 458 OFFCURVE",
"362 472 OFFCURVE",
"338 471 CURVE SMOOTH",
"315 470 OFFCURVE",
"285 453 OFFCURVE",
"276 433 CURVE SMOOTH",
"271 420 OFFCURVE",
"269 407 OFFCURVE",
"269 393 CURVE SMOOTH",
"269 348 OFFCURVE",
"325 328 OFFCURVE",
"366 329 CURVE SMOOTH",
"485 330 OFFCURVE",
"560 564 OFFCURVE",
"304 563 CURVE SMOOTH",
"227 563 OFFCURVE",
"161 512 OFFCURVE",
"116 449 CURVE SMOOTH",
"61 372 OFFCURVE",
"15 316 OFFCURVE",
"16 219 CURVE SMOOTH",
"16 150 OFFCURVE",
"45 73 OFFCURVE",
"106 34 CURVE SMOOTH",
"149 7 OFFCURVE",
"186 3 OFFCURVE",
"232 3 CURVE SMOOTH",
"265 3 OFFCURVE",
"290 8 OFFCURVE",
"317 19 CURVE SMOOTH",
"341 29 OFFCURVE",
"366 45 OFFCURVE",
"388 65 CURVE",
"389 50 OFFCURVE",
"390 35 OFFCURVE",
"390 19 CURVE SMOOTH",
"390 -34 OFFCURVE",
"381 -200 OFFCURVE",
"287 -200 CURVE SMOOTH",
"265 -200 OFFCURVE",
"256 -181 OFFCURVE",
"256 -161 CURVE SMOOTH",
"256 -132 OFFCURVE",
"271 -99 OFFCURVE",
"301 -99 CURVE SMOOTH",
"317 -99 OFFCURVE",
"311 -123 OFFCURVE",
"308 -135 CURVE SMOOTH",
"305 -145 OFFCURVE",
"321 -149 OFFCURVE",
"324 -138 CURVE SMOOTH",
"331 -112 OFFCURVE",
"337 -58 OFFCURVE",
"299 -58 CURVE SMOOTH",
"248 -59 OFFCURVE",
"213 -110 OFFCURVE",
"213 -162 CURVE SMOOTH",
"213 -180 OFFCURVE",
"216 -198 OFFCURVE",
"228 -214 CURVE SMOOTH",
"239 -230 OFFCURVE",
"267 -241 OFFCURVE",
"287 -241 CURVE SMOOTH",
"302 -241 OFFCURVE",
"311 -238 OFFCURVE",
"325 -231 CURVE SMOOTH",
"406 -190 OFFCURVE",
"418 -71 OFFCURVE",
"418 20 CURVE SMOOTH",
"418 34 OFFCURVE",
"418 42 OFFCURVE",
"417 56 CURVE SMOOTH",
"417 67 OFFCURVE",
"415 79 OFFCURVE",
"412 92 CURVE",
"434 120 OFFCURVE",
"449 153 OFFCURVE",
"449 186 CURVE SMOOTH"
);
},
{
closed = 1;
nodes = (
"414 180 OFFCURVE",
"399 171 OFFCURVE",
"397 164 CURVE",
"391 192 OFFCURVE",
"388 219 OFFCURVE",
"395 239 CURVE",
"396 240 LINE",
"410 235 OFFCURVE",
"413 203 OFFCURVE",
"413 188 CURVE SMOOTH"
);
}
);
width = 492;
}
);
note = G;
unicode = 0047;
},
{
glyphname = H;
layers = (
{
hints = (
{
horizontal = 1;
place = "{-58, 36}";
type = Stem;
},
{
horizontal = 1;
place = "{106, 17}";
type = Stem;
},
{
horizontal = 1;
place = "{208, 17}";
type = Stem;
},
{
horizontal = 1;
place = "{227, 47}";
type = Stem;
},
{
horizontal = 1;
place = "{349, 27}";
type = Stem;
},
{
horizontal = 1;
place = "{559, 22}";
type = Stem;
},
{
place = "{14, 17}";
type = Stem;
},
{
place = "{46, 26}";
type = Stem;
},
{
place = "{77, 17}";
type = Stem;
},
{
place = "{138, 17}";
type = Stem;
},
{
place = "{233, 45}";
type = Stem;
},
{
place = "{476, 26}";
type = Stem;
}
);
layerId = "245B06BA-2FC8-4E2B-85DB-2741CBBED619";
paths = (
{
closed = 1;
nodes = (
"574 542 OFFCURVE",
"571 560 OFFCURVE",
"560 558 CURVE SMOOTH",
"474 542 OFFCURVE",
"481 396 OFFCURVE",
"476 333 CURVE SMOOTH",
"472 295 LINE",
"450 288 OFFCURVE",
"425 284 OFFCURVE",
"402 279 CURVE SMOOTH",
"391 277 OFFCURVE",
"381 273 OFFCURVE",
"370 273 CURVE SMOOTH",
"334 274 OFFCURVE",
"305 274 OFFCURVE",
"272 274 CURVE",
"274 291 OFFCURVE",
"277 310 OFFCURVE",
"278 330 CURVE SMOOTH",
"281 372 LINE SMOOTH",
"284 411 OFFCURVE",
"280 435 OFFCURVE",
"274 474 CURVE SMOOTH",
"268 509 OFFCURVE",
"213 581 OFFCURVE",
"173 581 CURVE SMOOTH",
"160 581 OFFCURVE",
"151 574 OFFCURVE",
"139 569 CURVE SMOOTH",
"95 551 OFFCURVE",
"45 497 OFFCURVE",
"45 452 CURVE SMOOTH",
"45 409 OFFCURVE",
"53 350 OFFCURVE",
"111 349 CURVE SMOOTH",
"136 349 OFFCURVE",
"156 358 OFFCURVE",
"166 380 CURVE SMOOTH",
"169 387 OFFCURVE",
"168 393 OFFCURVE",
"168 401 CURVE SMOOTH",
"167 417 OFFCURVE",
"162 421 OFFCURVE",
"153 433 CURVE SMOOTH",
"147 442 OFFCURVE",
"133 432 OFFCURVE",
"140 423 CURVE SMOOTH",
"147 414 OFFCURVE",
"149 412 OFFCURVE",
"149 401 CURVE",
"148 397 OFFCURVE",
"143 395 OFFCURVE",
"141 391 CURVE SMOOTH",
"137 379 OFFCURVE",
"125 375 OFFCURVE",
"112 375 CURVE SMOOTH",
"70 376 OFFCURVE",
"71 422 OFFCURVE",
"71 453 CURVE SMOOTH",
"71 497 OFFCURVE",
"124 559 OFFCURVE",
"173 559 CURVE SMOOTH",
"202 559 OFFCURVE",
"219 491 OFFCURVE",
"223 466 CURVE SMOOTH",
"228 430 OFFCURVE",
"226 408 OFFCURVE",
"229 372 CURVE SMOOTH",
"233 330 LINE SMOOTH",
"235 309 OFFCURVE",
"235 290 OFFCURVE",
"235 271 CURVE",
"206 265 OFFCURVE",
"186 247 OFFCURVE",
"178 213 CURVE SMOOTH",
"175 202 OFFCURVE",
"192 198 OFFCURVE",
"195 209 CURVE SMOOTH",
"200 233 OFFCURVE",
"215 245 OFFCURVE",
"235 249 CURVE",
"233 221 OFFCURVE",
"229 195 OFFCURVE",
"223 168 CURVE SMOOTH",
"210 109 OFFCURVE",
"190 24 OFFCURVE",
"135 -11 CURVE",
"131 -15 OFFCURVE",
"124 -22 OFFCURVE",
"117 -22 CURVE SMOOTH",
"95 -22 OFFCURVE",
"64 -2 OFFCURVE",
"54 14 CURVE SMOOTH",
"39 38 OFFCURVE",
"30 59 OFFCURVE",
"30 89 CURVE SMOOTH",
"31 143 OFFCURVE",
"63 206 OFFCURVE",
"113 207 CURVE SMOOTH",
"126 207 OFFCURVE",
"138 193 OFFCURVE",
"138 179 CURVE SMOOTH",
"137 154 OFFCURVE",
"121 122 OFFCURVE",
"105 122 CURVE SMOOTH",
"89 123 OFFCURVE",
"92 139 OFFCURVE",
"93 149 CURVE SMOOTH",
"94 161 OFFCURVE",
"77 162 OFFCURVE",
"76 151 CURVE SMOOTH",
"75 130 OFFCURVE",
"76 106 OFFCURVE",
"106 106 CURVE SMOOTH",
"139 105 OFFCURVE",
"156 155 OFFCURVE",
"155 178 CURVE SMOOTH",
"155 199 OFFCURVE",
"138 224 OFFCURVE",
"113 224 CURVE SMOOTH",
"47 225 OFFCURVE",
"12 145 OFFCURVE",
"13 89 CURVE SMOOTH",
"13 55 OFFCURVE",
"22 30 OFFCURVE",
"39 3 CURVE SMOOTH",
"52 -18 OFFCURVE",
"87 -58 OFFCURVE",
"116 -58 CURVE SMOOTH",
"126 -58 OFFCURVE",
"134 -57 OFFCURVE",
"141 -54 CURVE SMOOTH",
"222 -17 OFFCURVE",
"236 84 OFFCURVE",
"253 161 CURVE SMOOTH",
"259 191 OFFCURVE",
"264 220 OFFCURVE",
"268 250 CURVE",
"304 246 OFFCURVE",
"332 226 OFFCURVE",
"370 226 CURVE",
"393 229 LINE SMOOTH",
"420 234 OFFCURVE",
"446 242 OFFCURVE",
"469 253 CURVE",
"469 246 LINE SMOOTH",
"469 172 OFFCURVE",
"463 -3 OFFCURVE",
"522 -62 CURVE SMOOTH",
"545 -84 OFFCURVE",
"578 -51 OFFCURVE",
"556 -29 CURVE SMOOTH",
"544 -17 OFFCURVE",
"540 -1 OFFCURVE",
"535 17 CURVE SMOOTH",
"515 93 OFFCURVE",
"499 158 OFFCURVE",
"499 246 CURVE SMOOTH",
"499 271 LINE",
"522 286 OFFCURVE",
"541 306 OFFCURVE",
"556 333 CURVE SMOOTH",
"562 343 OFFCURVE",
"547 351 OFFCURVE",
"541 341 CURVE SMOOTH",
"532 325 OFFCURVE",
"518 314 OFFCURVE",
"501 306 CURVE",
"503 314 OFFCURVE",
"504 322 OFFCURVE",
"505 331 CURVE SMOOTH",
"508 379 OFFCURVE",
"493 526 OFFCURVE",
"563 540 CURVE SMOOTH"
);
}
);
width = 571;
}
);
note = H;
unicode = 0048;
},
{
glyphname = I;
layers = (
{
hints = (
{
horizontal = 1;
place = "{-52, 28}";
type = Stem;
},
{
horizontal = 1;
place = "{55, 23}";
type = Stem;
},
{
horizontal = 1;
place = "{228, 20}";
type = Stem;
},
{
horizontal = 1;
place = "{427, 18}";
type = Stem;
},
{
place = "{30, 17}";
type = Stem;
},
{
place = "{86, 22}";
type = Stem;
},
{
place = "{116, 21}";
type = Stem;
},
{
place = "{166, 21}";
type = Stem;
},
{
place = "{232, 22}";
type = Stem;
}
);
layerId = "245B06BA-2FC8-4E2B-85DB-2741CBBED619";
paths = (
{
closed = 1;
nodes = (
"287 270 OFFCURVE",
"286 280 OFFCURVE",
"285 300 CURVE SMOOTH",
"284 333 OFFCURVE",
"277 351 OFFCURVE",
"275 385 CURVE SMOOTH",
"272 435 OFFCURVE",
"259 489 OFFCURVE",
"254 542 CURVE SMOOTH",
"252 567 OFFCURVE",
"250 591 OFFCURVE",
"251 615 CURVE",
"250 625 LINE",
"251 632 OFFCURVE",
"237 630 OFFCURVE",
"235 621 CURVE SMOOTH",
"231 610 OFFCURVE",
"217 589 OFFCURVE",
"187 578 CURVE SMOOTH",
"156 566 OFFCURVE",
"114 522 OFFCURVE",
"115 483 CURVE SMOOTH",
"115 453 OFFCURVE",
"125 427 OFFCURVE",
"158 427 CURVE SMOOTH",
"191 427 OFFCURVE",
"201 467 OFFCURVE",
"197 498 CURVE SMOOTH",
"196 509 OFFCURVE",
"179 507 OFFCURVE",
"180 496 CURVE SMOOTH",
"183 475 OFFCURVE",
"181 445 OFFCURVE",
"157 445 CURVE SMOOTH",
"142 445 OFFCURVE",
"137 471 OFFCURVE",
"137 482 CURVE SMOOTH",
"136 511 OFFCURVE",
"169 551 OFFCURVE",
"194 560 CURVE SMOOTH",
"212 567 OFFCURVE",
"223 571 OFFCURVE",
"231 578 CURVE",
"230 566 OFFCURVE",
"231 554 OFFCURVE",
"232 542 CURVE SMOOTH",
"237 488 OFFCURVE",
"232 433 OFFCURVE",
"235 383 CURVE SMOOTH",
"238 338 OFFCURVE",
"242 294 OFFCURVE",
"242 250 CURVE SMOOTH",
"241 188 OFFCURVE",
"234 139 OFFCURVE",
"220 86 CURVE SMOOTH",
"207 40 OFFCURVE",
"166 -24 OFFCURVE",
"119 -24 CURVE SMOOTH",
"112 -24 OFFCURVE",
"83 -13 OFFCURVE",
"79 -8 CURVE SMOOTH",
"55 18 OFFCURVE",
"47 59 OFFCURVE",
"47 93 CURVE SMOOTH",
"46 135 OFFCURVE",
"74 228 OFFCURVE",
"129 228 CURVE SMOOTH",
"160 228 OFFCURVE",
"166 197 OFFCURVE",
"166 168 CURVE",
"165 162 OFFCURVE",
"165 157 OFFCURVE",
"165 152 CURVE SMOOTH",
"164 134 OFFCURVE",
"146 79 OFFCURVE",
"125 78 CURVE SMOOTH",
"111 78 OFFCURVE",
"107 96 OFFCURVE",
"107 109 CURVE SMOOTH",
"107 115 OFFCURVE",
"108 118 OFFCURVE",
"109 121 CURVE SMOOTH",
"122 155 OFFCURVE",
"93 148 OFFCURVE",
"91 137 CURVE SMOOTH",
"90 127 OFFCURVE",
"85 122 OFFCURVE",
"85 110 CURVE SMOOTH",
"85 85 OFFCURVE",
"99 53 OFFCURVE",
"126 54 CURVE SMOOTH",
"150 54 OFFCURVE",
"180 112 OFFCURVE",
"184 133 CURVE SMOOTH",
"187 145 OFFCURVE",
"186 157 OFFCURVE",
"186 169 CURVE SMOOTH",
"187 209 OFFCURVE",
"173 248 OFFCURVE",
"130 248 CURVE SMOOTH",
"109 248 OFFCURVE",
"92 238 OFFCURVE",
"78 222 CURVE SMOOTH",
"46 184 OFFCURVE",
"28 140 OFFCURVE",
"29 93 CURVE SMOOTH",
"29 60 OFFCURVE",
"40 1 OFFCURVE",
"62 -23 CURVE SMOOTH",
"68 -31 OFFCURVE",
"108 -52 OFFCURVE",
"119 -52 CURVE SMOOTH",
"178 -52 OFFCURVE",
"240 18 OFFCURVE",
"256 76 CURVE SMOOTH",
"272 133 OFFCURVE",
"288 184 OFFCURVE",
"287 250 CURVE SMOOTH"
);
}
);
width = 315;
}
);
note = I;
unicode = 0049;
},
{
glyphname = J;
layers = (
{
hints = (
{
horizontal = 1;
place = "{-49, 41}";
type = Stem;
},
{
horizontal = 1;
place = "{76, 28}";
type = Stem;
},
{
horizontal = 1;
place = "{286, 19}";
type = Stem;
},
{
horizontal = 1;
place = "{552, 22}";
type = Stem;
},
{
place = "{-2, 21}";
type = Stem;
},
{
place = "{61, 18}";
type = Stem;
},
{
place = "{156, 23}";
type = Stem;
},
{
place = "{238, 18}";
type = Stem;
},
{
place = "{339, 16}";
type = Stem;
}
);
layerId = "245B06BA-2FC8-4E2B-85DB-2741CBBED619";
paths = (
{
closed = 1;
nodes = (
"354 618 OFFCURVE",
"338 618 OFFCURVE",
"338 607 CURVE SMOOTH",
"338 571 OFFCURVE",
"312 573 OFFCURVE",
"284 573 CURVE",
"282 577 OFFCURVE",
"277 578 OFFCURVE",
"273 575 CURVE SMOOTH",
"271 574 LINE",
"146 574 LINE SMOOTH",
"121 574 OFFCURVE",
"103 573 OFFCURVE",
"82 559 CURVE SMOOTH",
"69 550 OFFCURVE",
"61 541 OFFCURVE",
"61 522 CURVE SMOOTH",
"61 512 OFFCURVE",
"67 507 OFFCURVE",
"72 498 CURVE SMOOTH",
"77 488 OFFCURVE",
"92 496 OFFCURVE",
"87 506 CURVE SMOOTH",
"84 511 OFFCURVE",
"79 517 OFFCURVE",
"79 523 CURVE SMOOTH",
"78 534 OFFCURVE",
"86 536 OFFCURVE",
"93 541 CURVE SMOOTH",
"110 552 OFFCURVE",
"125 551 OFFCURVE",
"146 551 CURVE SMOOTH",
"178 551 OFFCURVE",
"207 542 OFFCURVE",
"237 536 CURVE",
"226 521 OFFCURVE",
"218 503 OFFCURVE",
"217 483 CURVE SMOOTH",
"213 381 OFFCURVE",
"227 346 OFFCURVE",
"230 250 CURVE SMOOTH",
"230 235 OFFCURVE",
"236 225 OFFCURVE",
"236 211 CURVE SMOOTH",
"236 189 OFFCURVE",
"238 169 OFFCURVE",
"238 148 CURVE SMOOTH",
"237 100 OFFCURVE",
"202 50 OFFCURVE",
"170 20 CURVE SMOOTH",
"163 14 OFFCURVE",
"142 -8 OFFCURVE",
"132 -8 CURVE SMOOTH",
"69 -8 OFFCURVE",
"25 85 OFFCURVE",
"19 137 CURVE SMOOTH",
"13 193 OFFCURVE",
"37 286 OFFCURVE",
"96 286 CURVE SMOOTH",
"140 286 OFFCURVE",
"156 223 OFFCURVE",
"156 190 CURVE SMOOTH",
"155 148 OFFCURVE",
"147 103 OFFCURVE",
"103 103 CURVE",
"100 104 OFFCURVE",
"98 106 OFFCURVE",
"96 108 CURVE SMOOTH",
"87 116 OFFCURVE",
"79 135 OFFCURVE",
"79 147 CURVE SMOOTH",
"79 171 OFFCURVE",
"93 188 OFFCURVE",
"112 186 CURVE SMOOTH",
"125 184 OFFCURVE",
"127 205 OFFCURVE",
"114 206 CURVE SMOOTH",
"81 210 OFFCURVE",
"51 188 OFFCURVE",
"51 148 CURVE SMOOTH",
"51 130 OFFCURVE",
"51 120 OFFCURVE",
"62 103 CURVE SMOOTH",
"72 88 OFFCURVE",
"83 75 OFFCURVE",
"103 75 CURVE SMOOTH",
"163 76 OFFCURVE",
"180 133 OFFCURVE",
"179 191 CURVE SMOOTH",
"179 232 OFFCURVE",
"150 305 OFFCURVE",
"95 305 CURVE SMOOTH",
"27 305 OFFCURVE",
"-9 200 OFFCURVE",
"-1 134 CURVE SMOOTH",
"6 70 OFFCURVE",
"54 -49 OFFCURVE",
"132 -49 CURVE SMOOTH",
"154 -49 OFFCURVE",
"172 -37 OFFCURVE",
"187 -22 CURVE SMOOTH",
"199 -10 LINE SMOOTH",
"235 26 OFFCURVE",
"255 93 OFFCURVE",
"256 148 CURVE SMOOTH",
"256 169 OFFCURVE",
"266 189 OFFCURVE",
"266 212 CURVE SMOOTH",
"266 226 OFFCURVE",
"264 236 OFFCURVE",
"264 252 CURVE SMOOTH",
"261 346 OFFCURVE",
"258 380 OFFCURVE",
"262 480 CURVE SMOOTH",
"263 498 OFFCURVE",
"263 517 OFFCURVE",
"267 533 CURVE",
"271 532 OFFCURVE",
"275 532 OFFCURVE",
"279 532 CURVE SMOOTH",
"309 532 OFFCURVE",
"327 552 OFFCURVE",
"345 570 CURVE SMOOTH",
"355 580 OFFCURVE",
"354 593 OFFCURVE",
"354 608 CURVE SMOOTH"
);
}
);
width = 332;
}
);
note = J;
unicode = 004A;
},
{
glyphname = K;
layers = (
{
hints = (
{
horizontal = 1;
place = "{-62, 24}";
type = Stem;
},
{
horizontal = 1;
place = "{55, 19}";
type = Stem;
},
{
horizontal = 1;
place = "{114, 21}";
type = Stem;
},
{
horizontal = 1;
place = "{141, 19}";
type = Stem;
},
{
horizontal = 1;
place = "{332, 17}";
type = Stem;
},
{
horizontal = 1;
place = "{444, -20}";
target = down;
type = TopGhost;
},
{
horizontal = 1;
place = "{596, 28}";
type = Stem;
},
{
horizontal = 1;
place = "{641, 27}";
type = Stem;
},
{
place = "{16, 17}";
type = Stem;
},
{
place = "{112, 17}";
type = Stem;
},
{
place = "{174, 34}";
type = Stem;
},
{
place = "{460, 22}";
type = Stem;
},
{
place = "{562, 17}";
type = Stem;
}
);
layerId = "245B06BA-2FC8-4E2B-85DB-2741CBBED619";
paths = (
{
closed = 1;
nodes = (
"586 611 OFFCURVE",
"587 616 OFFCURVE",
"586 621 CURVE SMOOTH",
"582 650 OFFCURVE",
"564 667 OFFCURVE",
"535 667 CURVE SMOOTH",
"408 666 OFFCURVE",
"391 489 OFFCURVE",
"358 399 CURVE SMOOTH",
"352 382 OFFCURVE",
"335 333 OFFCURVE",
"314 302 CURVE",
"305 324 OFFCURVE",
"291 347 OFFCURVE",
"267 347 CURVE SMOOTH",
"258 348 OFFCURVE",
"250 341 OFFCURVE",
"245 336 CURVE SMOOTH",
"235 325 OFFCURVE",
"218 298 OFFCURVE",
"218 284 CURVE SMOOTH",
"218 272 OFFCURVE",
"227 236 OFFCURVE",
"249 236 CURVE SMOOTH",
"261 236 OFFCURVE",
"266 239 OFFCURVE",
"281 239 CURVE SMOOTH",
"291 239 OFFCURVE",
"301 244 OFFCURVE",
"311 252 CURVE",
"318 217 OFFCURVE",
"322 178 OFFCURVE",
"329 150 CURVE SMOOTH",
"339 107 OFFCURVE",
"348 65 OFFCURVE",
"377 29 CURVE SMOOTH",
"402 -3 OFFCURVE",
"443 -44 OFFCURVE",
"487 -44 CURVE SMOOTH",
"513 -44 OFFCURVE",
"529 -32 OFFCURVE",
"542 -18 CURVE SMOOTH",
"553 -5 OFFCURVE",
"559 12 OFFCURVE",
"566 26 CURVE SMOOTH",
"575 43 OFFCURVE",
"577 56 OFFCURVE",
"577 75 CURVE SMOOTH",
"578 116 OFFCURVE",
"554 160 OFFCURVE",
"513 159 CURVE SMOOTH",
"477 159 OFFCURVE",
"458 133 OFFCURVE",
"458 102 CURVE SMOOTH",
"458 76 OFFCURVE",
"479 52 OFFCURVE",
"503 53 CURVE SMOOTH",
"521 53 OFFCURVE",
"534 76 OFFCURVE",
"537 85 CURVE SMOOTH",
"540 96 OFFCURVE",
"524 101 OFFCURVE",
"521 90 CURVE SMOOTH",
"519 84 OFFCURVE",
"512 72 OFFCURVE",
"502 72 CURVE SMOOTH",
"489 73 OFFCURVE",
"480 88 OFFCURVE",
"480 103 CURVE SMOOTH",
"480 122 OFFCURVE",
"491 139 OFFCURVE",
"513 139 CURVE SMOOTH",
"544 140 OFFCURVE",
"559 107 OFFCURVE",
"560 76 CURVE SMOOTH",
"560 59 OFFCURVE",
"552 49 OFFCURVE",
"545 36 CURVE SMOOTH",
"532 11 OFFCURVE",
"519 -10 OFFCURVE",
"488 -10 CURVE SMOOTH",
"453 -10 OFFCURVE",
"427 28 OFFCURVE",
"408 52 CURVE SMOOTH",
"382 85 OFFCURVE",
"363 118 OFFCURVE",
"354 156 CURVE SMOOTH",
"345 192 OFFCURVE",
"336 228 OFFCURVE",
"325 266 CURVE",
"342 285 OFFCURVE",
"357 309 OFFCURVE",
"364 323 CURVE SMOOTH",
"408 404 OFFCURVE",
"425 496 OFFCURVE",
"472 576 CURVE SMOOTH",
"488 602 OFFCURVE",
"500 641 OFFCURVE",
"534 640 CURVE SMOOTH",
"550 640 OFFCURVE",
"561 632 OFFCURVE",
"563 617 CURVE",
"564 615 OFFCURVE",
"567 609 OFFCURVE",
"567 607 CURVE SMOOTH",
"568 595 OFFCURVE",
"562 587 OFFCURVE",
"556 577 CURVE SMOOTH",
"550 567 OFFCURVE",
"565 558 OFFCURVE",
"571 568 CURVE SMOOTH",
"578 582 OFFCURVE",
"587 590 OFFCURVE",
"587 607 CURVE"
);
},
{
closed = 1;
nodes = (
"221 405 OFFCURVE",
"223 442 OFFCURVE",
"221 478 CURVE SMOOTH",
"219 531 OFFCURVE",
"202 624 OFFCURVE",
"131 624 CURVE SMOOTH",
"76 624 OFFCURVE",
"25 539 OFFCURVE",
"25 489 CURVE SMOOTH",
"25 469 OFFCURVE",
"38 446 OFFCURVE",
"50 433 CURVE SMOOTH",
"72 410 OFFCURVE",
"127 429 OFFCURVE",
"128 472 CURVE SMOOTH",
"128 485 OFFCURVE",
"124 494 OFFCURVE",
"118 505 CURVE",
"118 506 LINE",
"113 516 OFFCURVE",
"98 508 OFFCURVE",
"103 498 CURVE SMOOTH",
"107 490 OFFCURVE",
"112 482 OFFCURVE",
"112 472 CURVE SMOOTH",
"111 447 OFFCURVE",
"79 436 OFFCURVE",
"66 450 CURVE SMOOTH",
"58 459 OFFCURVE",
"47 475 OFFCURVE",
"47 489 CURVE SMOOTH",
"47 529 OFFCURVE",
"88 596 OFFCURVE",
"130 596 CURVE SMOOTH",
"147 596 OFFCURVE",
"152 573 OFFCURVE",
"158 563 CURVE SMOOTH",
"188 511 OFFCURVE",
"179 428 OFFCURVE",
"179 370 CURVE SMOOTH",
"179 306 OFFCURVE",
"177 268 OFFCURVE",
"173 205 CURVE SMOOTH",
"171 167 OFFCURVE",
"153 -38 OFFCURVE",
"88 -38 CURVE SMOOTH",
"53 -38 OFFCURVE",
"31 18 OFFCURVE",
"32 47 CURVE SMOOTH",
"32 74 OFFCURVE",
"44 107 OFFCURVE",
"65 114 CURVE SMOOTH",
"70 116 OFFCURVE",
"73 114 OFFCURVE",
"79 114 CURVE SMOOTH",
"104 113 OFFCURVE",
"103 81 OFFCURVE",
"94 63 CURVE SMOOTH",
"89 54 OFFCURVE",
"104 46 OFFCURVE",
"109 56 CURVE SMOOTH",
"124 85 OFFCURVE",
"119 135 OFFCURVE",
"78 135 CURVE SMOOTH",
"35 134 OFFCURVE",
"14 83 OFFCURVE",
"15 46 CURVE SMOOTH",
"16 9 OFFCURVE",
"44 -62 OFFCURVE",
"89 -62 CURVE SMOOTH",
"168 -62 OFFCURVE",
"204 153 OFFCURVE",
"207 203 CURVE SMOOTH",
"211 266 OFFCURVE",
"221 304 OFFCURVE",
"221 370 CURVE SMOOTH"
);
},
{
closed = 1;
nodes = (
"303 286 LINE",
"296 279 OFFCURVE",
"289 275 OFFCURVE",
"282 275 CURVE SMOOTH",
"267 275 OFFCURVE",
"262 274 OFFCURVE",
"250 274 CURVE SMOOTH",
"246 274 OFFCURVE",
"249 282 OFFCURVE",
"249 284 CURVE SMOOTH",
"249 293 OFFCURVE",
"245 302 OFFCURVE",
"249 311 CURVE SMOOTH",
"252 316 OFFCURVE",
"262 330 OFFCURVE",
"268 330 CURVE SMOOTH",
"276 331 OFFCURVE",
"284 325 OFFCURVE",
"291 313 CURVE SMOOTH",
"295 305 OFFCURVE",
"299 296 OFFCURVE",
"302 286 CURVE"
);
}
);
width = 576;
}
);
note = K;
unicode = 004B;
},
{
glyphname = L;
layers = (
{
hints = (
{
horizontal = 1;
place = "{-39, 34}";
type = Stem;
},
{
horizontal = 1;
place = "{78, 25}";
type = Stem;
},
{
horizontal = 1;
place = "{136, 25}";
type = Stem;
},
{
horizontal = 1;
place = "{252, 24}";
type = Stem;
},
{
horizontal = 1;
place = "{628, 48}";
type = Stem;
},
{
place = "{12, 24}";
type = Stem;
},
{
place = "{229, 34}";
type = Stem;
},
{
place = "{334, 25}";
type = Stem;
},
{
place = "{366, 36}";
type = Stem;
},
{
place = "{448, 21}";
type = Stem;
},
{
place = "{516, 41}";
type = Stem;
}
);
layerId = "245B06BA-2FC8-4E2B-85DB-2741CBBED619";
paths = (
{
closed = 1;
nodes = (
"557 169 OFFCURVE",
"526 239 OFFCURVE",
"482 264 CURVE SMOOTH",
"462 276 OFFCURVE",
"444 276 OFFCURVE",
"424 276 CURVE SMOOTH",
"366 276 OFFCURVE",
"332 210 OFFCURVE",
"333 159 CURVE SMOOTH",
"333 128 OFFCURVE",
"360 77 OFFCURVE",
"401 77 CURVE SMOOTH",
"446 78 OFFCURVE",
"467 111 OFFCURVE",
"468 153 CURVE SMOOTH",
"468 166 OFFCURVE",
"448 166 OFFCURVE",
"448 152 CURVE SMOOTH",
"447 124 OFFCURVE",
"431 104 OFFCURVE",
"399 103 CURVE SMOOTH",
"381 103 OFFCURVE",
"359 133 OFFCURVE",
"359 158 CURVE SMOOTH",
"358 198 OFFCURVE",
"379 252 OFFCURVE",
"423 252 CURVE SMOOTH",
"444 252 OFFCURVE",
"456 251 OFFCURVE",
"470 243 CURVE SMOOTH",
"506 223 OFFCURVE",
"515 159 OFFCURVE",
"515 114 CURVE SMOOTH",
"516 57 OFFCURVE",
"468 -8 OFFCURVE",
"408 -8 CURVE SMOOTH",
"367 -8 OFFCURVE",
"338 7 OFFCURVE",
"312 28 CURVE SMOOTH",
"288 46 OFFCURVE",
"266 67 OFFCURVE",
"242 85 CURVE",
"255 117 OFFCURVE",
"263 151 OFFCURVE",
"263 188 CURVE SMOOTH",
"263 243 OFFCURVE",
"258 258 OFFCURVE",
"250 313 CURVE",
"352 322 OFFCURVE",
"402 436 OFFCURVE",
"402 527 CURVE SMOOTH",
"402 568 OFFCURVE",
"401 625 OFFCURVE",
"368 653 CURVE SMOOTH",
"354 664 OFFCURVE",
"328 676 OFFCURVE",
"313 676 CURVE SMOOTH",
"294 676 OFFCURVE",
"268 652 OFFCURVE",
"256 636 CURVE SMOOTH",
"197 555 OFFCURVE",
"202 446 OFFCURVE",
"215 339 CURVE",
"184 349 OFFCURVE",
"165 374 OFFCURVE",
"146 399 CURVE",
"147 399 LINE",
"140 408 OFFCURVE",
"126 398 OFFCURVE",
"133 389 CURVE SMOOTH",
"144 375 OFFCURVE",
"152 358 OFFCURVE",
"164 345 CURVE SMOOTH",
"177 330 OFFCURVE",
"196 319 OFFCURVE",
"217 314 CURVE",
"224 256 OFFCURVE",
"229 239 OFFCURVE",
"229 188 CURVE SMOOTH",
"229 162 OFFCURVE",
"223 133 OFFCURVE",
"213 105 CURVE",
"180 125 OFFCURVE",
"133 160 OFFCURVE",
"96 160 CURVE SMOOTH",
"56 161 OFFCURVE",
"12 115 OFFCURVE",
"12 74 CURVE SMOOTH",
"12 11 OFFCURVE",
"81 -39 OFFCURVE",
"141 -39 CURVE SMOOTH",
"167 -39 OFFCURVE",
"180 -24 OFFCURVE",
"192 -5 CURVE SMOOTH",
"203 13 OFFCURVE",
"214 31 OFFCURVE",
"224 49 CURVE",
"280 5 OFFCURVE",
"319 -52 OFFCURVE",
"406 -52 CURVE SMOOTH",
"424 -52 OFFCURVE",
"443 -48 OFFCURVE",
"451 -45 CURVE SMOOTH",
"513 -24 OFFCURVE",
"558 51 OFFCURVE",
"557 114 CURVE SMOOTH"
);
},
{
closed = 1;
nodes = (
"366 469 OFFCURVE",
"351 410 OFFCURVE",
"314 370 CURVE SMOOTH",
"298 353 OFFCURVE",
"271 340 OFFCURVE",
"248 337 CURVE",
"241 390 OFFCURVE",
"236 444 OFFCURVE",
"243 498 CURVE SMOOTH",
"249 544 OFFCURVE",
"263 574 OFFCURVE",
"291 611 CURVE SMOOTH",
"296 618 OFFCURVE",
"306 628 OFFCURVE",
"313 628 CURVE SMOOTH",
"320 628 OFFCURVE",
"330 620 OFFCURVE",
"336 615 CURVE SMOOTH",
"360 595 OFFCURVE",
"366 556 OFFCURVE",
"366 527 CURVE SMOOTH"
);
},
{
closed = 1;
nodes = (
"197 69 LINE",
"190 54 OFFCURVE",
"182 41 OFFCURVE",
"174 30 CURVE SMOOTH",
"167 19 OFFCURVE",
"156 -5 OFFCURVE",
"141 -5 CURVE SMOOTH",
"95 -5 OFFCURVE",
"36 25 OFFCURVE",
"36 74 CURVE SMOOTH",
"36 110 OFFCURVE",
"60 134 OFFCURVE",
"97 135 CURVE SMOOTH",
"121 135 OFFCURVE",
"174 83 OFFCURVE",
"196 69 CURVE"
);
}
);
width = 574;
}
);
note = L;
unicode = 004C;
},
{
glyphname = M;
layers = (
{
hints = (
{
horizontal = 1;
place = "{-91, 31}";
type = Stem;
},
{
horizontal = 1;
place = "{-40, 25}";
type = Stem;
},
{
horizontal = 1;
place = "{58, 17}";
type = Stem;
},
{
horizontal = 1;
place = "{141, 24}";
type = Stem;
},
{
horizontal = 1;
place = "{174, 24}";
type = Stem;
},
{
horizontal = 1;
place = "{590, 30}";
type = Stem;
},
{
place = "{3, 27}";
type = Stem;
},
{
place = "{74, 17}";
type = Stem;
},
{
place = "{158, 17}";
type = Stem;
},
{
place = "{188, 26}";
type = Stem;
},
{
place = "{265, 52}";
type = Stem;
},
{
place = "{562, 34}";
type = Stem;
},
{
place = "{692, 17}";
type = Stem;
}
);
layerId = "245B06BA-2FC8-4E2B-85DB-2741CBBED619";
paths = (
{
closed = 1;
nodes = (
"709 83 OFFCURVE",
"702 116 OFFCURVE",
"689 137 CURVE SMOOTH",
"682 148 OFFCURVE",
"666 164 OFFCURVE",
"651 164 CURVE SMOOTH",
"625 165 OFFCURVE",
"610 142 OFFCURVE",
"608 123 CURVE SMOOTH",
"606 110 OFFCURVE",
"624 108 OFFCURVE",
"625 119 CURVE SMOOTH",
"627 130 OFFCURVE",
"637 140 OFFCURVE",
"651 140 CURVE",
"657 141 OFFCURVE",
"684 107 OFFCURVE",
"687 98 CURVE SMOOTH",
"689 92 OFFCURVE",
"693 63 OFFCURVE",
"693 60 CURVE SMOOTH",
"692 40 OFFCURVE",
"688 27 OFFCURVE",
"676 14 CURVE SMOOTH",
"669 6 OFFCURVE",
"636 -15 OFFCURVE",
"622 -15 CURVE SMOOTH",
"618 -15 OFFCURVE",
"615 -13 OFFCURVE",
"612 -11 CURVE SMOOTH",
"584 5 OFFCURVE",
"568 52 OFFCURVE",
"558 81 CURVE SMOOTH",
"543 127 OFFCURVE",
"542 172 OFFCURVE",
"535 227 CURVE SMOOTH",
"532 249 OFFCURVE",
"527 267 OFFCURVE",
"522 286 CURVE",
"565 370 OFFCURVE",
"596 456 OFFCURVE",
"596 560 CURVE SMOOTH",
"596 584 OFFCURVE",
"593 618 OFFCURVE",
"561 619 CURVE SMOOTH",
"534 619 OFFCURVE",
"519 598 OFFCURVE",
"511 580 CURVE SMOOTH",
"499 555 OFFCURVE",
"476 461 OFFCURVE",
"473 436 CURVE SMOOTH",
"469 405 OFFCURVE",
"465 374 OFFCURVE",
"467 341 CURVE SMOOTH",
"469 319 OFFCURVE",
"471 301 OFFCURVE",
"474 283 CURVE",
"456 253 OFFCURVE",
"436 222 OFFCURVE",
"417 188 CURVE SMOOTH",
"407 171 OFFCURVE",
"397 157 OFFCURVE",
"387 143 CURVE",
"384 137 OFFCURVE",
"380 132 OFFCURVE",
"376 126 CURVE",
"374 141 OFFCURVE",
"370 155 OFFCURVE",
"367 169 CURVE SMOOTH",
"355 231 OFFCURVE",
"328 288 OFFCURVE",
"305 347 CURVE",
"313 394 OFFCURVE",
"320 440 OFFCURVE",
"317 489 CURVE SMOOTH",
"314 529 OFFCURVE",
"296 629 OFFCURVE",
"239 629 CURVE SMOOTH",
"213 629 OFFCURVE",
"188 566 OFFCURVE",
"188 545 CURVE SMOOTH",
"188 478 OFFCURVE",
"227 422 OFFCURVE",
"255 363 CURVE",
"250 338 OFFCURVE",
"244 312 OFFCURVE",
"239 285 CURVE SMOOTH",
"226 207 OFFCURVE",
"206 81 OFFCURVE",
"169 14 CURVE SMOOTH",
"152 -17 OFFCURVE",
"134 -60 OFFCURVE",
"92 -60 CURVE SMOOTH",
"45 -60 OFFCURVE",
"30 -25 OFFCURVE",
"30 27 CURVE SMOOTH",
"30 80 OFFCURVE",
"45 124 OFFCURVE",
"78 161 CURVE SMOOTH",
"86 169 OFFCURVE",
"89 174 OFFCURVE",
"102 174 CURVE SMOOTH",
"124 174 OFFCURVE",
"158 157 OFFCURVE",
"158 132 CURVE SMOOTH",
"158 106 OFFCURVE",
"133 75 OFFCURVE",
"112 75 CURVE SMOOTH",
"99 75 OFFCURVE",
"91 80 OFFCURVE",
"91 90 CURVE SMOOTH",
"91 100 OFFCURVE",
"103 112 OFFCURVE",
"114 114 CURVE SMOOTH",
"125 115 OFFCURVE",
"123 132 OFFCURVE",
"112 130 CURVE SMOOTH",
"94 128 OFFCURVE",
"74 110 OFFCURVE",
"74 90 CURVE SMOOTH",
"74 65 OFFCURVE",
"96 58 OFFCURVE",
"112 58 CURVE SMOOTH",
"146 58 OFFCURVE",
"175 101 OFFCURVE",
"175 133 CURVE SMOOTH",
"175 154 OFFCURVE",
"156 183 OFFCURVE",
"142 189 CURVE SMOOTH",
"130 195 OFFCURVE",
"116 198 OFFCURVE",
"101 198 CURVE SMOOTH",
"85 198 OFFCURVE",
"77 195 OFFCURVE",
"67 185 CURVE SMOOTH",
"24 142 OFFCURVE",
"3 87 OFFCURVE",
"3 27 CURVE SMOOTH",
"3 -43 OFFCURVE",
"28 -88 OFFCURVE",
"90 -89 CURVE",
"90 -88 LINE",
"94 -90 OFFCURVE",
"99 -91 OFFCURVE",
"103 -91 CURVE SMOOTH",
"134 -91 OFFCURVE",
"185 -31 OFFCURVE",
"199 -5 CURVE SMOOTH",
"239 68 OFFCURVE",
"275 191 OFFCURVE",
"290 273 CURVE",
"303 237 OFFCURVE",
"315 199 OFFCURVE",
"323 160 CURVE SMOOTH",
"328 134 OFFCURVE",
"342 109 OFFCURVE",
"343 82 CURVE",
"347 67 LINE",
"335 39 OFFCURVE",
"329 9 OFFCURVE",
"334 -18 CURVE SMOOTH",
"336 -30 OFFCURVE",
"359 -36 OFFCURVE",
"367 -27 CURVE SMOOTH",
"385 -8 OFFCURVE",
"386 21 OFFCURVE",
"385 48 CURVE",
"402 91 OFFCURVE",
"433 126 OFFCURVE",
"456 166 CURVE SMOOTH",
"466 182 OFFCURVE",
"475 198 OFFCURVE",
"484 214 CURVE",
"491 159 OFFCURVE",
"505 116 OFFCURVE",
"521 68 CURVE SMOOTH",
"530 40 OFFCURVE",
"576 -40 OFFCURVE",
"621 -40 CURVE SMOOTH",
"640 -40 OFFCURVE",
"679 -8 OFFCURVE",
"689 3 CURVE SMOOTH",
"705 20 OFFCURVE",
"710 37 OFFCURVE",
"710 60 CURVE SMOOTH"
);
},
{
closed = 1;
nodes = (
"563 590 OFFCURVE",
"561 587 OFFCURVE",
"561 585 CURVE",
"563 577 OFFCURVE",
"561 569 OFFCURVE",
"561 561 CURVE SMOOTH",
"562 549 OFFCURVE",
"560 549 OFFCURVE",
"559 536 CURVE SMOOTH",
"553 464 OFFCURVE",
"536 408 OFFCURVE",
"512 355 CURVE",
"511 355 LINE",
"509 381 OFFCURVE",
"508 406 OFFCURVE",
"512 431 CURVE SMOOTH",
"515 451 OFFCURVE",
"525 590 OFFCURVE",
"562 590 CURVE SMOOTH"
);
},
{
closed = 1;
nodes = (
"267 463 OFFCURVE",
"266 442 OFFCURVE",
"264 423 CURVE",
"239 462 OFFCURVE",
"215 503 OFFCURVE",
"215 545 CURVE SMOOTH",
"215 556 OFFCURVE",
"226 593 OFFCURVE",
"240 593 CURVE SMOOTH",
"265 593 OFFCURVE",
"265 499 OFFCURVE",
"266 486 CURVE SMOOTH"
);
}
);
width = 704;
}
);
note = M;
unicode = 004D;
},
{
glyphname = N;
layers = (
{
hints = (
{
horizontal = 1;
place = "{-79, 32}";
type = Stem;
},
{
horizontal = 1;
place = "{179, 27}";
type = Stem;
},
{
horizontal = 1;
place = "{343, -20}";
target = down;
type = TopGhost;
},
{
horizontal = 1;
place = "{434, 17}";
type = Stem;
},
{
horizontal = 1;
place = "{599, 27}";
type = Stem;
},
{
place = "{0, 29}";
type = Stem;
},
{
place = "{147, 17}";
type = Stem;
},
{
place = "{196, 45}";
type = Stem;
},
{
place = "{429, 40}";
type = Stem;
},
{
place = "{526, 22}";
type = Stem;
},
{
place = "{591, 28}";
type = Stem;
}
);
layerId = "245B06BA-2FC8-4E2B-85DB-2741CBBED619";
paths = (
{
closed = 1;
nodes = (
"619 126 OFFCURVE",
"610 208 OFFCURVE",
"562 207 CURVE SMOOTH",
"538 207 OFFCURVE",
"528 187 OFFCURVE",
"520 169 CURVE SMOOTH",
"512 152 OFFCURVE",
"505 141 OFFCURVE",
"505 121 CURVE SMOOTH",
"505 104 OFFCURVE",
"525 63 OFFCURVE",
"547 63 CURVE SMOOTH",
"571 62 OFFCURVE",
"568 101 OFFCURVE",
"552 85 CURVE SMOOTH",
"547 79 LINE",
"532 79 OFFCURVE",
"526 110 OFFCURVE",
"526 121 CURVE SMOOTH",
"527 128 OFFCURVE",
"528 134 OFFCURVE",
"530 140 CURVE SMOOTH",
"535 153 OFFCURVE",
"544 179 OFFCURVE",
"561 179 CURVE SMOOTH",
"596 179 OFFCURVE",
"592 116 OFFCURVE",
"592 92 CURVE SMOOTH",
"592 41 OFFCURVE",
"572 -49 OFFCURVE",
"512 -48 CURVE SMOOTH",
"465 -48 OFFCURVE",
"469 105 OFFCURVE",
"469 126 CURVE SMOOTH",
"470 207 OFFCURVE",
"480 284 OFFCURVE",
"505 356 CURVE SMOOTH",
"525 414 OFFCURVE",
"547 452 OFFCURVE",
"548 516 CURVE SMOOTH",
"548 561 OFFCURVE",
"527 626 OFFCURVE",
"472 626 CURVE SMOOTH",
"391 626 OFFCURVE",
"335 549 OFFCURVE",
"293 489 CURVE SMOOTH",
"276 464 OFFCURVE",
"258 438 OFFCURVE",
"241 411 CURVE",
"240 422 OFFCURVE",
"238 433 OFFCURVE",
"238 444 CURVE SMOOTH",
"235 502 OFFCURVE",
"208 634 OFFCURVE",
"128 635 CURVE SMOOTH",
"61 635 OFFCURVE",
"5 558 OFFCURVE",
"1 477 CURVE SMOOTH",
"-2 402 OFFCURVE",
"17 373 OFFCURVE",
"40 342 CURVE SMOOTH",
"50 328 OFFCURVE",
"69 323 OFFCURVE",
"90 323 CURVE SMOOTH",
"132 323 OFFCURVE",
"164 358 OFFCURVE",
"164 400 CURVE SMOOTH",
"164 431 OFFCURVE",
"138 462 OFFCURVE",
"100 447 CURVE SMOOTH",
"90 442 OFFCURVE",
"96 425 OFFCURVE",
"107 430 CURVE SMOOTH",
"129 439 OFFCURVE",
"147 423 OFFCURVE",
"147 400 CURVE SMOOTH",
"147 368 OFFCURVE",
"121 343 OFFCURVE",
"89 343 CURVE SMOOTH",
"76 343 OFFCURVE",
"65 348 OFFCURVE",
"59 356 CURVE SMOOTH",
"38 384 OFFCURVE",
"30 439 OFFCURVE",
"30 477 CURVE SMOOTH",
"30 528 OFFCURVE",
"72 610 OFFCURVE",
"127 610 CURVE SMOOTH",
"214 610 OFFCURVE",
"195 395 OFFCURVE",
"193 327 CURVE",
"194 327 LINE",
"177 295 OFFCURVE",
"163 263 OFFCURVE",
"151 230 CURVE SMOOTH",
"125 156 OFFCURVE",
"103 132 OFFCURVE",
"112 51 CURVE SMOOTH",
"114 30 LINE SMOOTH",
"120 -4 OFFCURVE",
"138 -45 OFFCURVE",
"184 -20 CURVE SMOOTH",
"212 -5 OFFCURVE",
"224 29 OFFCURVE",
"230 54 CURVE SMOOTH",
"251 142 OFFCURVE",
"245 231 OFFCURVE",
"245 319 CURVE SMOOTH",
"245 332 LINE",
"271 378 OFFCURVE",
"300 422 OFFCURVE",
"329 464 CURVE SMOOTH",
"363 511 OFFCURVE",
"404 599 OFFCURVE",
"472 599 CURVE SMOOTH",
"481 599 OFFCURVE",
"488 597 OFFCURVE",
"496 593 CURVE SMOOTH",
"516 583 OFFCURVE",
"527 537 OFFCURVE",
"527 515 CURVE SMOOTH",
"527 458 OFFCURVE",
"497 417 OFFCURVE",
"479 365 CURVE SMOOTH",
"452 290 OFFCURVE",
"430 211 OFFCURVE",
"430 126 CURVE SMOOTH",
"430 80 OFFCURVE",
"437 -79 OFFCURVE",
"512 -79 CURVE SMOOTH",
"587 -79 OFFCURVE",
"618 28 OFFCURVE",
"619 92 CURVE SMOOTH"
);
},
{
closed = 1;
nodes = (
"193 221 LINE",
"192 145 OFFCURVE",
"186 51 OFFCURVE",
"162 28 CURVE",
"161 28 LINE",
"134 92 OFFCURVE",
"170 153 OFFCURVE",
"191 215 CURVE SMOOTH"
);
}
);
width = 634;
}
);
note = N;
unicode = 004E;
},
{
glyphname = O;
layers = (
{
hints = (
{
horizontal = 1;
place = "{-11, 46}";
type = Stem;
},
{
horizontal = 1;
place = "{269, 30}";
type = Stem;
},
{
horizontal = 1;
place = "{397, 25}";
type = Stem;
},
{
horizontal = 1;
place = "{469, 30}";
type = Stem;
},
{
horizontal = 1;
place = "{577, 30}";
type = Stem;
},
{
place = "{11, 45}";
type = Stem;
},
{
place = "{192, 28}";
type = Stem;
},
{
place = "{352, 28}";
type = Stem;
},
{
place = "{507, 38}";
type = Stem;
}
);
layerId = "245B06BA-2FC8-4E2B-85DB-2741CBBED619";
paths = (
{
closed = 1;
nodes = (
"544 337 OFFCURVE",
"524 374 OFFCURVE",
"502 414 CURVE SMOOTH",
"470 471 OFFCURVE",
"406 499 OFFCURVE",
"340 499 CURVE SMOOTH",
"300 499 OFFCURVE",
"249 466 OFFCURVE",
"225 436 CURVE SMOOTH",
"205 412 OFFCURVE",
"191 376 OFFCURVE",
"191 342 CURVE SMOOTH",
"191 294 OFFCURVE",
"228 269 OFFCURVE",
"273 269 CURVE SMOOTH",
"320 269 OFFCURVE",
"379 320 OFFCURVE",
"379 370 CURVE SMOOTH",
"379 394 OFFCURVE",
"349 424 OFFCURVE",
"325 423 CURVE SMOOTH",
"303 423 OFFCURVE",
"267 387 OFFCURVE",
"261 370 CURVE SMOOTH",
"248 334 OFFCURVE",
"294 324 OFFCURVE",
"277 354 CURVE SMOOTH",
"268 370 OFFCURVE",
"313 397 OFFCURVE",
"325 397 CURVE SMOOTH",
"337 397 OFFCURVE",
"351 382 OFFCURVE",
"351 370 CURVE SMOOTH",
"351 334 OFFCURVE",
"307 299 OFFCURVE",
"273 299 CURVE SMOOTH",
"245 299 OFFCURVE",
"220 312 OFFCURVE",
"220 342 CURVE SMOOTH",
"219 406 OFFCURVE",
"256 436 OFFCURVE",
"308 464 CURVE SMOOTH",
"318 470 OFFCURVE",
"327 469 OFFCURVE",
"339 469 CURVE SMOOTH",
"394 469 OFFCURVE",
"445 443 OFFCURVE",
"471 397 CURVE SMOOTH",
"491 363 OFFCURVE",
"506 330 OFFCURVE",
"506 285 CURVE SMOOTH",
"506 220 OFFCURVE",
"488 167 OFFCURVE",
"452 115 CURVE SMOOTH",
"420 68 OFFCURVE",
"341 34 OFFCURVE",
"283 34 CURVE SMOOTH",
"172 35 OFFCURVE",
"98 105 OFFCURVE",
"68 203 CURVE SMOOTH",
"61 227 OFFCURVE",
"54 247 OFFCURVE",
"55 276 CURVE SMOOTH",
"55 299 OFFCURVE",
"58 318 OFFCURVE",
"64 338 CURVE SMOOTH",
"97 454 OFFCURVE",
"119 510 OFFCURVE",
"227 566 CURVE SMOOTH",
"248 577 OFFCURVE",
"264 577 OFFCURVE",
"288 577 CURVE SMOOTH",
"348 577 OFFCURVE",
"402 548 OFFCURVE",
"446 509 CURVE",
"447 509 LINE",
"456 500 OFFCURVE",
"469 514 OFFCURVE",
"460 522 CURVE SMOOTH",
"442 538 OFFCURVE",
"431 561 OFFCURVE",
"411 574 CURVE SMOOTH",
"376 596 OFFCURVE",
"333 607 OFFCURVE",
"288 607 CURVE SMOOTH",
"259 607 OFFCURVE",
"241 603 OFFCURVE",
"216 590 CURVE SMOOTH",
"183 573 OFFCURVE",
"150 557 OFFCURVE",
"122 532 CURVE SMOOTH",
"67 482 OFFCURVE",
"11 355 OFFCURVE",
"11 276 CURVE SMOOTH",
"11 123 OFFCURVE",
"115 -11 OFFCURVE",
"284 -11 CURVE SMOOTH",
"353 -11 OFFCURVE",
"446 35 OFFCURVE",
"485 92 CURVE SMOOTH",
"526 150 OFFCURVE",
"544 211 OFFCURVE",
"544 284 CURVE SMOOTH"
);
}
);
width = 576;
}
);
note = O;
unicode = 004F;
},
{
glyphname = P;
layers = (
{
hints = (
{
horizontal = 1;
place = "{-60, 40}";
type = Stem;
},
{
horizontal = 1;
place = "{186, 17}";
type = Stem;
},
{
horizontal = 1;
place = "{319, 17}";
type = Stem;
},
{
horizontal = 1;
place = "{622, 36}";
type = Stem;
},
{
place = "{31, 19}";
type = Stem;
},
{
place = "{130, 17}";
type = Stem;
},
{
place = "{149, 52}";
type = Stem;
},
{
place = "{228, 17}";
type = Stem;
},
{
place = "{471, 52}";
type = Stem;
}
);
layerId = "245B06BA-2FC8-4E2B-85DB-2741CBBED619";
paths = (
{
closed = 1;
nodes = (
"522 517 OFFCURVE",
"482 583 OFFCURVE",
"415 626 CURVE SMOOTH",
"383 646 OFFCURVE",
"349 658 OFFCURVE",
"311 658 CURVE SMOOTH",
"200 658 OFFCURVE",
"20 517 OFFCURVE",
"33 392 CURVE",
"35 385 OFFCURVE",
"39 379 OFFCURVE",
"47 377 CURVE SMOOTH",
"70 372 OFFCURVE",
"93 391 OFFCURVE",
"104 415 CURVE SMOOTH",
"109 425 OFFCURVE",
"94 432 OFFCURVE",
"89 422 CURVE SMOOTH",
"82 409 OFFCURVE",
"69 400 OFFCURVE",
"56 402 CURVE",
"55 409 OFFCURVE",
"50 423 OFFCURVE",
"52 430 CURVE SMOOTH",
"63 472 OFFCURVE",
"93 513 OFFCURVE",
"132 546 CURVE",
"131 533 OFFCURVE",
"130 520 OFFCURVE",
"130 506 CURVE SMOOTH",
"129 454 OFFCURVE",
"127 408 OFFCURVE",
"136 364 CURVE SMOOTH",
"150 292 OFFCURVE",
"149 216 OFFCURVE",
"149 143 CURVE",
"142 101 OFFCURVE",
"138 59 OFFCURVE",
"123 19 CURVE",
"121 16 OFFCURVE",
"121 11 OFFCURVE",
"119 6 CURVE SMOOTH",
"118 2 OFFCURVE",
"112 -20 OFFCURVE",
"110 -20 CURVE SMOOTH",
"68 -20 OFFCURVE",
"48 69 OFFCURVE",
"49 101 CURVE SMOOTH",
"49 130 OFFCURVE",
"55 184 OFFCURVE",
"82 185 CURVE SMOOTH",
"94 185 OFFCURVE",
"96 160 OFFCURVE",
"98 151 CURVE SMOOTH",
"100 139 OFFCURVE",
"117 142 OFFCURVE",
"115 153 CURVE SMOOTH",
"111 173 OFFCURVE",
"108 203 OFFCURVE",
"81 203 CURVE SMOOTH",
"48 202 OFFCURVE",
"32 137 OFFCURVE",
"31 100 CURVE SMOOTH",
"31 77 OFFCURVE",
"31 62 OFFCURVE",
"37 39 CURVE SMOOTH",
"45 12 OFFCURVE",
"67 -60 OFFCURVE",
"110 -60 CURVE SMOOTH",
"140 -60 OFFCURVE",
"160 -24 OFFCURVE",
"169 1 CURVE SMOOTH",
"186 45 OFFCURVE",
"200 90 OFFCURVE",
"200 136 CURVE SMOOTH",
"200 140 LINE SMOOTH",
"200 176 OFFCURVE",
"202 196 OFFCURVE",
"200 233 CURVE SMOOTH",
"197 283 OFFCURVE",
"179 325 OFFCURVE",
"171 370 CURVE SMOOTH",
"163 413 OFFCURVE",
"148 455 OFFCURVE",
"147 505 CURVE SMOOTH",
"147 525 OFFCURVE",
"148 543 OFFCURVE",
"152 561 CURVE",
"202 598 OFFCURVE",
"261 622 OFFCURVE",
"311 622 CURVE SMOOTH",
"343 622 OFFCURVE",
"364 602 OFFCURVE",
"389 586 CURVE SMOOTH",
"442 552 OFFCURVE",
"470 499 OFFCURVE",
"470 436 CURVE SMOOTH",
"470 354 OFFCURVE",
"416 225 OFFCURVE",
"328 225 CURVE SMOOTH",
"323 225 OFFCURVE",
"318 222 OFFCURVE",
"313 221 CURVE",
"275 221 OFFCURVE",
"246 245 OFFCURVE",
"245 284 CURVE SMOOTH",
"245 302 OFFCURVE",
"265 321 OFFCURVE",
"284 319 CURVE SMOOTH",
"297 319 OFFCURVE",
"298 336 OFFCURVE",
"287 337 CURVE SMOOTH",
"258 339 OFFCURVE",
"226 312 OFFCURVE",
"227 284 CURVE SMOOTH",
"227 271 OFFCURVE",
"233 261 OFFCURVE",
"236 249 CURVE SMOOTH",
"244 218 OFFCURVE",
"285 183 OFFCURVE",
"315 183 CURVE SMOOTH",
"328 183 LINE SMOOTH",
"438 183 OFFCURVE",
"522 334 OFFCURVE",
"522 436 CURVE SMOOTH"
);
}
);
width = 538;
}
);
note = P;
unicode = 0050;
},
{
glyphname = Q;
layers = (
{
hints = (
{
horizontal = 1;
place = "{-284, 52}";
type = Stem;
},
{
horizontal = 1;
place = "{-57, 25}";
type = Stem;
},
{
horizontal = 1;
place = "{119, 17}";
type = Stem;
},
{
horizontal = 1;
place = "{398, 24}";
type = Stem;
},
{
horizontal = 1;
place = "{434, 17}";
type = Stem;
},
{
horizontal = 1;
place = "{508, 25}";
type = Stem;
},
{
horizontal = 1;
place = "{586, 25}";
type = Stem;
},
{
place = "{2, 52}";
type = Stem;
},
{
place = "{131, 17}";
type = Stem;
},
{
place = "{249, 22}";
type = Stem;
},
{
place = "{318, 17}";
type = Stem;
},
{
place = "{410, 24}";
type = Stem;
},
{
place = "{527, 32}";
type = Stem;
}
);
layerId = "245B06BA-2FC8-4E2B-85DB-2741CBBED619";
paths = (
{
closed = 1;
nodes = (
"559 -104 OFFCURVE",
"521 -32 OFFCURVE",
"463 -32 CURVE SMOOTH",
"431 -32 OFFCURVE",
"408 -78 OFFCURVE",
"409 -102 CURVE SMOOTH",
"410 -132 OFFCURVE",
"444 -145 OFFCURVE",
"430 -111 CURVE SMOOTH",
"423 -93 OFFCURVE",
"443 -57 OFFCURVE",
"463 -57 CURVE SMOOTH",
"507 -57 OFFCURVE",
"527 -117 OFFCURVE",
"527 -158 CURVE SMOOTH",
"527 -181 OFFCURVE",
"516 -192 OFFCURVE",
"503 -211 CURVE SMOOTH",
"491 -229 OFFCURVE",
"469 -232 OFFCURVE",
"447 -232 CURVE SMOOTH",
"346 -232 OFFCURVE",
"330 -100 OFFCURVE",
"323 -16 CURVE",
"450 1 OFFCURVE",
"527 126 OFFCURVE",
"527 252 CURVE SMOOTH",
"527 330 OFFCURVE",
"476 418 OFFCURVE",
"403 444 CURVE",
"412 460 OFFCURVE",
"416 479 OFFCURVE",
"416 497 CURVE SMOOTH",
"416 570 OFFCURVE",
"359 610 OFFCURVE",
"289 610 CURVE SMOOTH",
"123 611 OFFCURVE",
"2 402 OFFCURVE",
"2 256 CURVE SMOOTH",
"2 166 OFFCURVE",
"39 93 OFFCURVE",
"102 40 CURVE SMOOTH",
"148 1 OFFCURVE",
"209 -15 OFFCURVE",
"273 -18 CURVE",
"277 -74 OFFCURVE",
"284 -132 OFFCURVE",
"305 -184 CURVE SMOOTH",
"329 -244 OFFCURVE",
"385 -284 OFFCURVE",
"447 -284 CURVE SMOOTH",
"484 -284 OFFCURVE",
"514 -264 OFFCURVE",
"535 -234 CURVE SMOOTH",
"553 -208 OFFCURVE",
"559 -189 OFFCURVE",
"559 -158 CURVE SMOOTH"
);
},
{
closed = 1;
nodes = (
"481 150 OFFCURVE",
"421 47 OFFCURVE",
"319 32 CURVE",
"317 48 OFFCURVE",
"314 66 OFFCURVE",
"313 84 CURVE SMOOTH",
"311 111 OFFCURVE",
"304 139 OFFCURVE",
"298 165 CURVE SMOOTH",
"286 221 OFFCURVE",
"254 260 OFFCURVE",
"195 260 CURVE SMOOTH",
"163 260 OFFCURVE",
"131 218 OFFCURVE",
"131 188 CURVE SMOOTH",
"131 161 OFFCURVE",
"133 119 OFFCURVE",
"171 119 CURVE SMOOTH",
"203 119 OFFCURVE",
"211 158 OFFCURVE",
"206 181 CURVE",
"205 181 LINE",
"203 192 OFFCURVE",
"185 188 OFFCURVE",
"188 177 CURVE SMOOTH",
"193 155 OFFCURVE",
"184 136 OFFCURVE",
"171 136 CURVE SMOOTH",
"146 136 OFFCURVE",
"148 172 OFFCURVE",
"148 188 CURVE SMOOTH",
"148 211 OFFCURVE",
"176 243 OFFCURVE",
"195 243 CURVE SMOOTH",
"270 243 OFFCURVE",
"265 131 OFFCURVE",
"269 81 CURVE SMOOTH",
"270 64 OFFCURVE",
"270 47 OFFCURVE",
"270 32 CURVE",
"219 35 OFFCURVE",
"172 49 OFFCURVE",
"135 80 CURVE SMOOTH",
"84 123 OFFCURVE",
"54 182 OFFCURVE",
"54 255 CURVE SMOOTH",
"54 332 OFFCURVE",
"63 402 OFFCURVE",
"102 464 CURVE SMOOTH",
"141 526 OFFCURVE",
"208 584 OFFCURVE",
"289 585 CURVE SMOOTH",
"345 585 OFFCURVE",
"392 556 OFFCURVE",
"392 497 CURVE SMOOTH",
"392 480 OFFCURVE",
"387 463 OFFCURVE",
"379 450 CURVE",
"371 451 OFFCURVE",
"363 451 OFFCURVE",
"355 451 CURVE SMOOTH",
"340 451 OFFCURVE",
"334 435 OFFCURVE",
"356 435 CURVE",
"359 434 OFFCURVE",
"362 434 OFFCURVE",
"365 434 CURVE",
"355 426 OFFCURVE",
"344 422 OFFCURVE",
"332 422 CURVE SMOOTH",
"302 422 OFFCURVE",
"271 448 OFFCURVE",
"271 476 CURVE SMOOTH",
"271 492 OFFCURVE",
"283 508 OFFCURVE",
"298 508 CURVE SMOOTH",
"308 507 OFFCURVE",
"318 503 OFFCURVE",
"318 492 CURVE SMOOTH",
"317 481 OFFCURVE",
"334 481 OFFCURVE",
"334 492 CURVE SMOOTH",
"335 505 OFFCURVE",
"335 517 OFFCURVE",
"325 524 CURVE SMOOTH",
"317 529 OFFCURVE",
"304 532 OFFCURVE",
"299 532 CURVE SMOOTH",
"271 533 OFFCURVE",
"249 505 OFFCURVE",
"249 477 CURVE SMOOTH",
"249 436 OFFCURVE",
"290 398 OFFCURVE",
"332 398 CURVE SMOOTH",
"357 398 OFFCURVE",
"376 409 OFFCURVE",
"390 425 CURVE",
"409 413 OFFCURVE",
"424 395 OFFCURVE",
"440 379 CURVE SMOOTH",
"472 346 OFFCURVE",
"481 304 OFFCURVE",
"481 252 CURVE SMOOTH"
);
}
);
width = 546;
}
);
note = Q;
unicode = 0051;
},
{
glyphname = R;
layers = (
{
hints = (
{
horizontal = 1;
place = "{-64, 25}";
type = Stem;
},
{
horizontal = 1;
place = "{-31, 38}";
type = Stem;
},
{
horizontal = 1;
place = "{102, 17}";
type = Stem;
},
{
horizontal = 1;
place = "{212, 32}";
type = Stem;
},
{
horizontal = 1;
place = "{355, 19}";
type = Stem;
},
{
horizontal = 1;
place = "{620, 45}";
type = Stem;
},
{
place = "{-8, 17}";
type = Stem;
},
{
place = "{27, 17}";
type = Stem;
},
{
place = "{156, 23}";
type = Stem;
}
);
layerId = "245B06BA-2FC8-4E2B-85DB-2741CBBED619";
paths = (
{
closed = 1;
nodes = (
"511 133 OFFCURVE",
"490 160 OFFCURVE",
"475 181 CURVE SMOOTH",
"462 199 OFFCURVE",
"449 218 OFFCURVE",
"423 218 CURVE",
"418 219 OFFCURVE",
"413 217 OFFCURVE",
"409 215 CURVE",
"399 213 OFFCURVE",
"399 197 OFFCURVE",
"410 197 CURVE",
"411 198 OFFCURVE",
"413 198 OFFCURVE",
"415 199 CURVE",
"416 199 OFFCURVE",
"422 202 OFFCURVE",
"423 202 CURVE SMOOTH",
"431 202 OFFCURVE",
"437 199 OFFCURVE",
"443 194 CURVE SMOOTH",
"470 168 OFFCURVE",
"477 133 OFFCURVE",
"477 97 CURVE SMOOTH",
"477 62 OFFCURVE",
"470 7 OFFCURVE",
"436 7 CURVE SMOOTH",
"395 7 OFFCURVE",
"358 47 OFFCURVE",
"347 84 CURVE SMOOTH",
"331 135 OFFCURVE",
"319 180 OFFCURVE",
"309 229 CURVE",
"346 249 OFFCURVE",
"381 282 OFFCURVE",
"403 313 CURVE SMOOTH",
"427 345 OFFCURVE",
"449 385 OFFCURVE",
"459 428 CURVE SMOOTH",
"464 447 OFFCURVE",
"470 468 OFFCURVE",
"470 488 CURVE SMOOTH",
"470 613 OFFCURVE",
"356 675 OFFCURVE",
"230 664 CURVE SMOOTH",
"186 660 OFFCURVE",
"164 640 OFFCURVE",
"127 618 CURVE SMOOTH",
"98 601 OFFCURVE",
"72 580 OFFCURVE",
"51 553 CURVE SMOOTH",
"17 509 OFFCURVE",
"-9 468 OFFCURVE",
"-9 411 CURVE SMOOTH",
"-9 390 OFFCURVE",
"-12 353 OFFCURVE",
"18 354 CURVE SMOOTH",
"48 355 OFFCURVE",
"76 400 OFFCURVE",
"77 428 CURVE",
"78 428 LINE",
"78 439 OFFCURVE",
"61 440 OFFCURVE",
"61 429 CURVE SMOOTH",
"60 408 OFFCURVE",
"40 372 OFFCURVE",
"18 373 CURVE SMOOTH",
"6 373 OFFCURVE",
"8 403 OFFCURVE",
"8 411 CURVE SMOOTH",
"8 464 OFFCURVE",
"42 498 OFFCURVE",
"72 537 CURVE SMOOTH",
"90 560 OFFCURVE",
"122 571 OFFCURVE",
"147 586 CURVE SMOOTH",
"251 648 OFFCURVE",
"417 632 OFFCURVE",
"417 488 CURVE",
"418 484 OFFCURVE",
"417 476 OFFCURVE",
"415 466 CURVE SMOOTH",
"406 423 OFFCURVE",
"396 370 OFFCURVE",
"370 335 CURVE SMOOTH",
"353 312 OFFCURVE",
"328 284 OFFCURVE",
"302 265 CURVE",
"299 277 OFFCURVE",
"297 289 OFFCURVE",
"295 302 CURVE SMOOTH",
"293 313 OFFCURVE",
"287 318 OFFCURVE",
"283 331 CURVE SMOOTH",
"278 343 OFFCURVE",
"269 356 OFFCURVE",
"252 356 CURVE SMOOTH",
"227 357 OFFCURVE",
"205 323 OFFCURVE",
"201 303 CURVE SMOOTH",
"197 287 OFFCURVE",
"199 274 OFFCURVE",
"202 260 CURVE SMOOTH",
"205 247 OFFCURVE",
"231 212 OFFCURVE",
"247 212 CURVE SMOOTH",
"259 212 OFFCURVE",
"270 214 OFFCURVE",
"281 218 CURVE",
"288 169 OFFCURVE",
"294 123 OFFCURVE",
"309 72 CURVE SMOOTH",
"324 21 OFFCURVE",
"378 -31 OFFCURVE",
"435 -31 CURVE SMOOTH",
"486 -31 OFFCURVE",
"511 44 OFFCURVE",
"511 98 CURVE SMOOTH"
);
},
{
closed = 1;
nodes = (
"204 527 OFFCURVE",
"190 537 OFFCURVE",
"184 528 CURVE SMOOTH",
"150 477 OFFCURVE",
"124 436 OFFCURVE",
"130 373 CURVE SMOOTH",
"132 348 OFFCURVE",
"132 314 OFFCURVE",
"133 286 CURVE SMOOTH",
"134 262 OFFCURVE",
"139 244 OFFCURVE",
"140 223 CURVE SMOOTH",
"143 179 OFFCURVE",
"158 156 OFFCURVE",
"158 112 CURVE SMOOTH",
"158 87 OFFCURVE",
"157 69 OFFCURVE",
"156 48 CURVE SMOOTH",
"153 11 OFFCURVE",
"129 -40 OFFCURVE",
"89 -40 CURVE SMOOTH",
"78 -39 OFFCURVE",
"56 -27 OFFCURVE",
"52 -21 CURVE SMOOTH",
"46 -12 OFFCURVE",
"43 4 OFFCURVE",
"43 15 CURVE SMOOTH",
"43 36 OFFCURVE",
"53 100 OFFCURVE",
"83 101 CURVE SMOOTH",
"100 101 OFFCURVE",
"116 35 OFFCURVE",
"92 27 CURVE",
"90 27 OFFCURVE",
"88 29 OFFCURVE",
"85 30 CURVE",
"70 32 OFFCURVE",
"69 14 OFFCURVE",
"87 9 CURVE SMOOTH",
"129 -3 OFFCURVE",
"118 118 OFFCURVE",
"85 118 CURVE SMOOTH",
"40 119 OFFCURVE",
"26 48 OFFCURVE",
"26 16 CURVE SMOOTH",
"26 2 OFFCURVE",
"29 -18 OFFCURVE",
"37 -31 CURVE SMOOTH",
"44 -40 OFFCURVE",
"72 -64 OFFCURVE",
"89 -64 CURVE SMOOTH",
"141 -64 OFFCURVE",
"176 -1 OFFCURVE",
"179 48 CURVE SMOOTH",
"180 69 OFFCURVE",
"188 87 OFFCURVE",
"188 112 CURVE SMOOTH",
"188 156 OFFCURVE",
"189 181 OFFCURVE",
"186 225 CURVE SMOOTH",
"183 276 OFFCURVE",
"187 327 OFFCURVE",
"183 378 CURVE SMOOTH",
"178 432 OFFCURVE",
"169 474 OFFCURVE",
"198 517 CURVE SMOOTH"
);
},
{
closed = 1;
nodes = (
"278 250 LINE",
"268 246 OFFCURVE",
"258 244 OFFCURVE",
"248 244 CURVE SMOOTH",
"232 244 OFFCURVE",
"217 283 OFFCURVE",
"220 298 CURVE SMOOTH",
"225 318 OFFCURVE",
"242 340 OFFCURVE",
"252 340 CURVE SMOOTH",
"271 340 OFFCURVE",
"268 309 OFFCURVE",
"270 298 CURVE SMOOTH",
"273 281 OFFCURVE",
"275 265 OFFCURVE",
"277 250 CURVE"
);
}
);
width = 518;
}
);
note = R;
unicode = 0052;
},
{
glyphname = S;
layers = (
{
hints = (
{
horizontal = 1;
place = "{-66, 52}";
type = Stem;
},
{
horizontal = 1;
place = "{61, 22}";
type = Stem;
},
{
horizontal = 1;
place = "{195, 30}";
type = Stem;
},
{
horizontal = 1;
place = "{365, 26}";
type = Stem;
},
{
horizontal = 1;
place = "{619, 27}";
type = Stem;
},
{
place = "{18, 20}";
type = Stem;
},
{
place = "{67, 43}";
type = Stem;
},
{
place = "{206, 22}";
type = Stem;
},
{
place = "{265, 39}";
type = Stem;
},
{
place = "{315, 28}";
type = Stem;
},
{
place = "{344, 17}";
type = Stem;
},
{
place = "{443, 52}";
type = Stem;
}
);
layerId = "245B06BA-2FC8-4E2B-85DB-2741CBBED619";
paths = (
{
closed = 1;
nodes = (
"494 239 OFFCURVE",
"466 327 OFFCURVE",
"400 395 CURVE SMOOTH",
"388 408 OFFCURVE",
"376 417 OFFCURVE",
"368 429 CURVE SMOOTH",
"359 441 OFFCURVE",
"346 451 OFFCURVE",
"335 467 CURVE SMOOTH",
"333 470 LINE",
"338 495 OFFCURVE",
"341 521 OFFCURVE",
"341 547 CURVE SMOOTH",
"342 573 OFFCURVE",
"321 645 OFFCURVE",
"291 646 CURVE SMOOTH",
"264 646 OFFCURVE",
"249 601 OFFCURVE",
"249 582 CURVE SMOOTH",
"248 523 OFFCURVE",
"268 495 OFFCURVE",
"299 456 CURVE",
"292 429 OFFCURVE",
"281 402 OFFCURVE",
"268 376 CURVE",
"254 386 OFFCURVE",
"239 392 OFFCURVE",
"223 392 CURVE SMOOTH",
"207 392 OFFCURVE",
"194 385 OFFCURVE",
"179 382 CURVE SMOOTH",
"112 367 OFFCURVE",
"78 287 OFFCURVE",
"71 222 CURVE SMOOTH",
"69 204 OFFCURVE",
"66 187 OFFCURVE",
"66 165 CURVE SMOOTH",
"66 141 OFFCURVE",
"71 116 OFFCURVE",
"80 93 CURVE",
"67 72 OFFCURVE",
"56 51 OFFCURVE",
"44 29 CURVE SMOOTH",
"29 0 OFFCURVE",
"17 -24 OFFCURVE",
"17 -59 CURVE SMOOTH",
"17 -72 OFFCURVE",
"21 -80 OFFCURVE",
"23 -94 CURVE",
"22 -93 LINE",
"24 -105 OFFCURVE",
"41 -102 OFFCURVE",
"39 -91 CURVE SMOOTH",
"37 -78 OFFCURVE",
"37 -70 OFFCURVE",
"37 -58 CURVE SMOOTH",
"37 -29 OFFCURVE",
"53 -7 OFFCURVE",
"66 18 CURVE SMOOTH",
"74 34 OFFCURVE",
"83 49 OFFCURVE",
"93 64 CURVE",
"99 53 OFFCURVE",
"106 42 OFFCURVE",
"113 33 CURVE SMOOTH",
"156 -23 OFFCURVE",
"210 -65 OFFCURVE",
"295 -65 CURVE SMOOTH",
"391 -65 OFFCURVE",
"493 59 OFFCURVE",
"493 145 CURVE SMOOTH"
);
},
{
closed = 1;
nodes = (
"442 82 OFFCURVE",
"359 -14 OFFCURVE",
"296 -14 CURVE SMOOTH",
"232 -14 OFFCURVE",
"192 16 OFFCURVE",
"155 64 CURVE SMOOTH",
"145 77 OFFCURVE",
"134 93 OFFCURVE",
"125 110 CURVE",
"152 149 OFFCURVE",
"182 186 OFFCURVE",
"210 224 CURVE SMOOTH",
"236 260 OFFCURVE",
"262 299 OFFCURVE",
"284 341 CURVE",
"291 334 LINE",
"315 304 OFFCURVE",
"344 255 OFFCURVE",
"344 214 CURVE SMOOTH",
"344 160 OFFCURVE",
"320 83 OFFCURVE",
"261 83 CURVE SMOOTH",
"242 83 OFFCURVE",
"228 116 OFFCURVE",
"228 132 CURVE SMOOTH",
"227 154 OFFCURVE",
"242 195 OFFCURVE",
"266 195 CURVE SMOOTH",
"274 195 OFFCURVE",
"265 185 OFFCURVE",
"265 178 CURVE SMOOTH",
"265 152 OFFCURVE",
"304 152 OFFCURVE",
"304 178 CURVE SMOOTH",
"304 201 OFFCURVE",
"294 225 OFFCURVE",
"266 225 CURVE SMOOTH",
"230 225 OFFCURVE",
"204 166 OFFCURVE",
"205 132 CURVE SMOOTH",
"205 101 OFFCURVE",
"227 61 OFFCURVE",
"262 61 CURVE SMOOTH",
"331 61 OFFCURVE",
"361 150 OFFCURVE",
"361 214 CURVE SMOOTH",
"361 253 OFFCURVE",
"332 317 OFFCURVE",
"292 356 CURVE",
"293 356 LINE",
"304 379 OFFCURVE",
"314 402 OFFCURVE",
"322 426 CURVE",
"335 403 OFFCURVE",
"345 377 OFFCURVE",
"364 358 CURVE SMOOTH",
"418 302 OFFCURVE",
"441 228 OFFCURVE",
"442 144 CURVE SMOOTH"
);
},
{
closed = 1;
nodes = (
"236 316 OFFCURVE",
"210 277 OFFCURVE",
"185 243 CURVE SMOOTH",
"160 209 OFFCURVE",
"135 176 OFFCURVE",
"112 142 CURVE",
"110 149 OFFCURVE",
"109 157 OFFCURVE",
"109 165 CURVE SMOOTH",
"109 222 OFFCURVE",
"117 341 OFFCURVE",
"184 356 CURVE SMOOTH",
"197 359 OFFCURVE",
"210 366 OFFCURVE",
"223 366 CURVE SMOOTH",
"233 366 OFFCURVE",
"246 363 OFFCURVE",
"258 358 CURVE"
);
},
{
closed = 1;
nodes = (
"314 530 OFFCURVE",
"312 514 OFFCURVE",
"309 498 CURVE SMOOTH",
"309 497 LINE",
"291 520 OFFCURVE",
"278 542 OFFCURVE",
"278 581 CURVE",
"279 591 OFFCURVE",
"277 619 OFFCURVE",
"291 619 CURVE SMOOTH",
"311 618 OFFCURVE",
"315 563 OFFCURVE",
"314 545 CURVE SMOOTH"
);
}
);
width = 518;
}
);
note = S;
unicode = 0053;
},
{
glyphname = T;
layers = (
{
hints = (
{
horizontal = 1;
place = "{-27, 45}";
type = Stem;
},
{
horizontal = 1;
place = "{133, 22}";
type = Stem;
},
{
horizontal = 1;
place = "{346, 36}";
type = Stem;
},
{
horizontal = 1;
place = "{532, 17}";
type = Stem;
},
{
horizontal = 1;
place = "{586, 25}";
type = Stem;
},
{
horizontal = 1;
place = "{646, 17}";
type = Stem;
},
{
place = "{-26, 27}";
type = Stem;
},
{
place = "{149, 17}";
type = Stem;
},
{
place = "{180, 24}";
type = Stem;
},
{
place = "{266, 19}";
type = Stem;
},
{
place = "{340, 52}";
type = Stem;
},
{
place = "{617, 30}";
type = Stem;
}
);
layerId = "245B06BA-2FC8-4E2B-85DB-2741CBBED619";
paths = (
{
closed = 1;
nodes = (
"647 637 OFFCURVE",
"588 663 OFFCURVE",
"542 663 CURVE SMOOTH",
"531 662 OFFCURVE",
"531 645 OFFCURVE",
"542 645 CURVE SMOOTH",
"576 646 OFFCURVE",
"617 624 OFFCURVE",
"617 587 CURVE SMOOTH",
"617 560 OFFCURVE",
"598 539 OFFCURVE",
"572 536 CURVE SMOOTH",
"564 535 OFFCURVE",
"559 540 OFFCURVE",
"550 540 CURVE SMOOTH",
"503 540 OFFCURVE",
"459 558 OFFCURVE",
"413 565 CURVE SMOOTH",
"399 567 OFFCURVE",
"387 570 OFFCURVE",
"376 575 CURVE SMOOTH",
"345 588 LINE",
"353 605 OFFCURVE",
"367 616 OFFCURVE",
"386 620 CURVE SMOOTH",
"397 622 OFFCURVE",
"394 639 OFFCURVE",
"383 637 CURVE SMOOTH",
"357 632 OFFCURVE",
"339 617 OFFCURVE",
"328 595 CURVE",
"282 610 OFFCURVE",
"241 615 OFFCURVE",
"183 615 CURVE SMOOTH",
"160 615 OFFCURVE",
"144 610 OFFCURVE",
"122 610 CURVE SMOOTH",
"53 611 OFFCURVE",
"-24 547 OFFCURVE",
"-25 470 CURVE SMOOTH",
"-25 434 OFFCURVE",
"-7 346 OFFCURVE",
"42 346 CURVE SMOOTH",
"65 346 OFFCURVE",
"89 359 OFFCURVE",
"103 370 CURVE SMOOTH",
"132 393 OFFCURVE",
"168 463 OFFCURVE",
"167 502 CURVE SMOOTH",
"167 523 OFFCURVE",
"161 547 OFFCURVE",
"134 548 CURVE SMOOTH",
"110 548 OFFCURVE",
"86 522 OFFCURVE",
"77 507 CURVE SMOOTH",
"71 497 OFFCURVE",
"86 488 OFFCURVE",
"92 498 CURVE SMOOTH",
"100 512 OFFCURVE",
"120 531 OFFCURVE",
"134 531 CURVE SMOOTH",
"149 532 OFFCURVE",
"149 513 OFFCURVE",
"149 502 CURVE SMOOTH",
"150 467 OFFCURVE",
"86 382 OFFCURVE",
"44 382 CURVE SMOOTH",
"11 382 OFFCURVE",
"2 446 OFFCURVE",
"2 470 CURVE SMOOTH",
"1 533 OFFCURVE",
"65 584 OFFCURVE",
"122 585 CURVE SMOOTH",
"144 585 OFFCURVE",
"160 590 OFFCURVE",
"183 590 CURVE SMOOTH",
"231 589 OFFCURVE",
"270 572 OFFCURVE",
"317 555 CURVE",
"318 554 LINE",
"313 520 OFFCURVE",
"308 482 OFFCURVE",
"308 458 CURVE SMOOTH",
"308 353 OFFCURVE",
"340 266 OFFCURVE",
"340 164 CURVE SMOOTH",
"340 112 OFFCURVE",
"326 55 OFFCURVE",
"298 32 CURVE SMOOTH",
"289 25 OFFCURVE",
"279 18 OFFCURVE",
"268 18 CURVE SMOOTH",
"236 19 OFFCURVE",
"204 59 OFFCURVE",
"204 90 CURVE SMOOTH",
"204 108 OFFCURVE",
"218 133 OFFCURVE",
"238 133 CURVE SMOOTH",
"254 133 OFFCURVE",
"266 122 OFFCURVE",
"266 107 CURVE SMOOTH",
"267 89 OFFCURVE",
"255 85 OFFCURVE",
"240 88 CURVE SMOOTH",
"229 91 OFFCURVE",
"225 74 OFFCURVE",
"236 71 CURVE SMOOTH",
"263 65 OFFCURVE",
"284 73 OFFCURVE",
"285 107 CURVE SMOOTH",
"285 132 OFFCURVE",
"267 155 OFFCURVE",
"239 155 CURVE SMOOTH",
"206 155 OFFCURVE",
"180 120 OFFCURVE",
"180 89 CURVE SMOOTH",
"180 42 OFFCURVE",
"219 -26 OFFCURVE",
"269 -26 CURVE SMOOTH",
"367 -27 OFFCURVE",
"392 84 OFFCURVE",
"392 163 CURVE SMOOTH",
"392 266 OFFCURVE",
"360 412 OFFCURVE",
"342 476 CURVE SMOOTH",
"337 495 OFFCURVE",
"335 520 OFFCURVE",
"337 547 CURVE",
"359 536 OFFCURVE",
"380 523 OFFCURVE",
"406 519 CURVE SMOOTH",
"455 512 OFFCURVE",
"502 504 OFFCURVE",
"551 504 CURVE SMOOTH",
"560 504 OFFCURVE",
"566 510 OFFCURVE",
"576 511 CURVE SMOOTH",
"616 516 OFFCURVE",
"647 546 OFFCURVE",
"647 586 CURVE SMOOTH"
);
}
);
width = 440;
}
);
note = T;
unicode = 0054;
},
{
glyphname = U;
layers = (
{
hints = (
{
horizontal = 1;
place = "{-25, 45}";
type = Stem;
},
{
horizontal = 1;
place = "{594, -20}";
target = down;
type = TopGhost;
},
{
place = "{15, 19}";
type = Stem;
},
{
place = "{93, 19}";
type = Stem;
},
{
place = "{146, 38}";
type = Stem;
},
{
place = "{352, 25}";
type = Stem;
},
{
place = "{424, 17}";
type = Stem;
}
);
layerId = "245B06BA-2FC8-4E2B-85DB-2741CBBED619";
paths = (
{
closed = 1;
nodes = (
"488 -44 OFFCURVE",
"479 -14 OFFCURVE",
"454 55 CURVE SMOOTH",
"443 85 OFFCURVE",
"439 112 OFFCURVE",
"429 147 CURVE SMOOTH",
"414 201 LINE",
"420 220 LINE SMOOTH",
"443 295 OFFCURVE",
"441 377 OFFCURVE",
"441 462 CURVE SMOOTH",
"441 488 OFFCURVE",
"445 602 OFFCURVE",
"398 601 CURVE SMOOTH",
"361 601 OFFCURVE",
"352 508 OFFCURVE",
"352 479 CURVE SMOOTH",
"352 428 OFFCURVE",
"349 373 OFFCURVE",
"351 324 CURVE SMOOTH",
"353 280 OFFCURVE",
"358 240 OFFCURVE",
"366 202 CURVE",
"358 180 OFFCURVE",
"349 162 OFFCURVE",
"338 137 CURVE SMOOTH",
"321 100 OFFCURVE",
"269 20 OFFCURVE",
"223 20 CURVE SMOOTH",
"164 21 OFFCURVE",
"136 82 OFFCURVE",
"131 136 CURVE SMOOTH",
"130 151 OFFCURVE",
"131 160 OFFCURVE",
"131 174 CURVE",
"142 233 OFFCURVE",
"146 268 OFFCURVE",
"162 325 CURVE SMOOTH",
"176 375 OFFCURVE",
"182 418 OFFCURVE",
"183 478 CURVE SMOOTH",
"183 513 OFFCURVE",
"156 594 OFFCURVE",
"110 594 CURVE SMOOTH",
"104 594 OFFCURVE",
"101 592 OFFCURVE",
"93 590 CURVE SMOOTH",
"45 579 OFFCURVE",
"15 506 OFFCURVE",
"15 460 CURVE SMOOTH",
"15 434 OFFCURVE",
"11 381 OFFCURVE",
"38 365 CURVE SMOOTH",
"47 360 OFFCURVE",
"55 362 OFFCURVE",
"64 362 CURVE SMOOTH",
"94 363 OFFCURVE",
"112 374 OFFCURVE",
"112 409 CURVE SMOOTH",
"112 425 OFFCURVE",
"104 440 OFFCURVE",
"96 452 CURVE",
"96 453 LINE",
"90 462 OFFCURVE",
"76 453 OFFCURVE",
"82 443 CURVE SMOOTH",
"87 434 OFFCURVE",
"93 421 OFFCURVE",
"93 408 CURVE SMOOTH",
"93 389 OFFCURVE",
"81 386 OFFCURVE",
"65 386 CURVE",
"61 385 OFFCURVE",
"58 385 OFFCURVE",
"55 385 CURVE SMOOTH",
"37 386 OFFCURVE",
"34 448 OFFCURVE",
"34 459 CURVE SMOOTH",
"34 500 OFFCURVE",
"56 564 OFFCURVE",
"97 574 CURVE SMOOTH",
"102 575 OFFCURVE",
"105 574 OFFCURVE",
"109 574 CURVE SMOOTH",
"144 574 OFFCURVE",
"146 504 OFFCURVE",
"146 478 CURVE SMOOTH",
"145 422 OFFCURVE",
"133 383 OFFCURVE",
"119 336 CURVE SMOOTH",
"102 277 OFFCURVE",
"93 242 OFFCURVE",
"82 180 CURVE",
"82 176 LINE SMOOTH",
"82 159 OFFCURVE",
"80 148 OFFCURVE",
"81 131 CURVE SMOOTH",
"88 54 OFFCURVE",
"139 -26 OFFCURVE",
"223 -25 CURVE SMOOTH",
"292 -25 OFFCURVE",
"348 55 OFFCURVE",
"384 130 CURVE",
"395 96 OFFCURVE",
"408 72 OFFCURVE",
"419 42 CURVE SMOOTH",
"437 -10 OFFCURVE",
"461 -24 OFFCURVE",
"491 -64 CURVE SMOOTH",
"503 -80 OFFCURVE",
"520 -92 OFFCURVE",
"535 -104 CURVE SMOOTH",
"544 -112 OFFCURVE",
"555 -99 OFFCURVE",
"546 -92 CURVE SMOOTH"
);
},
{
closed = 1;
nodes = (
"424 403 OFFCURVE",
"411 348 OFFCURVE",
"396 294 CURVE",
"395 304 OFFCURVE",
"394 314 OFFCURVE",
"394 324 CURVE SMOOTH",
"391 374 OFFCURVE",
"377 428 OFFCURVE",
"377 480 CURVE SMOOTH",
"377 503 OFFCURVE",
"368 582 OFFCURVE",
"398 583 CURVE SMOOTH",
"425 583 OFFCURVE",
"424 477 OFFCURVE",
"424 463 CURVE SMOOTH"
);
}
);
width = 500;
}
);
note = U;
unicode = 0055;
},
{
glyphname = V;
layers = (
{
hints = (
{
horizontal = 1;
place = "{-34, 34}";
type = Stem;
},
{
horizontal = 1;
place = "{280, 19}";
type = Stem;
},
{
horizontal = 1;
place = "{567, 21}";
target = up;
type = BottomGhost;
},
{
place = "{9, 18}";
type = Stem;
},
{
place = "{141, 17}";
type = Stem;
},
{
place = "{273, 25}";
type = Stem;
},
{
place = "{349, 23}";
type = Stem;
}
);
layerId = "245B06BA-2FC8-4E2B-85DB-2741CBBED619";
paths = (
{
closed = 1;
nodes = (
"679 564 OFFCURVE",
"671 572 OFFCURVE",
"652 572 CURVE SMOOTH",
"631 571 OFFCURVE",
"610 562 OFFCURVE",
"591 551 CURVE SMOOTH",
"499 499 OFFCURVE",
"427 408 OFFCURVE",
"373 318 CURVE",
"367 310 OFFCURVE",
"361 300 OFFCURVE",
"355 289 CURVE",
"337 371 OFFCURVE",
"300 445 OFFCURVE",
"229 520 CURVE SMOOTH",
"212 539 OFFCURVE",
"189 553 OFFCURVE",
"168 568 CURVE SMOOTH",
"146 584 OFFCURVE",
"119 588 OFFCURVE",
"88 588 CURVE SMOOTH",
"38 587 OFFCURVE",
"17 535 OFFCURVE",
"10 486 CURVE SMOOTH",
"5 447 OFFCURVE",
"13 389 OFFCURVE",
"37 335 CURVE SMOOTH",
"45 316 OFFCURVE",
"79 279 OFFCURVE",
"107 279 CURVE SMOOTH",
"136 280 OFFCURVE",
"158 311 OFFCURVE",
"158 339 CURVE SMOOTH",
"157 373 OFFCURVE",
"135 397 OFFCURVE",
"104 409 CURVE SMOOTH",
"93 413 OFFCURVE",
"87 397 OFFCURVE",
"98 393 CURVE SMOOTH",
"125 383 OFFCURVE",
"142 365 OFFCURVE",
"141 338 CURVE SMOOTH",
"141 320 OFFCURVE",
"126 299 OFFCURVE",
"107 299 CURVE SMOOTH",
"87 298 OFFCURVE",
"62 330 OFFCURVE",
"56 343 CURVE SMOOTH",
"34 394 OFFCURVE",
"22 455 OFFCURVE",
"27 487 CURVE SMOOTH",
"32 525 OFFCURVE",
"48 565 OFFCURVE",
"87 566 CURVE SMOOTH",
"112 566 OFFCURVE",
"129 553 OFFCURVE",
"147 540 CURVE SMOOTH",
"165 527 OFFCURVE",
"177 502 OFFCURVE",
"192 486 CURVE SMOOTH",
"270 404 OFFCURVE",
"316 338 OFFCURVE",
"336 252 CURVE",
"304 186 OFFCURVE",
"273 106 OFFCURVE",
"273 51 CURVE SMOOTH",
"273 39 OFFCURVE",
"275 33 OFFCURVE",
"275 21 CURVE SMOOTH",
"274 5 OFFCURVE",
"299 -34 OFFCURVE",
"321 -34 CURVE SMOOTH",
"373 -34 OFFCURVE",
"372 68 OFFCURVE",
"372 102 CURVE SMOOTH",
"372 159 OFFCURVE",
"369 211 OFFCURVE",
"361 260 CURVE",
"410 355 OFFCURVE",
"482 451 OFFCURVE",
"553 505 CURVE SMOOTH",
"579 525 OFFCURVE",
"617 556 OFFCURVE",
"652 555 CURVE SMOOTH",
"665 555 OFFCURVE",
"669 548 OFFCURVE",
"676 539 CURVE SMOOTH",
"683 531 OFFCURVE",
"696 542 OFFCURVE",
"689 551 CURVE SMOOTH"
);
},
{
closed = 1;
nodes = (
"349 116 OFFCURVE",
"348 66 OFFCURVE",
"345 41 CURVE SMOOTH",
"343 25 OFFCURVE",
"332 0 OFFCURVE",
"322 0 CURVE SMOOTH",
"314 0 OFFCURVE",
"301 15 OFFCURVE",
"301 21 CURVE SMOOTH",
"300 33 OFFCURVE",
"297 39 OFFCURVE",
"297 51 CURVE SMOOTH",
"298 75 OFFCURVE",
"304 102 OFFCURVE",
"311 131 CURVE SMOOTH",
"318 159 OFFCURVE",
"329 189 OFFCURVE",
"343 220 CURVE",
"347 193 OFFCURVE",
"349 164 OFFCURVE",
"349 132 CURVE SMOOTH"
);
}
);
width = 468;
}
);
note = V;
unicode = 0056;
},
{
glyphname = W;
layers = (
{
hints = (
{
horizontal = 1;
place = "{-73, 20}";
type = Stem;
},
{
horizontal = 1;
place = "{-38, 39}";
type = Stem;
},
{
horizontal = 1;
place = "{206, 26}";
type = Stem;
},
{
horizontal = 1;
place = "{424, 17}";
type = Stem;
},
{
horizontal = 1;
place = "{477, 21}";
target = up;
type = BottomGhost;
},
{
horizontal = 1;
place = "{530, 17}";
type = Stem;
},
{
horizontal = 1;
place = "{576, 25}";
type = Stem;
},
{
place = "{11, 25}";
type = Stem;
},
{
place = "{111, 17}";
type = Stem;
},
{
place = "{461, 17}";
type = Stem;
}
);
layerId = "245B06BA-2FC8-4E2B-85DB-2741CBBED619";
paths = (
{
closed = 1;
nodes = (
"733 331 OFFCURVE",
"698 496 OFFCURVE",
"606 497 CURVE SMOOTH",
"585 497 OFFCURVE",
"570 478 OFFCURVE",
"566 470 CURVE SMOOTH",
"561 456 OFFCURVE",
"580 448 OFFCURVE",
"586 461 CURVE SMOOTH",
"588 467 OFFCURVE",
"597 477 OFFCURVE",
"605 477 CURVE SMOOTH",
"685 476 OFFCURVE",
"709 320 OFFCURVE",
"709 249 CURVE SMOOTH",
"708 176 OFFCURVE",
"702 1 OFFCURVE",
"605 1 CURVE SMOOTH",
"535 1 OFFCURVE",
"485 122 OFFCURVE",
"462 179 CURVE",
"459 189 OFFCURVE",
"455 198 OFFCURVE",
"452 207 CURVE",
"466 273 OFFCURVE",
"473 342 OFFCURVE",
"474 403 CURVE SMOOTH",
"474 425 OFFCURVE",
"476 441 OFFCURVE",
"477 462 CURVE SMOOTH",
"477 482 OFFCURVE",
"475 547 OFFCURVE",
"443 547 CURVE SMOOTH",
"429 547 OFFCURVE",
"421 534 OFFCURVE",
"416 523 CURVE SMOOTH",
"398 481 OFFCURVE",
"385 439 OFFCURVE",
"385 393 CURVE SMOOTH",
"385 322 OFFCURVE",
"396 251 OFFCURVE",
"420 184 CURVE",
"404 128 OFFCURVE",
"383 75 OFFCURVE",
"359 32 CURVE SMOOTH",
"346 9 OFFCURVE",
"318 -53 OFFCURVE",
"288 -53 CURVE SMOOTH",
"248 -53 OFFCURVE",
"240 27 OFFCURVE",
"240 54 CURVE SMOOTH",
"239 126 OFFCURVE",
"271 227 OFFCURVE",
"277 298 CURVE SMOOTH",
"280 341 OFFCURVE",
"291 374 OFFCURVE",
"291 423 CURVE SMOOTH",
"291 483 OFFCURVE",
"244 601 OFFCURVE",
"170 601 CURVE SMOOTH",
"66 601 OFFCURVE",
"12 475 OFFCURVE",
"11 392 CURVE SMOOTH",
"11 334 OFFCURVE",
"42 207 OFFCURVE",
"116 206 CURVE SMOOTH",
"132 206 OFFCURVE",
"162 225 OFFCURVE",
"174 236 CURVE SMOOTH",
"201 261 OFFCURVE",
"207 291 OFFCURVE",
"206 329 CURVE SMOOTH",
"206 363 OFFCURVE",
"189 441 OFFCURVE",
"142 441 CURVE SMOOTH",
"117 441 OFFCURVE",
"110 413 OFFCURVE",
"110 395 CURVE SMOOTH",
"111 369 OFFCURVE",
"125 349 OFFCURVE",
"147 337 CURVE SMOOTH",
"157 332 OFFCURVE",
"165 347 OFFCURVE",
"155 352 CURVE SMOOTH",
"137 362 OFFCURVE",
"127 376 OFFCURVE",
"127 394 CURVE SMOOTH",
"128 414 OFFCURVE",
"135 424 OFFCURVE",
"143 424 CURVE SMOOTH",
"176 424 OFFCURVE",
"188 352 OFFCURVE",
"188 328 CURVE SMOOTH",
"189 298 OFFCURVE",
"178 276 OFFCURVE",
"156 256 CURVE SMOOTH",
"148 249 OFFCURVE",
"128 232 OFFCURVE",
"117 232 CURVE SMOOTH",
"55 231 OFFCURVE",
"36 343 OFFCURVE",
"36 391 CURVE SMOOTH",
"35 472 OFFCURVE",
"88 576 OFFCURVE",
"170 576 CURVE SMOOTH",
"228 576 OFFCURVE",
"239 470 OFFCURVE",
"239 422 CURVE SMOOTH",
"239 375 OFFCURVE",
"228 344 OFFCURVE",
"225 303 CURVE SMOOTH",
"220 243 OFFCURVE",
"225 144 OFFCURVE",
"220 86 CURVE SMOOTH",
"219 73 OFFCURVE",
"218 66 OFFCURVE",
"218 54 CURVE SMOOTH",
"218 21 OFFCURVE",
"238 -73 OFFCURVE",
"288 -73 CURVE SMOOTH",
"324 -73 OFFCURVE",
"371 -11 OFFCURVE",
"387 17 CURVE SMOOTH",
"407 53 OFFCURVE",
"424 96 OFFCURVE",
"437 142 CURVE",
"468 70 OFFCURVE",
"528 -38 OFFCURVE",
"606 -38 CURVE SMOOTH",
"721 -38 OFFCURVE",
"732 161 OFFCURVE",
"733 249 CURVE SMOOTH"
);
},
{
closed = 1;
nodes = (
"461 442 OFFCURVE",
"458 426 OFFCURVE",
"457 403 CURVE SMOOTH",
"456 355 OFFCURVE",
"448 302 OFFCURVE",
"437 250 CURVE",
"427 282 OFFCURVE",
"419 315 OFFCURVE",
"416 355 CURVE SMOOTH",
"415 370 OFFCURVE",
"413 379 OFFCURVE",
"413 394 CURVE SMOOTH",
"413 437 OFFCURVE",
"414 471 OFFCURVE",
"429 510 CURVE SMOOTH",
"431 515 OFFCURVE",
"437 530 OFFCURVE",
"443 530 CURVE SMOOTH",
"457 530 OFFCURVE",
"460 471 OFFCURVE",
"460 463 CURVE SMOOTH"
);
}
);
width = 750;
}
);
note = W;
unicode = 0057;
},
{
glyphname = X;
layers = (
{
hints = (
{
horizontal = 1;
place = "{-15, 34}";
type = Stem;
},
{
horizontal = 1;
place = "{104, 25}";
type = Stem;
},
{
horizontal = 1;
place = "{163, 17}";
type = Stem;
},
{
horizontal = 1;
place = "{292, 23}";
type = Stem;
},
{
horizontal = 1;
place = "{388, 28}";
type = Stem;
},
{
horizontal = 1;
place = "{626, 21}";
target = up;
type = BottomGhost;
},
{
place = "{21, 27}";
type = Stem;
},
{
place = "{72, 25}";
type = Stem;
},
{
place = "{150, 25}";
type = Stem;
},
{
place = "{182, 17}";
type = Stem;
},
{
place = "{591, 22}";
type = Stem;
},
{
place = "{660, 17}";
type = Stem;
}
);
layerId = "245B06BA-2FC8-4E2B-85DB-2741CBBED619";
paths = (
{
closed = 1;
nodes = (
"677 129 OFFCURVE",
"669 180 OFFCURVE",
"641 180 CURVE SMOOTH",
"613 180 OFFCURVE",
"591 167 OFFCURVE",
"591 134 CURVE SMOOTH",
"591 126 OFFCURVE",
"594 119 OFFCURVE",
"597 113 CURVE SMOOTH",
"609 88 OFFCURVE",
"628 100 OFFCURVE",
"621 112 CURVE SMOOTH",
"616 119 OFFCURVE",
"613 126 OFFCURVE",
"613 133 CURVE SMOOTH",
"613 158 OFFCURVE",
"619 163 OFFCURVE",
"642 163 CURVE SMOOTH",
"654 163 OFFCURVE",
"659 118 OFFCURVE",
"659 111 CURVE SMOOTH",
"660 85 OFFCURVE",
"648 50 OFFCURVE",
"629 33 CURVE SMOOTH",
"612 19 OFFCURVE",
"586 14 OFFCURVE",
"558 17 CURVE SMOOTH",
"530 20 OFFCURVE",
"503 25 OFFCURVE",
"462 94 CURVE SMOOTH",
"418 166 OFFCURVE",
"395 259 OFFCURVE",
"370 351 CURVE",
"388 396 LINE SMOOTH",
"408 447 OFFCURVE",
"414 499 OFFCURVE",
"445 546 CURVE SMOOTH",
"468 582 OFFCURVE",
"492 624 OFFCURVE",
"540 625 CURVE SMOOTH",
"571 625 OFFCURVE",
"598 621 OFFCURVE",
"599 584 CURVE SMOOTH",
"599 552 OFFCURVE",
"566 524 OFFCURVE",
"535 523 CURVE SMOOTH",
"520 523 OFFCURVE",
"509 529 OFFCURVE",
"498 535 CURVE SMOOTH",
"488 541 OFFCURVE",
"480 526 OFFCURVE",
"490 521 CURVE SMOOTH",
"505 513 OFFCURVE",
"517 506 OFFCURVE",
"534 506 CURVE SMOOTH",
"573 505 OFFCURVE",
"617 540 OFFCURVE",
"617 583 CURVE SMOOTH",
"616 634 OFFCURVE",
"582 647 OFFCURVE",
"538 647 CURVE",
"531 646 OFFCURVE",
"515 645 OFFCURVE",
"506 642 CURVE SMOOTH",
"474 632 OFFCURVE",
"440 587 OFFCURVE",
"423 560 CURVE SMOOTH",
"391 512 OFFCURVE",
"381 457 OFFCURVE",
"356 406 CURVE SMOOTH",
"355 404 LINE",
"334 476 OFFCURVE",
"309 545 OFFCURVE",
"270 601 CURVE SMOOTH",
"255 624 OFFCURVE",
"235 651 OFFCURVE",
"210 661 CURVE SMOOTH",
"193 666 OFFCURVE",
"182 671 OFFCURVE",
"164 671 CURVE SMOOTH",
"138 671 OFFCURVE",
"128 651 OFFCURVE",
"112 643 CURVE SMOOTH",
"64 620 OFFCURVE",
"21 575 OFFCURVE",
"21 509 CURVE SMOOTH",
"20 443 OFFCURVE",
"72 388 OFFCURVE",
"138 388 CURVE SMOOTH",
"177 388 OFFCURVE",
"197 446 OFFCURVE",
"198 477 CURVE SMOOTH",
"198 498 OFFCURVE",
"193 536 OFFCURVE",
"155 536 CURVE SMOOTH",
"145 537 OFFCURVE",
"133 524 OFFCURVE",
"126 518 CURVE",
"113 511 OFFCURVE",
"127 496 OFFCURVE",
"137 505 CURVE SMOOTH",
"140 507 LINE SMOOTH",
"144 510 OFFCURVE",
"152 517 OFFCURVE",
"157 519 CURVE",
"176 520 OFFCURVE",
"183 500 OFFCURVE",
"182 477 CURVE SMOOTH",
"182 458 OFFCURVE",
"161 416 OFFCURVE",
"137 416 CURVE SMOOTH",
"88 416 OFFCURVE",
"48 459 OFFCURVE",
"48 509 CURVE SMOOTH",
"47 561 OFFCURVE",
"90 589 OFFCURVE",
"128 608 CURVE SMOOTH",
"140 614 OFFCURVE",
"151 621 OFFCURVE",
"165 621 CURVE SMOOTH",
"173 621 OFFCURVE",
"184 614 OFFCURVE",
"191 611 CURVE SMOOTH",
"260 585 OFFCURVE",
"307 416 OFFCURVE",
"327 335 CURVE",
"306 289 OFFCURVE",
"286 245 OFFCURVE",
"267 194 CURVE SMOOTH",
"250 147 OFFCURVE",
"217 87 OFFCURVE",
"187 48 CURVE SMOOTH",
"174 32 OFFCURVE",
"153 19 OFFCURVE",
"132 19 CURVE SMOOTH",
"81 19 OFFCURVE",
"35 93 OFFCURVE",
"35 139 CURVE SMOOTH",
"35 159 OFFCURVE",
"40 177 OFFCURVE",
"46 196 CURVE SMOOTH",
"54 224 OFFCURVE",
"79 278 OFFCURVE",
"100 289 CURVE SMOOTH",
"132 307 OFFCURVE",
"149 236 OFFCURVE",
"149 205 CURVE SMOOTH",
"150 195 OFFCURVE",
"136 129 OFFCURVE",
"120 129 CURVE SMOOTH",
"110 128 OFFCURVE",
"97 147 OFFCURVE",
"97 163 CURVE SMOOTH",
"96 181 OFFCURVE",
"71 181 OFFCURVE",
"71 164 CURVE SMOOTH",
"72 146 OFFCURVE",
"87 103 OFFCURVE",
"120 103 CURVE SMOOTH",
"157 104 OFFCURVE",
"175 179 OFFCURVE",
"175 205 CURVE SMOOTH",
"174 248 OFFCURVE",
"133 335 OFFCURVE",
"88 311 CURVE SMOOTH",
"57 294 OFFCURVE",
"30 230 OFFCURVE",
"22 204 CURVE SMOOTH",
"16 182 OFFCURVE",
"5 163 OFFCURVE",
"5 139 CURVE SMOOTH",
"5 79 OFFCURVE",
"67 -15 OFFCURVE",
"132 -15 CURVE SMOOTH",
"165 -15 OFFCURVE",
"195 5 OFFCURVE",
"213 28 CURVE SMOOTH",
"245 69 OFFCURVE",
"282 131 OFFCURVE",
"301 181 CURVE SMOOTH",
"314 216 OFFCURVE",
"327 248 OFFCURVE",
"340 280 CURVE",
"360 211 OFFCURVE",
"395 124 OFFCURVE",
"426 73 CURVE SMOOTH",
"472 -4 OFFCURVE",
"526 -10 OFFCURVE",
"558 -10 CURVE SMOOTH",
"626 -10 OFFCURVE",
"678 43 OFFCURVE",
"677 111 CURVE SMOOTH"
);
}
);
width = 652;
}
);
note = X;
unicode = 0058;
},
{
glyphname = Y;
layers = (
{
hints = (
{
horizontal = 1;
place = "{-311, 45}";
type = Stem;
},
{
horizontal = 1;
place = "{-188, 25}";
type = Stem;
},
{
horizontal = 1;
place = "{-101, 17}";
type = Stem;
},
{
horizontal = 1;
place = "{-35, 104}";
type = Stem;
},
{
horizontal = 1;
place = "{357, 26}";
type = Stem;
},
{
horizontal = 1;
place = "{630, -20}";
target = down;
type = TopGhost;
},
{
horizontal = 1;
place = "{682, -20}";
target = down;
type = TopGhost;
},
{
place = "{4, 17}";
type = Stem;
},
{
place = "{145, 36}";
type = Stem;
},
{
place = "{244, 18}";
type = Stem;
},
{
place = "{356, 18}";
type = Stem;
},
{
place = "{427, 20}";
type = Stem;
},
{
place = "{496, 30}";
type = Stem;
}
);
layerId = "245B06BA-2FC8-4E2B-85DB-2741CBBED619";
paths = (
{
closed = 1;
nodes = (
"526 51 OFFCURVE",
"524 92 OFFCURVE",
"520 132 CURVE SMOOTH",
"515 178 OFFCURVE",
"501 228 OFFCURVE",
"491 277 CURVE",
"512 340 OFFCURVE",
"525 406 OFFCURVE",
"525 477 CURVE SMOOTH",
"525 516 OFFCURVE",
"509 629 OFFCURVE",
"459 629 CURVE SMOOTH",
"445 629 OFFCURVE",
"441 620 OFFCURVE",
"438 609 CURVE SMOOTH",
"432 585 OFFCURVE",
"427 565 OFFCURVE",
"427 541 CURVE SMOOTH",
"426 509 OFFCURVE",
"427 483 OFFCURVE",
"432 458 CURVE SMOOTH",
"440 412 OFFCURVE",
"439 372 OFFCURVE",
"445 321 CURVE SMOOTH",
"451 280 LINE",
"430 231 LINE SMOOTH",
"419 205 OFFCURVE",
"404 171 OFFCURVE",
"385 140 CURVE SMOOTH",
"370 116 OFFCURVE",
"333 68 OFFCURVE",
"298 68 CURVE SMOOTH",
"278 68 OFFCURVE",
"259 71 OFFCURVE",
"237 75 CURVE SMOOTH",
"199 81 OFFCURVE",
"168 115 OFFCURVE",
"168 145 CURVE SMOOTH",
"168 215 OFFCURVE",
"238 299 OFFCURVE",
"277 356 CURVE SMOOTH",
"314 409 OFFCURVE",
"349 468 OFFCURVE",
"348 535 CURVE SMOOTH",
"348 592 OFFCURVE",
"278 681 OFFCURVE",
"212 681 CURVE SMOOTH",
"193 681 OFFCURVE",
"179 677 OFFCURVE",
"158 677 CURVE SMOOTH",
"106 678 OFFCURVE",
"64 631 OFFCURVE",
"34 593 CURVE SMOOTH",
"19 574 OFFCURVE",
"3 551 OFFCURVE",
"3 519 CURVE SMOOTH",
"4 481 OFFCURVE",
"21 447 OFFCURVE",
"39 420 CURVE SMOOTH",
"54 398 OFFCURVE",
"75 356 OFFCURVE",
"106 356 CURVE SMOOTH",
"164 356 OFFCURVE",
"214 410 OFFCURVE",
"214 466 CURVE SMOOTH",
"214 493 OFFCURVE",
"215 546 OFFCURVE",
"179 550 CURVE SMOOTH",
"137 555 OFFCURVE",
"119 511 OFFCURVE",
"114 472 CURVE SMOOTH",
"112 461 OFFCURVE",
"128 459 OFFCURVE",
"130 470 CURVE SMOOTH",
"133 495 OFFCURVE",
"148 523 OFFCURVE",
"175 520 CURVE SMOOTH",
"186 519 OFFCURVE",
"187 475 OFFCURVE",
"187 466 CURVE SMOOTH",
"187 451 OFFCURVE",
"187 446 OFFCURVE",
"183 435 CURVE SMOOTH",
"173 405 OFFCURVE",
"139 382 OFFCURVE",
"106 382 CURVE SMOOTH",
"97 382 OFFCURVE",
"87 389 OFFCURVE",
"79 398 CURVE SMOOTH",
"49 432 OFFCURVE",
"21 471 OFFCURVE",
"21 519 CURVE SMOOTH",
"21 577 OFFCURVE",
"103 654 OFFCURVE",
"158 653 CURVE SMOOTH",
"212 653 LINE SMOOTH",
"263 653 OFFCURVE",
"311 578 OFFCURVE",
"310 534 CURVE SMOOTH",
"310 507 OFFCURVE",
"296 487 OFFCURVE",
"287 467 CURVE SMOOTH",
"239 361 OFFCURVE",
"116 266 OFFCURVE",
"116 145 CURVE SMOOTH",
"116 85 OFFCURVE",
"171 33 OFFCURVE",
"228 23 CURVE SMOOTH",
"253 19 OFFCURVE",
"274 22 OFFCURVE",
"296 22 CURVE SMOOTH",
"307 22 OFFCURVE",
"315 24 OFFCURVE",
"323 27 CURVE SMOOTH",
"396 53 OFFCURVE",
"432 137 OFFCURVE",
"462 204 CURVE",
"471 142 OFFCURVE",
"479 81 OFFCURVE",
"479 13 CURVE SMOOTH",
"479 -99 OFFCURVE",
"419 -265 OFFCURVE",
"296 -266 CURVE SMOOTH",
"248 -266 OFFCURVE",
"181 -236 OFFCURVE",
"181 -186 CURVE SMOOTH",
"180 -112 OFFCURVE",
"228 -36 OFFCURVE",
"302 -36 CURVE SMOOTH",
"332 -36 OFFCURVE",
"355 -63 OFFCURVE",
"355 -95 CURVE SMOOTH",
"355 -153 OFFCURVE",
"261 -190 OFFCURVE",
"261 -141 CURVE SMOOTH",
"261 -125 OFFCURVE",
"271 -101 OFFCURVE",
"288 -101 CURVE",
"294 -102 OFFCURVE",
"299 -112 OFFCURVE",
"300 -116 CURVE SMOOTH",
"304 -126 OFFCURVE",
"320 -121 OFFCURVE",
"316 -110 CURVE SMOOTH",
"312 -98 OFFCURVE",
"302 -84 OFFCURVE",
"288 -84 CURVE SMOOTH",
"263 -85 OFFCURVE",
"243 -117 OFFCURVE",
"243 -141 CURVE SMOOTH",
"243 -175 OFFCURVE",
"274 -199 OFFCURVE",
"309 -185 CURVE SMOOTH",
"342 -171 OFFCURVE",
"375 -138 OFFCURVE",
"374 -94 CURVE SMOOTH",
"374 -55 OFFCURVE",
"344 -18 OFFCURVE",
"302 -18 CURVE SMOOTH",
"214 -18 OFFCURVE",
"144 -98 OFFCURVE",
"144 -185 CURVE SMOOTH",
"144 -255 OFFCURVE",
"228 -311 OFFCURVE",
"295 -311 CURVE SMOOTH",
"442 -312 OFFCURVE",
"526 -121 OFFCURVE",
"526 13 CURVE SMOOTH"
);
},
{
closed = 1;
nodes = (
"495 436 OFFCURVE",
"488 397 OFFCURVE",
"478 360 CURVE",
"478 361 LINE SMOOTH",
"473 397 OFFCURVE",
"467 429 OFFCURVE",
"460 465 CURVE SMOOTH",
"456 488 OFFCURVE",
"448 512 OFFCURVE",
"447 542 CURVE SMOOTH",
"447 562 OFFCURVE",
"446 579 OFFCURVE",
"452 597 CURVE SMOOTH",
"454 601 OFFCURVE",
"455 610 OFFCURVE",
"460 610 CURVE SMOOTH",
"500 610 OFFCURVE",
"495 506 OFFCURVE",
"495 477 CURVE SMOOTH"
);
}
);
width = 552;
}
);
note = Y;
unicode = 0059;
},
{
glyphname = Z;
layers = (
{
hints = (
{
horizontal = 1;
place = "{-14, 32}";
type = Stem;
},
{
horizontal = 1;
place = "{28, 44}";
type = Stem;
},
{
horizontal = 1;
place = "{87, 23}";
type = Stem;
},
{
horizontal = 1;
place = "{155, 27}";
type = Stem;
},
{
horizontal = 1;
place = "{457, 25}";
type = Stem;
},
{
horizontal = 1;
place = "{646, 17}";
type = Stem;
},
{
place = "{34, 28}";
type = Stem;
},
{
place = "{163, 18}";
type = Stem;
},
{
place = "{477, 26}";
type = Stem;
},
{
place = "{612, 20}";
type = Stem;
},
{
place = "{658, 28}";
type = Stem;
}
);
layerId = "245B06BA-2FC8-4E2B-85DB-2741CBBED619";
paths = (
{
closed = 1;
nodes = (
"686 145 OFFCURVE",
"586 184 OFFCURVE",
"536 183 CURVE SMOOTH",
"505 183 OFFCURVE",
"477 166 OFFCURVE",
"477 137 CURVE SMOOTH",
"477 97 OFFCURVE",
"505 86 OFFCURVE",
"538 87 CURVE SMOOTH",
"553 87 OFFCURVE",
"553 111 OFFCURVE",
"538 111 CURVE SMOOTH",
"519 110 OFFCURVE",
"503 114 OFFCURVE",
"503 136 CURVE SMOOTH",
"503 152 OFFCURVE",
"520 156 OFFCURVE",
"536 156 CURVE SMOOTH",
"576 155 OFFCURVE",
"658 131 OFFCURVE",
"658 81 CURVE SMOOTH",
"658 56 OFFCURVE",
"637 32 OFFCURVE",
"613 24 CURVE SMOOTH",
"591 16 OFFCURVE",
"566 19 OFFCURVE",
"543 19 CURVE SMOOTH",
"492 19 OFFCURVE",
"441 40 OFFCURVE",
"390 45 CURVE SMOOTH",
"351 49 OFFCURVE",
"311 55 OFFCURVE",
"271 60 CURVE",
"291 82 OFFCURVE",
"309 106 OFFCURVE",
"324 128 CURVE SMOOTH",
"363 184 OFFCURVE",
"383 250 OFFCURVE",
"413 311 CURVE SMOOTH",
"447 382 OFFCURVE",
"465 447 OFFCURVE",
"499 514 CURVE",
"562 516 OFFCURVE",
"632 549 OFFCURVE",
"632 621 CURVE SMOOTH",
"632 636 OFFCURVE",
"618 664 OFFCURVE",
"599 664 CURVE SMOOTH",
"567 663 OFFCURVE",
"510 591 OFFCURVE",
"487 556 CURVE",
"452 558 OFFCURVE",
"422 569 OFFCURVE",
"391 581 CURVE SMOOTH",
"328 606 OFFCURVE",
"269 634 OFFCURVE",
"200 644 CURVE SMOOTH",
"175 647 OFFCURVE",
"156 640 OFFCURVE",
"132 640 CURVE SMOOTH",
"78 640 OFFCURVE",
"34 607 OFFCURVE",
"34 550 CURVE SMOOTH",
"34 508 OFFCURVE",
"60 461 OFFCURVE",
"99 458 CURVE SMOOTH",
"142 455 OFFCURVE",
"181 491 OFFCURVE",
"181 534 CURVE SMOOTH",
"181 553 OFFCURVE",
"175 574 OFFCURVE",
"152 574 CURVE SMOOTH",
"128 573 OFFCURVE",
"110 557 OFFCURVE",
"104 535 CURVE SMOOTH",
"101 524 OFFCURVE",
"117 520 OFFCURVE",
"120 531 CURVE SMOOTH",
"124 547 OFFCURVE",
"136 558 OFFCURVE",
"152 557 CURVE SMOOTH",
"164 557 OFFCURVE",
"163 543 OFFCURVE",
"163 533 CURVE SMOOTH",
"163 479 OFFCURVE",
"62 449 OFFCURVE",
"62 550 CURVE SMOOTH",
"62 589 OFFCURVE",
"94 610 OFFCURVE",
"132 610 CURVE SMOOTH",
"154 610 OFFCURVE",
"170 596 OFFCURVE",
"192 593 CURVE SMOOTH",
"226 589 OFFCURVE",
"255 580 OFFCURVE",
"284 569 CURVE SMOOTH",
"359 541 OFFCURVE",
"388 519 OFFCURVE",
"463 515 CURVE",
"432 453 OFFCURVE",
"407 396 OFFCURVE",
"375 331 CURVE SMOOTH",
"360 300 OFFCURVE",
"346 269 OFFCURVE",
"332 238 CURVE SMOOTH",
"308 188 OFFCURVE",
"265 117 OFFCURVE",
"212 67 CURVE",
"176 70 OFFCURVE",
"140 73 OFFCURVE",
"104 73 CURVE SMOOTH",
"72 73 OFFCURVE",
"9 43 OFFCURVE",
"9 19 CURVE SMOOTH",
"9 -21 OFFCURVE",
"50 -45 OFFCURVE",
"90 -45 CURVE SMOOTH",
"142 -45 OFFCURVE",
"191 -17 OFFCURVE",
"233 20 CURVE",
"283 14 OFFCURVE",
"334 6 OFFCURVE",
"385 1 CURVE SMOOTH",
"439 -4 OFFCURVE",
"491 -13 OFFCURVE",
"544 -13 CURVE SMOOTH",
"559 -13 OFFCURVE",
"572 -12 OFFCURVE",
"584 -11 CURVE SMOOTH",
"633 -7 OFFCURVE",
"686 26 OFFCURVE",
"686 81 CURVE SMOOTH"
);
},
{
closed = 1;
nodes = (
"612 573 OFFCURVE",
"565 560 OFFCURVE",
"521 557 CURVE",
"529 574 OFFCURVE",
"538 592 OFFCURVE",
"553 610 CURVE SMOOTH",
"561 621 OFFCURVE",
"585 647 OFFCURVE",
"599 646 CURVE SMOOTH",
"611 646 OFFCURVE",
"612 628 OFFCURVE",
"612 619 CURVE SMOOTH"
);
},
{
closed = 1;
nodes = (
"137 13 OFFCURVE",
"114 6 OFFCURVE",
"90 6 CURVE SMOOTH",
"76 6 OFFCURVE",
"55 4 OFFCURVE",
"55 18 CURVE SMOOTH",
"55 29 OFFCURVE",
"89 28 OFFCURVE",
"104 28 CURVE SMOOTH",
"123 28 OFFCURVE",
"141 27 OFFCURVE",
"159 26 CURVE"
);
}
);
width = 690;
}
);
note = Z;
unicode = 005A;
},
{
glyphname = bracketleft;
layers = (
{
hints = (
{
horizontal = 1;
place = "{-11, 20}";
type = Stem;
},
{
place = "{63, 58}";
type = Stem;
}
);
layerId = "245B06BA-2FC8-4E2B-85DB-2741CBBED619";
paths = (
{
closed = 1;
nodes = (
"268 559 OFFCURVE",
"258 588 OFFCURVE",
"239 581 CURVE SMOOTH",
"185 563 OFFCURVE",
"123 556 OFFCURVE",
"63 556 CURVE SMOOTH",
"52 556 OFFCURVE",
"45 548 OFFCURVE",
"49 537 CURVE SMOOTH",
"69 465 OFFCURVE",
"63 387 OFFCURVE",
"63 314 CURVE SMOOTH",
"63 223 OFFCURVE",
"70 127 OFFCURVE",
"22 46 CURVE SMOOTH",
"15 33 OFFCURVE",
"21 23 OFFCURVE",
"35 23 CURVE SMOOTH",
"114 23 OFFCURVE",
"173 18 OFFCURVE",
"236 -10 CURVE SMOOTH",
"254 -18 OFFCURVE",
"266 10 OFFCURVE",
"248 18 CURVE SMOOTH",
"234 24 LINE",
"232 26 OFFCURVE",
"229 28 OFFCURVE",
"225 30 CURVE",
"178 42 OFFCURVE",
"132 65 OFFCURVE",
"83 70 CURVE",
"91 95 OFFCURVE",
"94 132 OFFCURVE",
"94 146 CURVE SMOOTH",
"95 202 OFFCURVE",
"121 253 OFFCURVE",
"121 310 CURVE SMOOTH",
"121 372 OFFCURVE",
"113 438 OFFCURVE",
"103 500 CURVE",
"140 514 OFFCURVE",
"172 532 OFFCURVE",
"214 534 CURVE SMOOTH",
"222 534 OFFCURVE",
"227 540 OFFCURVE",
"228 546 CURVE",
"235 548 OFFCURVE",
"242 550 OFFCURVE",
"249 553 CURVE SMOOTH"
);
}
);
width = 286;
}
);
note = bracketleft;
unicode = 005B;
},
{
glyphname = backslash;
layers = (
{
hints = (
{
horizontal = 1;
place = "{-16, 20}";
type = Stem;
}
);
layerId = "245B06BA-2FC8-4E2B-85DB-2741CBBED619";
paths = (
{
closed = 1;
nodes = (
"423 18 OFFCURVE",
"401 50 OFFCURVE",
"388 67 CURVE SMOOTH",
"342 127 OFFCURVE",
"253 303 OFFCURVE",
"178 422 CURVE SMOOTH",
"144 475 OFFCURVE",
"112 553 OFFCURVE",
"57 600 CURVE SMOOTH",
"37 617 OFFCURVE",
"22 612 OFFCURVE",
"33 593 CURVE",
"34 592 LINE",
"26 592 OFFCURVE",
"21 587 OFFCURVE",
"27 577 CURVE SMOOTH",
"92 470 OFFCURVE",
"149 374 OFFCURVE",
"216 265 CURVE SMOOTH",
"251 207 OFFCURVE",
"274 159 OFFCURVE",
"308 100 CURVE",
"309 99 LINE",
"321 78 OFFCURVE",
"331 59 OFFCURVE",
"342 43 CURVE SMOOTH",
"379 -11 OFFCURVE",
"454 -33 OFFCURVE",
"434 0 CURVE SMOOTH"
);
}
);
width = 452;
}
);
note = backslash;
unicode = 005C;
},
{
glyphname = bracketright;
layers = (
{
hints = (
{
horizontal = 1;
place = "{-11, 20}";
type = Stem;
},
{
place = "{171, 58}";
type = Stem;
}
);
layerId = "245B06BA-2FC8-4E2B-85DB-2741CBBED619";
paths = (
{
closed = 1;
nodes = (
"222 127 OFFCURVE",
"229 223 OFFCURVE",
"229 314 CURVE SMOOTH",
"229 387 OFFCURVE",
"223 465 OFFCURVE",
"244 537 CURVE SMOOTH",
"247 548 OFFCURVE",
"240 556 OFFCURVE",
"229 556 CURVE SMOOTH",
"169 556 OFFCURVE",
"107 563 OFFCURVE",
"53 581 CURVE SMOOTH",
"34 588 OFFCURVE",
"24 559 OFFCURVE",
"43 553 CURVE SMOOTH",
"50 550 OFFCURVE",
"57 548 OFFCURVE",
"64 546 CURVE",
"65 540 OFFCURVE",
"70 534 OFFCURVE",
"79 534 CURVE SMOOTH",
"121 532 OFFCURVE",
"152 514 OFFCURVE",
"189 500 CURVE",
"179 438 OFFCURVE",
"171 372 OFFCURVE",
"171 310 CURVE SMOOTH",
"171 253 OFFCURVE",
"197 202 OFFCURVE",
"198 146 CURVE SMOOTH",
"198 132 OFFCURVE",
"201 95 OFFCURVE",
"209 70 CURVE",
"160 65 OFFCURVE",
"115 42 OFFCURVE",
"67 30 CURVE",
"63 28 OFFCURVE",
"60 26 OFFCURVE",
"59 24 CURVE",
"44 18 LINE SMOOTH",
"26 10 OFFCURVE",
"38 -18 OFFCURVE",
"56 -10 CURVE SMOOTH",
"119 18 OFFCURVE",
"178 23 OFFCURVE",
"257 23 CURVE SMOOTH",
"271 23 OFFCURVE",
"277 33 OFFCURVE",
"270 46 CURVE SMOOTH"
);
}
);
width = 286;
}
);
note = bracketright;
unicode = 005D;
},
{
glyphname = asciicircum;
lastChange = "2020-01-04 17:48:50 +0000";
layers = (
{
hints = (
{
horizontal = 1;
place = "{354, 20}";
type = Stem;
},
{
horizontal = 1;
place = "{429, 66}";
type = Stem;
}
);
layerId = "245B06BA-2FC8-4E2B-85DB-2741CBBED619";
paths = (
{
closed = 1;
nodes = (
"316 437 OFFCURVE",
"252 486 OFFCURVE",
"249 486 CURVE SMOOTH",
"226 486 OFFCURVE",
"175 436 OFFCURVE",
"160 421 CURVE SMOOTH",
"147 408 OFFCURVE",
"156 402 OFFCURVE",
"169 412 CURVE SMOOTH",
"182 422 OFFCURVE",
"206 428 OFFCURVE",
"233 446 CURVE SMOOTH",
"242 452 OFFCURVE",
"250 448 OFFCURVE",
"263 440 CURVE SMOOTH",
"282 428 OFFCURVE",
"308 423 OFFCURVE",
"326 413 CURVE SMOOTH",
"341 405 OFFCURVE",
"344 420 OFFCURVE",
"329 429 CURVE SMOOTH"
);
}
);
width = 567;
}
);
note = asciicircum;
unicode = 005E;
},
{
glyphname = grave;
lastChange = "2020-01-04 17:55:29 +0000";
layers = (
{
hints = (
{
horizontal = 1;
place = "{414, 86}";
type = Stem;
},
{
place = "{38, 186}";
type = Stem;
}
);
layerId = "245B06BA-2FC8-4E2B-85DB-2741CBBED619";
paths = (
{
closed = 1;
nodes = (
"56 486 OFFCURVE",
"55 459 OFFCURVE",
"73 451 CURVE SMOOTH",
"108 435 OFFCURVE",
"156 434 OFFCURVE",
"193 421 CURVE SMOOTH",
"207 416 OFFCURVE",
"215 429 OFFCURVE",
"201 434 CURVE SMOOTH",
"165 447 OFFCURVE",
"124 475 OFFCURVE",
"89 490 CURVE SMOOTH",
"80 494 OFFCURVE",
"71 491 OFFCURVE",
"68 490 CURVE SMOOTH"
);
}
);
width = 271;
}
);
note = grave;
unicode = 0060;
},
{
glyphname = a;
layers = (
{
hints = (
{
horizontal = 1;
place = "{-25, 20}";
type = Stem;
},
{
horizontal = 1;
place = "{23, 31}";
type = Stem;
},
{
horizontal = 1;
place = "{300, 15}";
type = Stem;
},
{
place = "{12, 42}";
type = Stem;
},
{
place = "{210, 19}";
type = Stem;
}
);
layerId = "245B06BA-2FC8-4E2B-85DB-2741CBBED619";
paths = (
{
closed = 1;
nodes = (
"236 37 OFFCURVE",
"222 79 OFFCURVE",
"214 120 CURVE",
"227 156 OFFCURVE",
"227 190 OFFCURVE",
"215 222 CURVE",
"214 222 LINE",
"223 232 OFFCURVE",
"228 247 OFFCURVE",
"228 255 CURVE SMOOTH",
"229 306 OFFCURVE",
"184 317 OFFCURVE",
"140 316 CURVE SMOOTH",
"29 313 OFFCURVE",
"12 191 OFFCURVE",
"12 123 CURVE SMOOTH",
"12 65 OFFCURVE",
"47 21 OFFCURVE",
"111 22 CURVE SMOOTH",
"144 22 OFFCURVE",
"177 57 OFFCURVE",
"196 86 CURVE",
"208 55 OFFCURVE",
"206 27 OFFCURVE",
"226 -10 CURVE SMOOTH",
"245 -45 OFFCURVE",
"256 -11 OFFCURVE",
"252 -1 CURVE SMOOTH"
);
},
{
closed = 1;
nodes = (
"210 248 OFFCURVE",
"204 238 OFFCURVE",
"199 234 CURVE",
"197 234 OFFCURVE",
"195 233 OFFCURVE",
"193 232 CURVE",
"186 233 OFFCURVE",
"186 234 OFFCURVE",
"180 242 CURVE",
"181 242 LINE",
"175 249 OFFCURVE",
"164 241 OFFCURVE",
"169 234 CURVE SMOOTH",
"174 228 OFFCURVE",
"176 223 OFFCURVE",
"179 219 CURVE",
"176 213 OFFCURVE",
"174 205 OFFCURVE",
"174 195 CURVE SMOOTH",
"173 179 OFFCURVE",
"178 165 OFFCURVE",
"180 150 CURVE SMOOTH",
"182 140 OFFCURVE",
"188 114 OFFCURVE",
"183 104 CURVE SMOOTH",
"173 82 OFFCURVE",
"149 54 OFFCURVE",
"118 54 CURVE SMOOTH",
"69 54 OFFCURVE",
"55 115 OFFCURVE",
"55 160 CURVE SMOOTH",
"55 231 OFFCURVE",
"94 300 OFFCURVE",
"153 300 CURVE SMOOTH",
"184 300 OFFCURVE",
"210 291 OFFCURVE",
"210 254 CURVE SMOOTH"
);
}
);
width = 251;
}
);
note = a;
unicode = 0061;
},
{
glyphname = b;
layers = (
{
hints = (
{
horizontal = 1;
place = "{281, 32}";
type = Stem;
},
{
place = "{34, 21}";
type = Stem;
},
{
place = "{68, 26}";
type = Stem;
},
{
place = "{98, 34}";
type = Stem;
},
{
place = "{225, 52}";
type = Stem;
}
);
layerId = "245B06BA-2FC8-4E2B-85DB-2741CBBED619";
paths = (
{
closed = 1;
nodes = (
"276 214 OFFCURVE",
"278 234 OFFCURVE",
"268 257 CURVE SMOOTH",
"258 280 OFFCURVE",
"207 314 OFFCURVE",
"179 314 CURVE SMOOTH",
"144 313 OFFCURVE",
"106 292 OFFCURVE",
"77 262 CURVE",
"70 310 OFFCURVE",
"63 358 OFFCURVE",
"62 407 CURVE SMOOTH",
"61 427 OFFCURVE",
"55 439 OFFCURVE",
"55 459 CURVE SMOOTH",
"55 471 OFFCURVE",
"53 480 OFFCURVE",
"55 491 CURVE SMOOTH",
"56 502 OFFCURVE",
"39 505 OFFCURVE",
"37 494 CURVE SMOOTH",
"36 481 OFFCURVE",
"34 472 OFFCURVE",
"34 458 CURVE SMOOTH",
"34 438 OFFCURVE",
"31 426 OFFCURVE",
"31 406 CURVE SMOOTH",
"33 338 OFFCURVE",
"44 292 OFFCURVE",
"53 230 CURVE",
"37 207 OFFCURVE",
"28 181 OFFCURVE",
"28 156 CURVE SMOOTH",
"28 155 LINE SMOOTH",
"28 141 OFFCURVE",
"50 141 OFFCURVE",
"50 156 CURVE SMOOTH",
"50 168 OFFCURVE",
"53 180 OFFCURVE",
"58 192 CURVE",
"62 162 OFFCURVE",
"67 134 OFFCURVE",
"67 102 CURVE SMOOTH",
"67 89 OFFCURVE",
"62 -1 OFFCURVE",
"37 8 CURVE SMOOTH",
"27 11 OFFCURVE",
"21 -5 OFFCURVE",
"32 -9 CURVE SMOOTH",
"52 -16 OFFCURVE",
"66 -7 OFFCURVE",
"74 12 CURVE SMOOTH",
"83 32 OFFCURVE",
"94 80 OFFCURVE",
"94 101 CURVE SMOOTH",
"93 145 OFFCURVE",
"88 188 OFFCURVE",
"82 231 CURVE",
"108 260 OFFCURVE",
"146 281 OFFCURVE",
"180 281 CURVE SMOOTH",
"196 281 OFFCURVE",
"215 249 OFFCURVE",
"221 236 CURVE SMOOTH",
"226 222 OFFCURVE",
"224 204 OFFCURVE",
"224 189 CURVE SMOOTH",
"224 136 OFFCURVE",
"196 72 OFFCURVE",
"164 33 CURVE SMOOTH",
"160 28 OFFCURVE",
"154 22 OFFCURVE",
"147 22 CURVE SMOOTH",
"146 22 OFFCURVE",
"148 28 OFFCURVE",
"148 28 CURVE",
"144 34 OFFCURVE",
"131 45 OFFCURVE",
"131 54 CURVE SMOOTH",
"131 56 OFFCURVE",
"128 61 OFFCURVE",
"130 66 CURVE SMOOTH",
"133 72 OFFCURVE",
"132 80 OFFCURVE",
"134 85 CURVE SMOOTH",
"137 96 OFFCURVE",
"121 102 OFFCURVE",
"117 91 CURVE SMOOTH",
"113 82 OFFCURVE",
"97 65 OFFCURVE",
"97 53 CURVE SMOOTH",
"97 38 OFFCURVE",
"103 14 OFFCURVE",
"109 5 CURVE SMOOTH",
"110 3 OFFCURVE",
"136 -24 OFFCURVE",
"147 -24 CURVE SMOOTH",
"170 -24 OFFCURVE",
"192 -16 OFFCURVE",
"204 -1 CURVE SMOOTH",
"242 46 OFFCURVE",
"276 122 OFFCURVE",
"276 190 CURVE SMOOTH"
);
}
);
width = 285;
}
);
note = b;
unicode = 0062;
},
{
glyphname = c;
layers = (
{
hints = (
{
horizontal = 1;
place = "{-9, 26}";
type = Stem;
},
{
horizontal = 1;
place = "{98, 28}";
type = Stem;
},
{
horizontal = 1;
place = "{179, 27}";
type = Stem;
},
{
horizontal = 1;
place = "{298, 45}";
type = Stem;
},
{
place = "{43, 30}";
type = Stem;
},
{
place = "{174, 30}";
type = Stem;
},
{
place = "{231, 23}";
type = Stem;
}
);
layerId = "245B06BA-2FC8-4E2B-85DB-2741CBBED619";
paths = (
{
closed = 1;
nodes = (
"286 282 OFFCURVE",
"270 322 OFFCURVE",
"238 335 CURVE SMOOTH",
"213 345 OFFCURVE",
"200 342 OFFCURVE",
"173 342 CURVE SMOOTH",
"93 343 OFFCURVE",
"43 209 OFFCURVE",
"43 136 CURVE SMOOTH",
"43 46 OFFCURVE",
"89 -9 OFFCURVE",
"174 -9 CURVE SMOOTH",
"205 -9 OFFCURVE",
"252 38 OFFCURVE",
"253 74 CURVE SMOOTH",
"253 96 OFFCURVE",
"238 126 OFFCURVE",
"214 126 CURVE SMOOTH",
"193 126 OFFCURVE",
"176 108 OFFCURVE",
"174 87 CURVE SMOOTH",
"173 66 OFFCURVE",
"203 64 OFFCURVE",
"204 84 CURVE SMOOTH",
"204 91 OFFCURVE",
"207 98 OFFCURVE",
"214 98 CURVE SMOOTH",
"224 98 OFFCURVE",
"230 84 OFFCURVE",
"230 74 CURVE SMOOTH",
"231 49 OFFCURVE",
"197 17 OFFCURVE",
"174 17 CURVE SMOOTH",
"107 17 OFFCURVE",
"73 64 OFFCURVE",
"73 135 CURVE SMOOTH",
"73 192 OFFCURVE",
"111 299 OFFCURVE",
"173 298 CURVE SMOOTH",
"206 298 OFFCURVE",
"234 286 OFFCURVE",
"234 249 CURVE SMOOTH",
"234 231 OFFCURVE",
"237 205 OFFCURVE",
"219 205 CURVE SMOOTH",
"211 206 OFFCURVE",
"207 212 OFFCURVE",
"210 221 CURVE",
"209 220 LINE",
"215 238 OFFCURVE",
"188 246 OFFCURVE",
"183 228 CURVE SMOOTH",
"173 197 OFFCURVE",
"191 179 OFFCURVE",
"219 179 CURVE SMOOTH",
"256 178 OFFCURVE",
"286 211 OFFCURVE",
"286 248 CURVE SMOOTH"
);
}
);
width = 305;
}
);
note = c;
unicode = 0063;
},
{
glyphname = d;
layers = (
{
hints = (
{
place = "{185, 32}";
type = Stem;
}
);
layerId = "245B06BA-2FC8-4E2B-85DB-2741CBBED619";
paths = (
{
closed = 1;
nodes = (
"280 -37 OFFCURVE",
"277 -31 OFFCURVE",
"271 -30 CURVE SMOOTH",
"239 -26 OFFCURVE",
"230 76 OFFCURVE",
"226 100 CURVE SMOOTH",
"221 131 OFFCURVE",
"218 163 OFFCURVE",
"217 195 CURVE",
"223 206 OFFCURVE",
"230 220 OFFCURVE",
"238 238 CURVE SMOOTH",
"260 290 OFFCURVE",
"276 341 OFFCURVE",
"283 398 CURVE SMOOTH",
"285 419 OFFCURVE",
"293 502 OFFCURVE",
"256 507 CURVE SMOOTH",
"249 508 OFFCURVE",
"238 501 OFFCURVE",
"231 489 CURVE SMOOTH",
"205 446 OFFCURVE",
"190 396 OFFCURVE",
"184 347 CURVE SMOOTH",
"181 320 OFFCURVE",
"177 306 OFFCURVE",
"176 278 CURVE SMOOTH",
"174 223 OFFCURVE",
"177 166 OFFCURVE",
"185 113 CURVE",
"182 105 OFFCURVE",
"179 97 OFFCURVE",
"176 94 CURVE SMOOTH",
"172 90 OFFCURVE",
"147 55 OFFCURVE",
"140 54 CURVE SMOOTH",
"93 46 OFFCURVE",
"50 96 OFFCURVE",
"43 141 CURVE SMOOTH",
"37 182 OFFCURVE",
"53 268 OFFCURVE",
"100 276 CURVE SMOOTH",
"115 278 OFFCURVE",
"139 261 OFFCURVE",
"142 245 CURVE SMOOTH",
"144 231 OFFCURVE",
"141 223 OFFCURVE",
"135 210 CURVE SMOOTH",
"132 204 OFFCURVE",
"128 194 OFFCURVE",
"120 193 CURVE",
"114 191 OFFCURVE",
"104 198 OFFCURVE",
"103 201 CURVE SMOOTH",
"101 210 OFFCURVE",
"103 217 OFFCURVE",
"106 225 CURVE SMOOTH",
"109 234 OFFCURVE",
"96 239 OFFCURVE",
"93 231 CURVE SMOOTH",
"89 219 OFFCURVE",
"80 210 OFFCURVE",
"83 196 CURVE SMOOTH",
"87 181 OFFCURVE",
"109 170 OFFCURVE",
"123 172 CURVE SMOOTH",
"133 174 OFFCURVE",
"140 180 OFFCURVE",
"144 186 CURVE SMOOTH",
"157 203 OFFCURVE",
"164 227 OFFCURVE",
"161 248 CURVE SMOOTH",
"157 274 OFFCURVE",
"121 306 OFFCURVE",
"96 302 CURVE SMOOTH",
"55 296 OFFCURVE",
"15 248 OFFCURVE",
"9 210 CURVE SMOOTH",
"5 182 OFFCURVE",
"1 163 OFFCURVE",
"5 135 CURVE SMOOTH",
"15 71 OFFCURVE",
"78 3 OFFCURVE",
"146 14 CURVE SMOOTH",
"162 16 OFFCURVE",
"171 35 OFFCURVE",
"180 45 CURVE SMOOTH",
"182 47 OFFCURVE",
"187 62 OFFCURVE",
"192 78 CURVE",
"196 57 OFFCURVE",
"201 37 OFFCURVE",
"206 18 CURVE SMOOTH",
"217 -19 OFFCURVE",
"241 -55 OFFCURVE",
"268 -58 CURVE SMOOTH",
"277 -60 OFFCURVE",
"282 -55 OFFCURVE",
"287 -53 CURVE SMOOTH",
"295 -50 OFFCURVE",
"309 -22 OFFCURVE",
"290 -32 CURVE SMOOTH"
);
},
{
closed = 1;
nodes = (
"254 347 OFFCURVE",
"239 299 OFFCURVE",
"220 249 CURVE",
"216 242 LINE",
"217 275 OFFCURVE",
"219 309 OFFCURVE",
"223 342 CURVE SMOOTH",
"228 385 OFFCURVE",
"227 420 OFFCURVE",
"243 458 CURVE",
"245 461 OFFCURVE",
"247 469 OFFCURVE",
"251 476 CURVE SMOOTH",
"254 480 OFFCURVE",
"252 485 OFFCURVE",
"254 485 CURVE",
"266 478 OFFCURVE",
"262 411 OFFCURVE",
"261 401 CURVE SMOOTH"
);
}
);
width = 300;
}
);
note = d;
unicode = 0064;
},
{
glyphname = e;
layers = (
{
hints = (
{
horizontal = 1;
place = "{4, 30}";
type = Stem;
},
{
horizontal = 1;
place = "{148, 24}";
type = Stem;
},
{
horizontal = 1;
place = "{265, 26}";
type = Stem;
},
{
place = "{192, 26}";
type = Stem;
}
);
layerId = "245B06BA-2FC8-4E2B-85DB-2741CBBED619";
paths = (
{
closed = 1;
nodes = (
"218 247 OFFCURVE",
"190 291 OFFCURVE",
"162 291 CURVE SMOOTH",
"149 291 OFFCURVE",
"140 291 OFFCURVE",
"128 288 CURVE SMOOTH",
"52 266 OFFCURVE",
"16 184 OFFCURVE",
"16 112 CURVE",
"17 108 LINE SMOOTH",
"30 55 OFFCURVE",
"65 6 OFFCURVE",
"128 5 CURVE SMOOTH",
"168 5 OFFCURVE",
"201 44 OFFCURVE",
"215 81 CURVE SMOOTH",
"225 107 OFFCURVE",
"206 109 OFFCURVE",
"197 84 CURVE SMOOTH",
"189 63 OFFCURVE",
"146 34 OFFCURVE",
"124 34 CURVE SMOOTH",
"90 34 OFFCURVE",
"68 73 OFFCURVE",
"58 115 CURVE",
"57 123 OFFCURVE",
"55 129 OFFCURVE",
"56 137 CURVE SMOOTH",
"58 153 OFFCURVE",
"62 170 OFFCURVE",
"68 186 CURVE",
"84 172 OFFCURVE",
"138 147 OFFCURVE",
"156 147 CURVE SMOOTH",
"194 148 OFFCURVE",
"218 190 OFFCURVE",
"218 224 CURVE SMOOTH"
);
},
{
closed = 1;
nodes = (
"192 202 OFFCURVE",
"181 172 OFFCURVE",
"156 172 CURVE SMOOTH",
"143 172 OFFCURVE",
"86 193 OFFCURVE",
"78 201 CURVE SMOOTH",
"77 202 OFFCURVE",
"76 203 OFFCURVE",
"75 203 CURVE",
"87 229 OFFCURVE",
"107 251 OFFCURVE",
"136 259 CURVE",
"145 263 OFFCURVE",
"152 265 OFFCURVE",
"162 265 CURVE SMOOTH",
"169 265 OFFCURVE",
"192 239 OFFCURVE",
"192 224 CURVE SMOOTH"
);
}
);
width = 227;
}
);
note = e;
unicode = 0065;
},
{
glyphname = f;
layers = (
{
hints = (
{
horizontal = 1;
place = "{-259, 49}";
type = Stem;
},
{
horizontal = 1;
place = "{-158, 24}";
type = Stem;
},
{
horizontal = 1;
place = "{268, 28}";
type = Stem;
},
{
horizontal = 1;
place = "{426, 32}";
type = Stem;
},
{
horizontal = 1;
place = "{504, 17}";
type = Stem;
},
{
horizontal = 1;
place = "{591, 30}";
type = Stem;
},
{
place = "{-12, 36}";
type = Stem;
},
{
place = "{94, 21}";
type = Stem;
},
{
place = "{168, 17}";
type = Stem;
},
{
place = "{250, 49}";
type = Stem;
}
);
layerId = "245B06BA-2FC8-4E2B-85DB-2741CBBED619";
paths = (
{
closed = 1;
nodes = (
"298 590 OFFCURVE",
"259 621 OFFCURVE",
"193 621 CURVE SMOOTH",
"170 621 OFFCURVE",
"154 613 OFFCURVE",
"141 603 CURVE SMOOTH",
"84 561 OFFCURVE",
"74 486 OFFCURVE",
"74 415 CURVE SMOOTH",
"74 374 OFFCURVE",
"79 331 OFFCURVE",
"88 288 CURVE",
"67 282 OFFCURVE",
"49 273 OFFCURVE",
"39 258 CURVE SMOOTH",
"33 248 OFFCURVE",
"47 239 OFFCURVE",
"53 248 CURVE SMOOTH",
"60 258 OFFCURVE",
"76 263 OFFCURVE",
"94 266 CURVE",
"117 161 OFFCURVE",
"143 70 OFFCURVE",
"143 -40 CURVE SMOOTH",
"143 -65 OFFCURVE",
"142 -84 OFFCURVE",
"141 -104 CURVE SMOOTH",
"138 -143 OFFCURVE",
"118 -211 OFFCURVE",
"78 -210 CURVE SMOOTH",
"45 -210 OFFCURVE",
"24 -152 OFFCURVE",
"24 -124 CURVE SMOOTH",
"24 -18 OFFCURVE",
"95 16 OFFCURVE",
"94 -65 CURVE SMOOTH",
"94 -80 OFFCURVE",
"89 -133 OFFCURVE",
"70 -135 CURVE",
"69 -133 LINE",
"67 -131 LINE",
"66 -127 LINE",
"59 -112 OFFCURVE",
"38 -123 OFFCURVE",
"45 -137 CURVE",
"46 -141 LINE",
"51 -150 OFFCURVE",
"59 -158 OFFCURVE",
"70 -158 CURVE SMOOTH",
"97 -158 OFFCURVE",
"114 -86 OFFCURVE",
"114 -65 CURVE SMOOTH",
"115 -56 OFFCURVE",
"114 -43 OFFCURVE",
"110 -31 CURVE SMOOTH",
"83 46 OFFCURVE",
"-12 -31 OFFCURVE",
"-12 -123 CURVE SMOOTH",
"-12 -147 OFFCURVE",
"-7 -168 OFFCURVE",
"0 -190 CURVE SMOOTH",
"11 -223 OFFCURVE",
"43 -259 OFFCURVE",
"78 -259 CURVE SMOOTH",
"140 -258 OFFCURVE",
"187 -167 OFFCURVE",
"191 -109 CURVE SMOOTH",
"193 -87 OFFCURVE",
"193 -66 OFFCURVE",
"193 -38 CURVE SMOOTH",
"193 31 OFFCURVE",
"180 83 OFFCURVE",
"163 152 CURVE SMOOTH",
"154 190 OFFCURVE",
"141 229 OFFCURVE",
"130 268 CURVE",
"157 268 LINE SMOOTH",
"169 268 OFFCURVE",
"177 263 OFFCURVE",
"189 263 CURVE SMOOTH",
"238 263 OFFCURVE",
"271 293 OFFCURVE",
"242 336 CURVE SMOOTH",
"227 357 OFFCURVE",
"196 336 OFFCURVE",
"210 315 CURVE SMOOTH",
"219 301 OFFCURVE",
"204 297 OFFCURVE",
"189 297 CURVE SMOOTH",
"177 297 OFFCURVE",
"169 296 OFFCURVE",
"157 296 CURVE SMOOTH",
"147 296 OFFCURVE",
"135 296 OFFCURVE",
"123 295 CURVE",
"113 334 OFFCURVE",
"106 374 OFFCURVE",
"106 414 CURVE SMOOTH",
"106 477 OFFCURVE",
"106 546 OFFCURVE",
"157 583 CURVE",
"165 590 OFFCURVE",
"177 591 OFFCURVE",
"193 591 CURVE SMOOTH",
"235 591 OFFCURVE",
"251 564 OFFCURVE",
"250 521 CURVE SMOOTH",
"250 509 OFFCURVE",
"246 496 OFFCURVE",
"241 486 CURVE SMOOTH",
"237 480 OFFCURVE",
"228 458 OFFCURVE",
"218 458 CURVE SMOOTH",
"202 458 OFFCURVE",
"186 462 OFFCURVE",
"185 482 CURVE SMOOTH",
"185 497 OFFCURVE",
"190 505 OFFCURVE",
"205 504 CURVE SMOOTH",
"217 504 OFFCURVE",
"217 520 OFFCURVE",
"206 520 CURVE SMOOTH",
"181 521 OFFCURVE",
"167 506 OFFCURVE",
"167 483 CURVE SMOOTH",
"168 446 OFFCURVE",
"189 426 OFFCURVE",
"219 426 CURVE SMOOTH",
"239 426 OFFCURVE",
"277 448 OFFCURVE",
"285 463 CURVE SMOOTH",
"294 479 OFFCURVE",
"299 500 OFFCURVE",
"299 520 CURVE SMOOTH"
);
}
);
width = 290;
}
);
note = f;
unicode = 0066;
},
{
glyphname = g;
layers = (
{
hints = (
{
horizontal = 1;
place = "{-318, 32}";
type = Stem;
},
{
horizontal = 1;
place = "{-213, 30}";
type = Stem;
},
{
horizontal = 1;
place = "{-28, 27}";
type = Stem;
},
{
horizontal = 1;
place = "{43, 38}";
type = Stem;
},
{
horizontal = 1;
place = "{248, 28}";
type = Stem;
},
{
horizontal = 1;
place = "{311, 38}";
type = Stem;
},
{
place = "{-9, 25}";
type = Stem;
},
{
place = "{58, 19}";
type = Stem;
},
{
place = "{147, 30}";
type = Stem;
},
{
place = "{201, 17}";
type = Stem;
},
{
place = "{260, 20}";
type = Stem;
}
);
layerId = "245B06BA-2FC8-4E2B-85DB-2741CBBED619";
paths = (
{
closed = 1;
nodes = (
"278 215 LINE",
"279 232 OFFCURVE",
"270 275 OFFCURVE",
"251 275 CURVE SMOOTH",
"231 275 OFFCURVE",
"216 174 OFFCURVE",
"216 149 CURVE SMOOTH",
"216 134 OFFCURVE",
"217 119 OFFCURVE",
"218 104 CURVE",
"197 86 OFFCURVE",
"169 80 OFFCURVE",
"126 80 CURVE SMOOTH",
"88 80 OFFCURVE",
"60 119 OFFCURVE",
"60 156 CURVE SMOOTH",
"60 225 OFFCURVE",
"61 279 OFFCURVE",
"122 302 CURVE SMOOTH",
"130 305 OFFCURVE",
"138 310 OFFCURVE",
"147 310 CURVE SMOOTH",
"171 310 OFFCURVE",
"200 294 OFFCURVE",
"201 266 CURVE SMOOTH",
"201 250 OFFCURVE",
"190 229 OFFCURVE",
"175 229 CURVE SMOOTH",
"172 229 OFFCURVE",
"170 236 OFFCURVE",
"170 237 CURVE SMOOTH",
"170 238 LINE",
"166 248 OFFCURVE",
"150 243 OFFCURVE",
"154 232 CURVE SMOOTH",
"155 228 OFFCURVE",
"165 209 OFFCURVE",
"174 209 CURVE SMOOTH",
"198 209 OFFCURVE",
"218 242 OFFCURVE",
"218 266 CURVE SMOOTH",
"219 309 OFFCURVE",
"185 348 OFFCURVE",
"147 348 CURVE SMOOTH",
"138 348 OFFCURVE",
"131 348 OFFCURVE",
"124 346 CURVE SMOOTH",
"27 317 OFFCURVE",
"15 241 OFFCURVE",
"16 156 CURVE SMOOTH",
"16 101 OFFCURVE",
"69 42 OFFCURVE",
"128 42 CURVE SMOOTH",
"162 42 OFFCURVE",
"196 52 OFFCURVE",
"220 72 CURVE",
"222 48 OFFCURVE",
"224 23 OFFCURVE",
"224 -2 CURVE SMOOTH",
"224 -68 OFFCURVE",
"216 -117 OFFCURVE",
"197 -167 CURVE SMOOTH",
"179 -216 OFFCURVE",
"169 -240 OFFCURVE",
"129 -265 CURVE SMOOTH",
"116 -273 OFFCURVE",
"102 -287 OFFCURVE",
"87 -287 CURVE SMOOTH",
"43 -287 OFFCURVE",
"17 -208 OFFCURVE",
"17 -174 CURVE SMOOTH",
"16 -109 OFFCURVE",
"56 -27 OFFCURVE",
"125 -28 CURVE SMOOTH",
"146 -28 OFFCURVE",
"147 -71 OFFCURVE",
"147 -85 CURVE SMOOTH",
"147 -105 OFFCURVE",
"129 -184 OFFCURVE",
"101 -184 CURVE SMOOTH",
"84 -184 OFFCURVE",
"77 -172 OFFCURVE",
"77 -159 CURVE SMOOTH",
"79 -133 LINE SMOOTH",
"80 -125 OFFCURVE",
"90 -83 OFFCURVE",
"107 -89 CURVE",
"106 -89 OFFCURVE",
"103 -92 OFFCURVE",
"103 -92 CURVE",
"104 -104 OFFCURVE",
"122 -102 OFFCURVE",
"121 -90 CURVE",
"121 -90 OFFCURVE",
"115 -74 OFFCURVE",
"113 -73 CURVE SMOOTH",
"73 -56 OFFCURVE",
"59 -134 OFFCURVE",
"59 -160 CURVE SMOOTH",
"58 -186 OFFCURVE",
"67 -214 OFFCURVE",
"101 -214 CURVE SMOOTH",
"152 -214 OFFCURVE",
"177 -123 OFFCURVE",
"177 -84 CURVE SMOOTH",
"177 -52 OFFCURVE",
"169 -2 OFFCURVE",
"126 -2 CURVE SMOOTH",
"43 -1 OFFCURVE",
"-10 -96 OFFCURVE",
"-9 -173 CURVE SMOOTH",
"-9 -218 OFFCURVE",
"30 -319 OFFCURVE",
"88 -319 CURVE SMOOTH",
"113 -319 OFFCURVE",
"125 -304 OFFCURVE",
"145 -291 CURVE SMOOTH",
"193 -261 OFFCURVE",
"207 -236 OFFCURVE",
"229 -180 CURVE SMOOTH",
"250 -126 OFFCURVE",
"260 -73 OFFCURVE",
"260 -1 CURVE SMOOTH",
"260 38 OFFCURVE",
"255 71 OFFCURVE",
"252 106 CURVE",
"273 134 OFFCURVE",
"280 157 OFFCURVE",
"280 200 CURVE"
);
},
{
closed = 1;
nodes = (
"260 202 LINE SMOOTH",
"259 182 OFFCURVE",
"256 168 OFFCURVE",
"250 153 CURVE",
"250 154 LINE SMOOTH",
"250 177 OFFCURVE",
"237 248 OFFCURVE",
"251 248 CURVE SMOOTH",
"260 248 OFFCURVE",
"262 225 OFFCURVE",
"261 216 CURVE SMOOTH"
);
}
);
width = 305;
}
);
note = g;
unicode = 0067;
},
{
glyphname = h;
layers = (
{
hints = (
{
horizontal = 1;
place = "{-35, 23}";
type = Stem;
},
{
horizontal = 1;
place = "{303, 22}";
type = Stem;
},
{
place = "{47, 30}";
type = Stem;
},
{
place = "{172, 36}";
type = Stem;
},
{
place = "{229, 30}";
type = Stem;
},
{
place = "{280, 24}";
type = Stem;
}
);
layerId = "245B06BA-2FC8-4E2B-85DB-2741CBBED619";
paths = (
{
closed = 1;
nodes = (
"304 99 OFFCURVE",
"229 98 OFFCURVE",
"229 32 CURVE SMOOTH",
"229 13 OFFCURVE",
"259 13 OFFCURVE",
"259 33 CURVE SMOOTH",
"259 44 OFFCURVE",
"252 65 OFFCURVE",
"267 67 CURVE SMOOTH",
"279 68 OFFCURVE",
"280 53 OFFCURVE",
"280 40 CURVE SMOOTH",
"280 -16 OFFCURVE",
"208 -46 OFFCURVE",
"208 58 CURVE SMOOTH",
"208 104 OFFCURVE",
"277 171 OFFCURVE",
"277 237 CURVE SMOOTH",
"277 278 OFFCURVE",
"244 325 OFFCURVE",
"198 325 CURVE SMOOTH",
"146 325 OFFCURVE",
"114 260 OFFCURVE",
"95 208 CURVE",
"96 222 OFFCURVE",
"100 236 OFFCURVE",
"100 251 CURVE SMOOTH",
"99 270 OFFCURVE",
"105 282 OFFCURVE",
"105 302 CURVE SMOOTH",
"105 387 OFFCURVE",
"108 483 OFFCURVE",
"71 562 CURVE SMOOTH",
"56 593 OFFCURVE",
"9 571 OFFCURVE",
"24 540 CURVE SMOOTH",
"57 471 OFFCURVE",
"55 377 OFFCURVE",
"54 302 CURVE SMOOTH",
"53 250 LINE SMOOTH",
"53 235 OFFCURVE",
"55 221 OFFCURVE",
"54 208 CURVE SMOOTH",
"51 168 OFFCURVE",
"47 130 OFFCURVE",
"47 87 CURVE SMOOTH",
"47 71 OFFCURVE",
"44 20 OFFCURVE",
"39 -3 CURVE",
"42 -14 OFFCURVE",
"51 -20 OFFCURVE",
"61 -11 CURVE SMOOTH",
"71 -3 OFFCURVE",
"77 79 OFFCURVE",
"77 88 CURVE SMOOTH",
"77 93 OFFCURVE",
"77 99 OFFCURVE",
"78 105 CURVE",
"85 128 OFFCURVE",
"93 150 OFFCURVE",
"100 171 CURVE SMOOTH",
"114 216 OFFCURVE",
"142 303 OFFCURVE",
"198 303 CURVE SMOOTH",
"227 303 OFFCURVE",
"232 263 OFFCURVE",
"232 237 CURVE SMOOTH",
"232 172 OFFCURVE",
"172 120 OFFCURVE",
"172 58 CURVE SMOOTH",
"172 40 OFFCURVE",
"178 28 OFFCURVE",
"183 11 CURVE SMOOTH",
"203 -61 OFFCURVE",
"304 -47 OFFCURVE",
"304 39 CURVE SMOOTH"
);
}
);
width = 320;
}
);
note = h;
unicode = 0068;
},
{
glyphname = i;
layers = (
{
hints = (
{
horizontal = 1;
place = "{-60, 17}";
type = Stem;
},
{
horizontal = 1;
place = "{357, 72}";
type = Stem;
},
{
place = "{42, 36}";
type = Stem;
}
);
layerId = "245B06BA-2FC8-4E2B-85DB-2741CBBED619";
paths = (
{
closed = 1;
nodes = (
"112 420 OFFCURVE",
"103 428 OFFCURVE",
"83 428 CURVE SMOOTH",
"62 428 OFFCURVE",
"55 423 OFFCURVE",
"55 401 CURVE SMOOTH",
"55 379 OFFCURVE",
"59 356 OFFCURVE",
"79 356 CURVE SMOOTH",
"100 356 OFFCURVE",
"112 376 OFFCURVE",
"112 398 CURVE SMOOTH"
);
},
{
closed = 1;
nodes = (
"162 -15 LINE SMOOTH",
"162 15 OFFCURVE",
"129 -43 OFFCURVE",
"113 -43 CURVE SMOOTH",
"92 -43 OFFCURVE",
"78 -3 OFFCURVE",
"78 20 CURVE SMOOTH",
"78 45 OFFCURVE",
"81 68 OFFCURVE",
"85 92 CURVE SMOOTH",
"88 115 OFFCURVE",
"97 135 OFFCURVE",
"101 161 CURVE SMOOTH",
"106 192 OFFCURVE",
"125 292 OFFCURVE",
"68 285 CURVE SMOOTH",
"67 285 OFFCURVE",
"68 283 OFFCURVE",
"67 283 CURVE SMOOTH",
"46 283 OFFCURVE",
"40 258 OFFCURVE",
"51 246 CURVE",
"59 229 OFFCURVE",
"57 228 OFFCURVE",
"56 209 CURVE SMOOTH",
"56 193 OFFCURVE",
"60 181 OFFCURVE",
"58 168 CURVE SMOOTH",
"54 142 OFFCURVE",
"53 121 OFFCURVE",
"49 99 CURVE SMOOTH",
"45 73 OFFCURVE",
"42 48 OFFCURVE",
"42 20 CURVE SMOOTH",
"42 -14 OFFCURVE",
"82 -60 OFFCURVE",
"113 -60 CURVE SMOOTH",
"130 -60 OFFCURVE",
"162 -33 OFFCURVE",
"162 -16 CURVE SMOOTH"
);
}
);
width = 158;
}
);
note = i;
unicode = 0069;
},
